<svg xmlns="http://www.w3.org/2000/svg" xmlns:xlink="http://www.w3.org/1999/xlink" width="500" zoomAndPan="magnify" viewBox="0 0 375 374.999991" height="500" preserveAspectRatio="xMidYMid meet" version="1.2"><defs><clipPath id="67fb219d30"><path d="M 0 9.890625 L 369 9.890625 L 369 370.640625 L 0 370.640625 Z M 0 9.890625 "/></clipPath><clipPath id="759432fdb8"><path d="M 0 9.890625 L 369 9.890625 L 369 370.640625 L 0 370.640625 Z M 0 9.890625 "/></clipPath></defs><g id="911bab2917"><rect x="0" width="375" y="0" height="374.999991" style="fill:#ffffff;fill-opacity:1;stroke:none;"/><rect x="0" width="375" y="0" height="374.999991" style="fill:#ffffff;fill-opacity:1;stroke:none;"/><g clip-rule="nonzero" clip-path="url(#67fb219d30)"><path style="fill-rule:nonzero;fill:#000000;fill-opacity:1;stroke-width:13.333333;stroke-linecap:butt;stroke-linejoin:miter;stroke:#ffffff;stroke-opacity:1;stroke-miterlimit:4;" d="M -0.00171197 -0.00421664 L 1035.001606 -0.00421664 L 1035.001606 1012.995879 L -0.00171197 1012.995879 Z M 288.370886 460.283845 C 288.644806 462.060807 288.140793 464.035209 287.724433 465.768296 C 282.695252 482.945597 277.983819 500.232588 273.162817 517.464734 C 272.352012 520.755405 271.223459 524.70421 272.231487 528.005849 C 273.546306 533.09542 278.739839 536.901629 284.021028 536.320278 C 289.280302 535.749895 294.451922 533.172203 299.49206 531.570743 C 312.881297 527.216088 326.182879 522.740776 339.265324 517.519578 C 341.664868 516.718849 344.776605 515.292891 347.318588 515.951025 C 351.799928 517.289232 355.93065 519.954675 360.236681 521.797451 C 377.647071 529.344056 396.076446 534.312968 414.976964 536.144775 C 426.393972 536.956474 437.548017 538.163053 448.986939 536.715158 C 476.061246 534.784631 502.532928 526.854115 525.805218 512.824888 C 559.201612 493.047957 586.82376 460.865196 598.1312 423.439301 C 606.118723 396.916494 606.57891 368.254751 598.832437 341.611287 C 593.397853 322.327956 583.569584 304.70093 570.837757 289.30059 C 556.823981 272.934988 539.906648 259.147077 520.852735 249.044718 C 497.45992 236.452417 471.470338 229.574915 445.009613 227.852798 C 420.214325 226.876565 395.429993 229.454258 371.949524 237.779655 C 348.17322 246.170865 325.514512 259.761336 307.917856 277.914869 C 283.22118 301.914828 267.574838 334.88735 265.197207 369.285828 C 263.871432 381.614875 265.087639 394.338802 267.147522 406.525253 C 270.368827 423.033451 276.022547 439.673277 285.160537 453.878005 C 286.343874 455.885315 287.801131 458.013282 288.370886 460.283845 Z M 564.044527 577.903387 C 565.425087 581.67669 566.564596 585.954562 568.810745 589.311046 C 569.577722 590.539563 570.706275 590.364061 571.977266 590.539563 C 575.768327 590.737004 579.592257 590.561501 583.372361 590.440843 C 582.736865 584.440853 581.104299 578.528615 579.526516 572.715097 C 578.6171 567.647464 573.040078 563.918037 568.03281 564.367762 C 563.244679 564.466482 558.237411 563.98385 553.515021 564.707798 C 550.359456 566.945454 548.179049 570.78457 545.724721 573.746173 C 543.379961 577.014906 540.092914 580.184919 538.6247 583.947253 C 538.493218 585.800997 537.90155 589.124575 539.720382 590.265341 C 543.401874 590.923475 547.335373 590.704097 551.060693 590.528594 C 553.131532 590.528594 554.227215 588.927135 555.58586 587.599897 C 558.445591 584.407947 561.140969 581.062431 564.044527 577.903387 Z M 288.261318 676.623511 C 285.533069 675.998284 282.815777 675.482745 280.010831 675.526621 C 264.145352 675.548559 248.290831 675.526621 232.425353 675.548559 C 232.425353 663.94346 232.403439 652.327392 232.447266 640.711324 C 245.967985 640.7552 259.488703 640.711324 273.020378 640.744231 C 275.759584 640.557759 278.56453 640.95264 279.769781 637.892316 C 280.383363 633.526693 280.317622 628.524873 279.868392 624.137312 C 279.189069 620.627263 275.923936 620.649201 273.020378 620.506605 C 259.49966 620.517574 245.957028 620.484668 232.425353 620.572419 C 232.491094 609.109915 232.480137 597.636443 232.425353 586.184909 C 245.288662 586.042313 258.130057 585.592588 271.004323 585.844873 C 275.474706 585.724215 280.153269 586.217816 284.557912 585.460961 C 286.793103 584.989299 287.823045 583.135554 288.053138 581.007587 C 288.414713 576.510337 288.107922 571.947273 288.195577 567.439054 C 283.122568 563.325716 278.016689 564.718767 272.001394 564.543264 C 255.664772 564.543264 239.328151 564.576171 223.002486 564.521326 C 219.660655 564.554233 216.187343 564.28001 212.878382 564.806518 C 210.8185 565.354963 209.448897 566.813827 209.153063 568.941794 C 208.550438 573.230635 208.901056 577.684009 208.835315 581.994788 C 208.835315 617.314655 208.846272 652.700335 208.824358 688.009232 C 208.95584 690.389484 208.813401 693.570466 210.8185 695.248708 C 212.47298 696.42238 215.047833 696.32366 216.987191 696.42238 C 237.991418 696.42238 259.006603 696.378505 280.010831 696.444318 C 282.355591 696.356567 285.335846 696.488194 287.428599 695.281615 C 288.546195 694.294413 289.214561 692.747798 289.236475 691.256027 C 289.499439 686.33099 289.521352 681.438859 288.261318 676.623511 Z M 739.45229 570.631005 C 732.330356 572.506687 728.429727 581.347623 731.881126 587.885089 C 735.014777 594.894218 744.448601 597.087998 750.540594 592.579779 C 756.796939 588.247063 757.027033 577.552383 751.066521 572.868661 C 747.954784 569.896089 743.429617 569.928995 739.45229 570.631005 Z M 477.858165 682.73319 C 477.73764 690.02751 477.551374 698.934259 473.146732 705.12072 C 468.314773 712.184694 459.264438 715.310831 451.013951 715.71668 C 443.815319 716.067685 436.912522 714.663666 430.415126 711.537528 C 426.941813 709.9251 423.764335 707.972635 419.973275 707.095123 C 417.310767 710.857456 413.859368 715.354706 413.212916 720.01649 C 412.81847 723.285223 415.283755 724.755056 417.562774 726.455236 C 433.088591 736.645346 453.555934 738.224868 470.834842 731.797091 C 481.101385 727.81538 490.414683 720.137148 495.060376 710.02382 C 498.982918 702.115241 499.990946 692.714891 500.363478 683.994614 C 500.473046 661.003794 500.352521 638.002005 500.440175 615.000216 C 500.407305 612.027644 500.637398 608.879569 500.034773 605.972809 C 499.465018 603.822904 498.106372 602.660201 495.893094 602.528574 C 491.225488 602.331134 486.21822 601.947222 481.627312 602.879579 C 477.989647 603.987438 479.194898 609.844832 478.789495 612.773529 C 472.785157 606.027654 464.994856 601.376839 456.021219 600.005726 C 447.683078 598.897867 438.862836 599.556001 431.127319 603.055081 C 422.811092 606.674819 415.974035 613.683948 411.744701 621.625433 C 407.427714 630.115364 405.806104 639.515714 406.211506 649.003814 C 406.485427 661.365768 410.780501 673.552218 419.502131 682.480905 C 430.634263 693.965346 449.195119 697.354737 464.008742 691.903193 C 469.377585 689.994603 473.804141 686.649088 477.858165 682.73319 Z M 600.004817 681.702113 C 598.952962 676.250568 595.534433 672.378546 591.217446 669.14272 C 586.001998 672.115292 581.630226 675.73503 575.954592 677.961717 C 569.961211 680.320031 563.014586 681.526611 556.703456 679.749648 C 550.644334 678.203033 545.24262 674.374886 542.054185 668.945279 C 539.523159 664.810003 538.602786 660.378566 537.616672 655.694845 C 554.742185 655.563218 571.867698 655.661938 589.004167 655.629032 C 593.255414 655.574187 597.61623 655.914223 601.845563 655.431591 C 604.015014 655.113493 605.187394 653.117153 605.351746 651.076937 C 605.877673 642.367628 604.902516 633.548631 601.527815 625.45358 C 597.013604 614.374989 587.579781 605.523084 576.250427 601.672999 C 562.576313 597.340283 546.645094 599.413406 534.987035 607.980119 C 524.698579 615.098936 518.190227 626.616284 515.900251 638.791766 C 514.322469 651.274377 514.947008 663.63633 521.170483 674.846549 C 526.791332 685.03666 536.159415 693.022021 547.214848 696.707572 C 559.157784 700.919631 572.251187 699.844678 583.744893 694.766076 C 590.351857 691.892224 595.51252 687.241409 600.004817 681.702113 Z M 642.517286 613.66201 C 642.583027 610.86494 642.955559 607.651051 642.08997 604.974639 C 641.355863 603.16477 639.624685 602.693107 637.860637 602.506636 C 634.014792 602.254351 629.949811 602.232414 626.114924 602.517605 C 624.328962 602.638263 622.904575 603.526744 621.907504 604.996577 C 621.282965 606.499317 621.425404 608.374999 621.337749 609.96549 C 621.458274 638.111694 621.272008 666.23596 621.436361 694.371196 C 626.410758 697.135359 631.53855 696.455287 637.038875 696.345598 C 639.372678 696.290754 641.279165 695.314521 643.317134 694.338289 C 643.525314 676.557698 643.317134 658.755169 643.415745 640.974578 C 643.459573 635.544971 645.530412 630.214084 649.277645 626.265279 C 655.851738 618.86127 668.079552 617.391437 676.866923 621.153771 C 683.846419 624.268939 685.895344 631.947171 686.114481 638.967268 C 686.224049 655.650969 686.125438 672.345639 686.103524 689.02934 C 686.213092 691.650908 686.059697 694.809952 689.094736 695.786184 C 692.885797 696.740479 697.104173 696.378505 701.004802 696.42238 C 703.163296 696.257847 706.154508 696.554007 707.546025 694.52476 C 708.773189 693.065896 708.543095 690.82824 708.641707 689.040309 C 708.575966 670.689335 708.575966 652.338361 708.63075 633.998356 C 708.773189 627.713174 707.283061 621.340242 704.412373 615.746102 C 700.325479 608.089808 692.940581 602.67117 684.547655 600.598047 C 669.350543 597.000247 653.167317 602.385978 642.517286 613.66201 Z M 828.695605 684.773406 C 828.640821 688.42605 828.925698 691.848348 829.605021 695.446148 C 835.872324 696.959857 841.876662 696.334629 848.242576 696.279785 C 849.623135 693.570466 850.390113 691.102463 850.302458 688.009232 C 850.214804 670.996464 850.269588 653.994665 850.258631 636.992866 C 850.039494 630.510245 849.05338 623.65468 846.259391 617.742442 C 841.274037 607.387798 830.361042 600.674829 819.053602 599.775379 C 809.367771 599.139183 799.966818 599.336623 790.752131 602.693107 C 785.438072 604.601696 779.466604 607.486518 775.850853 611.950861 C 773.604704 615.022154 775.708414 618.740612 777.472462 621.482838 C 778.809195 623.314644 780.748552 626.473688 783.213837 626.715004 C 786.884373 626.122683 790.105678 622.985577 793.524207 621.504775 C 800.394134 617.885038 807.505112 617.906975 815.065319 618.378638 C 818.494804 618.696736 821.946203 620.1556 824.411488 622.579728 C 827.742362 626.089777 828.870914 631.530352 828.476469 636.225043 C 827.457484 637.146431 826.252234 637.629062 824.937415 637.958129 C 810.857899 641.369458 796.329153 638.74789 783.005658 645.011134 C 769.824601 650.967248 765.091254 668.802684 770.405312 681.515642 C 776.464435 695.248708 794.104918 702.071365 808.173478 698.111591 C 816.380137 696.159127 823.765035 691.694783 828.695605 684.773406 Z M 368.552909 686.868466 C 368.870657 689.841039 369.385628 692.671016 370.218346 695.544868 C 376.1679 696.850168 381.876405 696.290754 387.913614 696.32366 C 388.735375 695.347428 389.54618 694.382165 390.367942 693.416901 C 390.280287 663.735051 390.433683 634.0532 390.291244 604.37135 C 385.415458 601.618155 380.353406 602.309196 374.92978 602.418885 C 372.650761 602.484698 370.766187 603.428024 368.772046 604.393287 C 368.761089 622.294536 368.750132 640.129972 368.772046 658.031221 C 368.936398 667.003784 362.680053 674.363917 354.495307 677.292614 C 350.200232 678.784385 345.434015 678.981825 340.974588 678.257878 C 335.014077 677.128081 330.127334 672.729551 328.308502 666.948939 C 325.865131 659.599774 326.796461 652.634521 326.632108 645.000165 C 326.533497 631.365819 326.840288 617.709535 326.48967 604.086158 C 321.679625 601.683968 316.245041 602.407916 310.930982 602.375009 C 308.564309 602.484698 305.485442 602.704076 304.762292 605.46824 C 304.192537 608.56147 304.466457 611.86311 304.444544 615.000216 C 304.510285 631.343881 304.466457 647.676577 304.477414 664.020242 C 304.510285 671.753318 306.230506 679.892244 310.700889 686.320021 C 314.875438 692.265166 321.219438 696.159127 328.231804 697.815431 C 342.289407 701.654547 358.560287 697.694773 368.552909 686.868466 Z M 731.69486 604.437163 C 731.585292 634.371298 731.651033 664.305434 731.66199 694.2286 C 736.559689 697.310862 741.52313 696.444318 747.045368 696.334629 C 749.269603 696.268816 751.263744 695.511962 753.290756 694.689294 C 753.455109 664.875816 753.466065 635.062339 753.301713 605.248862 C 752.315599 604.349412 751.351399 603.460931 750.376242 602.561481 C 744.426687 602.616325 736.888394 601.190368 731.69486 604.437163 Z M 731.69486 604.437163 " transform="matrix(0.356513,0,0,0.35612,0.00451659,9.892127)"/></g><path style="fill-rule:nonzero;fill:#000000;fill-opacity:1;stroke-width:13.333333;stroke-linecap:butt;stroke-linejoin:miter;stroke:#95e6ad;stroke-opacity:1;stroke-miterlimit:4;" d="M 445.009613 227.852798 C 471.470338 229.574915 497.45992 236.452417 520.852735 249.044718 C 539.906648 259.147077 556.823981 272.934988 570.837757 289.30059 C 583.569584 304.70093 593.397853 322.327956 598.832437 341.611287 C 606.57891 368.254751 606.118723 396.916494 598.1312 423.439301 C 586.82376 460.865196 559.201612 493.047957 525.805218 512.824888 C 502.532928 526.854115 476.061246 534.784631 448.986939 536.715158 C 437.548017 538.163053 426.393972 536.956474 414.976964 536.144775 C 396.076446 534.312968 377.647071 529.344056 360.236681 521.797451 C 355.93065 519.954675 351.799928 517.289232 347.318588 515.951025 C 344.776605 515.292891 341.664868 516.718849 339.265324 517.519578 C 326.182879 522.740776 312.881297 527.216088 299.49206 531.570743 C 294.451922 533.172203 289.280302 535.749895 284.021028 536.320278 C 278.739839 536.901629 273.546306 533.09542 272.231487 528.005849 C 271.223459 524.70421 272.352012 520.755405 273.162817 517.464734 C 277.983819 500.232588 282.695252 482.945597 287.724433 465.768296 C 288.140793 464.035209 288.644806 462.060807 288.370886 460.283845 C 287.801131 458.013282 286.343874 455.885315 285.160537 453.878005 C 276.022547 439.673277 270.368827 423.033451 267.147522 406.525253 C 265.087639 394.338802 263.871432 381.614875 265.197207 369.285828 C 267.574838 334.88735 283.22118 301.914828 307.917856 277.914869 C 325.514512 259.761336 348.17322 246.170865 371.949524 237.779655 C 395.429993 229.454258 420.214325 226.876565 445.009613 227.852798 Z M 303.45843 503.128378 C 312.892253 500.221619 322.161725 496.722539 331.398326 493.256366 C 336.591859 491.347777 342.442802 488.22164 348.019825 488.232608 C 352.501165 488.133888 356.467534 491.029679 360.335293 493.01505 C 383.300792 505.11375 409.038366 511.497651 434.995078 511.420869 C 461.094228 511.124708 486.930414 504.90534 509.632949 491.863315 C 534.83364 477.735369 555.684472 456.400853 567.956112 430.130331 C 582.988872 398.375358 582.123283 359.446723 565.720921 328.393759 C 552.178289 303.527257 530.845356 284.046486 505.73232 271.234808 C 486.864673 261.647987 466.145323 255.735748 444.998656 254.5182 C 437.011133 254.287853 428.968826 254.233009 420.981302 254.671765 C 389.27226 257.21655 357.924792 268.854556 333.534906 289.541906 C 310.262616 309.19818 294.156088 337.388259 291.504537 367.958591 C 291.121048 375.954921 291.186789 384.039002 291.471666 392.035332 C 292.644046 409.377167 298.396378 425.995055 307.139922 440.956638 C 309.506595 445.091914 312.968951 448.63487 314.995963 452.93468 C 316.376523 456.466666 315.237013 461.150388 314.349511 464.715281 C 310.832371 477.559866 307.074181 490.305731 303.45843 503.128378 Z M 303.45843 503.128378 " transform="matrix(0.356513,0,0,0.35612,0.00451659,9.892127)"/><path style="fill-rule:nonzero;fill:#000000;fill-opacity:1;stroke-width:13.333333;stroke-linecap:butt;stroke-linejoin:miter;stroke:#ffffff;stroke-opacity:1;stroke-miterlimit:4;" d="M 420.981302 254.671765 C 428.968826 254.233009 437.011133 254.287853 444.998656 254.5182 C 466.145323 255.735748 486.864673 261.647987 505.73232 271.234808 C 530.845356 284.046486 552.178289 303.527257 565.720921 328.393759 C 582.123283 359.446723 582.988872 398.375358 567.956112 430.130331 C 555.684472 456.400853 534.83364 477.735369 509.632949 491.863315 C 486.930414 504.90534 461.094228 511.124708 434.995078 511.420869 C 409.038366 511.497651 383.300792 505.11375 360.335293 493.01505 C 356.467534 491.029679 352.501165 488.133888 348.019825 488.232608 C 342.442802 488.22164 336.591859 491.347777 331.398326 493.256366 C 322.161725 496.722539 312.892253 500.221619 303.45843 503.128378 C 307.074181 490.305731 310.832371 477.559866 314.349511 464.715281 C 315.237013 461.150388 316.376523 456.466666 314.995963 452.93468 C 312.968951 448.63487 309.506595 445.091914 307.139922 440.956638 C 298.396378 425.995055 292.644046 409.377167 291.471666 392.035332 C 291.186789 384.039002 291.121048 375.954921 291.504537 367.958591 C 294.156088 337.388259 310.262616 309.19818 333.534906 289.541906 C 357.924792 268.854556 389.27226 257.21655 420.981302 254.671765 Z M 346.847445 328.08663 C 341.577213 331.48699 336.602816 334.678941 333.07472 340.042734 C 328.253718 346.810547 326.500626 354.806877 327.289518 363.044523 C 327.640136 368.583819 330.171162 372.806846 332.724101 377.545412 C 329.185048 382.349791 326.226706 387.285798 325.383031 393.307725 C 323.421759 403.673338 326.48967 414.532552 334.049877 421.94753 C 338.323037 426.357029 343.637096 428.254649 349.378471 429.987735 C 349.575693 434.934711 349.696219 439.596494 351.48218 444.291185 C 354.659659 453.318591 362.636225 460.163187 371.259244 463.848738 C 379.794608 467.282004 388.592937 465.713451 397.128301 463.267386 C 400.886491 465.888954 404.589897 468.686024 409.115064 469.804852 C 417.047803 471.691503 426.054311 469.750008 431.949081 463.936489 C 436.824867 458.824981 439.180584 452.024261 439.344936 445.015132 C 439.673641 405.329642 439.750338 365.677059 439.805123 326.002539 C 439.706511 319.201819 440.615927 311.29324 437.920549 304.953214 C 434.578718 296.671693 427.336259 290.068413 418.516017 288.2037 C 412.917081 287.051965 406.529254 286.931307 401.149455 289.048306 C 396.777683 290.80333 394.367182 294.236596 390.641862 296.7046 C 389.809144 297.274983 388.58198 297.09948 387.617779 297.088511 C 383.278878 296.759444 379.279638 296.167123 374.984564 297.340796 C 366.525897 299.424887 359.086215 306.039136 353.739286 312.664353 C 350.03588 317.19451 348.271832 322.503459 346.847445 328.08663 Z M 457.53326 397.925633 C 460.469689 400.075538 463.406117 401.512464 467.087609 401.830562 C 475.064176 402.697106 482.777778 403.826903 489.647706 408.313184 C 494.687844 411.54901 498.248811 416.474047 502.883547 419.973127 C 505.031084 421.607494 508.022296 422.14497 510.14792 420.159599 C 513.971851 416.572768 516.064604 411.724513 520.436375 408.444811 C 526.112009 404.035312 532.456009 403.026173 539.238282 401.424713 C 541.802178 400.744641 544.464686 400.338792 546.097253 398.013384 C 547.258676 396.028013 547.236762 393.241912 547.335373 391.004256 C 547.335373 373.004286 547.247719 355.004317 547.357287 337.004348 C 547.302503 334.295029 547.368244 331.157923 546.327346 328.635075 C 545.122095 326.232885 542.733508 325.015337 540.125785 324.697239 C 529.289488 323.721007 519.044859 327.033615 510.005481 332.869072 C 505.633709 325.465062 500.692182 318.664343 493.7346 313.465083 C 486.568839 307.574782 477.956777 303.834386 468.928355 301.914828 C 466.013841 301.465103 462.529571 301.004409 460.130027 303.132377 C 457.98249 304.931277 457.70857 308.386481 457.609958 310.975142 C 457.609958 339.954983 457.719526 368.956761 457.53326 397.925633 Z M 481.002773 447.450228 C 490.995395 447.472166 500.998973 447.406353 511.002552 447.53798 C 514.14716 447.505073 517.686213 447.669607 520.688382 446.649499 C 524.753363 445.464857 524.862932 438.54348 520.896562 437.106553 C 518.507975 436.130321 515.549633 436.261948 512.996693 436.185165 C 499.673198 436.272917 486.327789 436.272917 473.004293 436.174197 C 470.166476 436.250979 466.857516 436.086445 464.195008 437.205273 C 461.280494 438.324101 460.995616 442.393564 462.135126 444.861567 C 463.055499 446.781125 464.994856 447.077286 466.9123 447.340539 C 471.568949 447.73542 476.32421 447.417322 481.002773 447.450228 Z M 500.998973 456.949298 C 492.474566 454.437419 484.695222 455.742719 475.995506 455.424621 C 472.368797 455.457527 468.369557 455.051678 464.841461 455.995004 C 461.225709 457.135769 460.491602 462.499563 462.967844 465.055317 C 465.29069 466.865186 469.213233 466.634839 471.996266 466.733559 C 478.679927 466.62387 485.363588 466.744528 492.036293 466.678715 C 494.402966 466.558057 497.931063 466.470306 499.673198 464.660437 C 500.922276 462.499563 500.692182 459.384395 500.998973 456.949298 Z M 500.998973 456.949298 " transform="matrix(0.356513,0,0,0.35612,0.00451659,9.892127)"/><path style="fill-rule:nonzero;fill:#000000;fill-opacity:1;stroke-width:13.333333;stroke-linecap:butt;stroke-linejoin:miter;stroke:#89d8da;stroke-opacity:1;stroke-miterlimit:4;" d="M 418.516017 288.2037 C 427.336259 290.068413 434.578718 296.671693 437.920549 304.953214 C 440.615927 311.29324 439.706511 319.201819 439.805123 326.002539 C 439.750338 365.677059 439.673641 405.329642 439.344936 445.015132 C 439.180584 452.024261 436.824867 458.824981 431.949081 463.936489 C 426.054311 469.750008 417.047803 471.691503 409.115064 469.804852 C 404.589897 468.686024 400.886491 465.888954 397.128301 463.267386 C 388.592937 465.713451 379.794608 467.282004 371.259244 463.848738 C 362.636225 460.163187 354.659659 453.318591 351.48218 444.291185 C 349.696219 439.596494 349.575693 434.934711 349.378471 429.987735 C 343.637096 428.254649 338.323037 426.357029 334.049877 421.94753 C 326.48967 414.532552 323.421759 403.673338 325.383031 393.307725 C 326.226706 387.285798 329.185048 382.349791 332.724101 377.545412 C 330.171162 372.806846 327.640136 368.583819 327.289518 363.044523 C 326.500626 354.806877 328.253718 346.810547 333.07472 340.042734 C 336.602816 334.678941 341.577213 331.48699 346.847445 328.08663 C 348.271832 322.503459 350.03588 317.19451 353.739286 312.664353 C 359.086215 306.039136 366.525897 299.424887 374.984564 297.340796 C 379.279638 296.167123 383.278878 296.759444 387.617779 297.088511 C 388.58198 297.09948 389.809144 297.274983 390.641862 296.7046 C 394.367182 294.236596 396.777683 290.80333 401.149455 289.048306 C 406.529254 286.931307 412.917081 287.051965 418.516017 288.2037 Z M 400.415347 303.165283 C 403.636653 308.210978 407.548239 313.772212 406.299161 320.112238 C 405.334961 323.622287 400.85362 324.620457 398.004847 322.909308 C 395.1999 319.750264 394.487707 314.627786 391.518408 311.49068 C 388.866857 308.715548 384.790919 307.289591 380.977945 307.476062 C 377.055403 307.827067 373.505393 310.086661 370.415569 312.39013 C 366.24102 315.614988 362.044557 319.366352 360.028502 324.379141 C 358.538374 327.911128 358.406892 331.859933 357.037289 335.38095 C 356.007348 337.026286 353.574933 337.848953 351.953324 338.792279 C 341.862091 343.124996 335.529048 356.112176 339.703597 366.543603 C 340.963631 369.86718 343.494657 372.346152 346.989883 373.212695 C 352.314899 374.441213 356.894851 371.874489 361.978816 371.545422 C 364.400274 371.238293 366.350588 373.837923 366.383458 376.06461 C 366.745034 379.443032 363.644253 382.086538 360.948875 383.490557 C 355.525248 386.112125 349.652391 384.400976 343.976757 384.598416 C 341.785393 384.598416 340.306222 386.682508 339.199583 388.305905 C 333.414381 397.750131 336.537075 411.176067 346.168122 416.781177 C 350.956253 419.227242 357.135901 419.062708 362.044557 417.066368 C 365.82466 415.585566 367.073738 411.132192 369.013096 407.929272 C 372.639804 400.920144 381.33952 396.291267 389.151734 397.815944 C 392.811313 398.715394 393.479679 403.113924 392.000508 406.05359 C 389.239389 409.059069 383.552798 408.795816 380.506802 411.472228 C 377.866208 414.598365 376.814353 418.887206 374.097061 422.057219 C 370.645662 426.335091 365.989013 427.969457 361.146097 430.1413 C 361.266623 434.298514 361.146097 438.071817 363.17311 441.856088 C 366.175279 447.395384 371.434553 452.397204 377.668985 453.93285 C 381.733966 454.810362 386.434443 453.910912 390.488467 453.23084 C 389.984453 447.494104 389.239389 442.218062 391.562235 436.733611 C 393.06332 433.234531 395.714871 428.781156 399.516888 427.475857 C 403.099769 426.335091 407.109966 429.011503 406.518297 432.93837 C 405.477399 436.689735 402.026 440.03525 401.379548 443.885335 C 400.470132 452.408172 409.432812 461.018761 417.979133 458.901763 C 422.95353 457.914562 426.569282 453.73541 427.380086 448.83231 C 428.190891 442.63488 427.511568 436.24001 427.829316 429.987735 C 428.749689 414.982277 428.289503 399.867129 428.3662 384.828763 C 421.386705 383.249241 413.695016 381.86716 408.501482 376.481428 C 404.480328 372.335183 403.428474 367.333364 402.157482 361.914726 C 396.262712 359.907417 389.907755 359.161531 384.34169 356.638684 C 380.758809 354.850752 377.274539 352.07562 375.258484 348.565571 C 373.527306 345.417496 374.666816 341.271251 378.019603 339.801418 C 381.624398 339.165222 384.34169 342.126825 386.9275 344.112197 C 393.424895 349.936684 402.5081 347.600308 409.476639 353.512546 C 414.615389 357.483289 413.464922 363.680719 416.642401 368.331534 C 419.524045 371.117635 424.60801 371.907396 428.355244 373.004286 C 428.530553 354.67525 428.33333 336.335245 428.530553 317.99524 C 428.475769 313.69543 428.585337 309.757594 425.944743 306.115918 C 421.78115 300.050115 414.155202 298.009899 407.186663 299.534576 C 404.776163 300.269493 402.551928 301.849015 400.415347 303.165283 Z M 400.415347 303.165283 " transform="matrix(0.356513,0,0,0.35612,0.00451659,9.892127)"/><path style="fill-rule:nonzero;fill:#000000;fill-opacity:1;stroke-width:13.333333;stroke-linecap:butt;stroke-linejoin:miter;stroke:#ffffff;stroke-opacity:1;stroke-miterlimit:4;" d="M 407.186663 299.534576 C 414.155202 298.009899 421.78115 300.050115 425.944743 306.115918 C 428.585337 309.757594 428.475769 313.69543 428.530553 317.99524 C 428.33333 336.335245 428.530553 354.67525 428.355244 373.004286 C 424.60801 371.907396 419.524045 371.117635 416.642401 368.331534 C 413.464922 363.680719 414.615389 357.483289 409.476639 353.512546 C 402.5081 347.600308 393.424895 349.936684 386.9275 344.112197 C 384.34169 342.126825 381.624398 339.165222 378.019603 339.801418 C 374.666816 341.271251 373.527306 345.417496 375.258484 348.565571 C 377.274539 352.07562 380.758809 354.850752 384.34169 356.638684 C 389.907755 359.161531 396.262712 359.907417 402.157482 361.914726 C 403.428474 367.333364 404.480328 372.335183 408.501482 376.481428 C 413.695016 381.86716 421.386705 383.249241 428.3662 384.828763 C 428.289503 399.867129 428.749689 414.982277 427.829316 429.987735 C 427.511568 436.24001 428.190891 442.63488 427.380086 448.83231 C 426.569282 453.73541 422.95353 457.914562 417.979133 458.901763 C 409.432812 461.018761 400.470132 452.408172 401.379548 443.885335 C 402.026 440.03525 405.477399 436.689735 406.518297 432.93837 C 407.109966 429.011503 403.099769 426.335091 399.516888 427.475857 C 395.714871 428.781156 393.06332 433.234531 391.562235 436.733611 C 389.239389 442.218062 389.984453 447.494104 390.488467 453.23084 C 386.434443 453.910912 381.733966 454.810362 377.668985 453.93285 C 371.434553 452.397204 366.175279 447.395384 363.17311 441.856088 C 361.146097 438.071817 361.266623 434.298514 361.146097 430.1413 C 365.989013 427.969457 370.645662 426.335091 374.097061 422.057219 C 376.814353 418.887206 377.866208 414.598365 380.506802 411.472228 C 383.552798 408.795816 389.239389 409.059069 392.000508 406.05359 C 393.479679 403.113924 392.811313 398.715394 389.151734 397.815944 C 381.33952 396.291267 372.639804 400.920144 369.013096 407.929272 C 367.073738 411.132192 365.82466 415.585566 362.044557 417.066368 C 357.135901 419.062708 350.956253 419.227242 346.168122 416.781177 C 336.537075 411.176067 333.414381 397.750131 339.199583 388.305905 C 340.306222 386.682508 341.785393 384.598416 343.976757 384.598416 C 349.652391 384.400976 355.525248 386.112125 360.948875 383.490557 C 363.644253 382.086538 366.745034 379.443032 366.383458 376.06461 C 366.350588 373.837923 364.400274 371.238293 361.978816 371.545422 C 356.894851 371.874489 352.314899 374.441213 346.989883 373.212695 C 343.494657 372.346152 340.963631 369.86718 339.703597 366.543603 C 335.529048 356.112176 341.862091 343.124996 351.953324 338.792279 C 353.574933 337.848953 356.007348 337.026286 357.037289 335.38095 C 358.406892 331.859933 358.538374 327.911128 360.028502 324.379141 C 362.044557 319.366352 366.24102 315.614988 370.415569 312.39013 C 373.505393 310.086661 377.055403 307.827067 380.977945 307.476062 C 384.790919 307.289591 388.866857 308.715548 391.518408 311.49068 C 394.487707 314.627786 395.1999 319.750264 398.004847 322.909308 C 400.85362 324.620457 405.334961 323.622287 406.299161 320.112238 C 407.548239 313.772212 403.636653 308.210978 400.415347 303.165283 C 402.551928 301.849015 404.776163 300.269493 407.186663 299.534576 Z M 407.186663 299.534576 " transform="matrix(0.356513,0,0,0.35612,0.00451659,9.892127)"/><path style="fill-rule:nonzero;fill:#000000;fill-opacity:1;stroke-width:13.333333;stroke-linecap:butt;stroke-linejoin:miter;stroke:#fc786c;stroke-opacity:1;stroke-miterlimit:4;" d="M 468.928355 301.914828 C 477.956777 303.834386 486.568839 307.574782 493.7346 313.465083 C 500.692182 318.664343 505.633709 325.465062 510.005481 332.869072 C 519.044859 327.033615 529.289488 323.721007 540.125785 324.697239 C 542.733508 325.015337 545.122095 326.232885 546.327346 328.635075 C 547.368244 331.157923 547.302503 334.295029 547.357287 337.004348 C 547.247719 355.004317 547.335373 373.004286 547.335373 391.004256 C 547.236762 393.241912 547.258676 396.028013 546.097253 398.013384 C 544.464686 400.338792 541.802178 400.744641 539.238282 401.424713 C 532.456009 403.026173 526.112009 404.035312 520.436375 408.444811 C 516.064604 411.724513 513.971851 416.572768 510.14792 420.159599 C 508.022296 422.14497 505.031084 421.607494 502.883547 419.973127 C 498.248811 416.474047 494.687844 411.54901 489.647706 408.313184 C 482.777778 403.826903 475.064176 402.697106 467.087609 401.830562 C 463.406117 401.512464 460.469689 400.075538 457.53326 397.925633 C 457.719526 368.956761 457.609958 339.954983 457.609958 310.975142 C 457.70857 308.386481 457.98249 304.931277 460.130027 303.132377 C 462.529571 301.004409 466.013841 301.465103 468.928355 301.914828 Z M 469.421412 390.214495 C 475.63393 390.806815 481.901233 391.881768 487.785046 393.987797 C 492.649875 395.75379 496.638158 398.627643 500.703139 401.742811 C 500.76888 383.819624 500.692182 365.896437 500.73601 347.984219 C 500.823664 343.168871 499.684155 338.901968 497.175042 334.799598 C 491.104963 325.081151 480.915119 316.733816 469.607678 314.167093 C 469.180362 318.072022 469.344715 322.075671 469.344715 326.002539 C 469.399499 347.402868 469.311844 368.814165 469.421412 390.214495 Z M 512.667989 398.934772 C 519.888534 394.95306 527.196735 392.068239 535.436265 391.015224 C 535.567747 372.741033 535.534876 354.444903 535.512963 336.170711 C 529.168963 337.563762 521.104742 338.814217 516.04269 343.092089 C 512.744686 345.998848 512.635118 349.903777 512.569377 353.995178 C 512.700859 368.978699 512.569377 383.96222 512.667989 398.934772 Z M 512.667989 398.934772 " transform="matrix(0.356513,0,0,0.35612,0.00451659,9.892127)"/><path style="fill-rule:nonzero;fill:#000000;fill-opacity:1;stroke-width:13.333333;stroke-linecap:butt;stroke-linejoin:miter;stroke:#ffffff;stroke-opacity:1;stroke-miterlimit:4;" d="M 469.607678 314.167093 C 480.915119 316.733816 491.104963 325.081151 497.175042 334.799598 C 499.684155 338.901968 500.823664 343.168871 500.73601 347.984219 C 500.692182 365.896437 500.76888 383.819624 500.703139 401.742811 C 496.638158 398.627643 492.649875 395.75379 487.785046 393.987797 C 481.901233 391.881768 475.63393 390.806815 469.421412 390.214495 C 469.311844 368.814165 469.399499 347.402868 469.344715 326.002539 C 469.344715 322.075671 469.180362 318.072022 469.607678 314.167093 Z M 469.607678 314.167093 " transform="matrix(0.356513,0,0,0.35612,0.00451659,9.892127)"/><path style="fill-rule:nonzero;fill:#000000;fill-opacity:1;stroke-width:13.333333;stroke-linecap:butt;stroke-linejoin:miter;stroke:#ffffff;stroke-opacity:1;stroke-miterlimit:4;" d="M 535.512963 336.170711 C 535.534876 354.444903 535.567747 372.741033 535.436265 391.015224 C 527.196735 392.068239 519.888534 394.95306 512.667989 398.934772 C 512.569377 383.96222 512.700859 368.978699 512.569377 353.995178 C 512.635118 349.903777 512.744686 345.998848 516.04269 343.092089 C 521.104742 338.814217 529.168963 337.563762 535.512963 336.170711 Z M 535.512963 336.170711 " transform="matrix(0.356513,0,0,0.35612,0.00451659,9.892127)"/><path style="fill-rule:nonzero;fill:#000000;fill-opacity:1;stroke-width:13.333333;stroke-linecap:butt;stroke-linejoin:miter;stroke:#89d8da;stroke-opacity:1;stroke-miterlimit:4;" d="M 473.004293 436.174197 C 486.327789 436.272917 499.673198 436.272917 512.996693 436.185165 C 515.549633 436.261948 518.507975 436.130321 520.896562 437.106553 C 524.862932 438.54348 524.753363 445.464857 520.688382 446.649499 C 517.686213 447.669607 514.14716 447.505073 511.002552 447.53798 C 500.998973 447.406353 490.995395 447.472166 481.002773 447.450228 C 476.32421 447.417322 471.568949 447.73542 466.9123 447.340539 C 464.994856 447.077286 463.055499 446.781125 462.135126 444.861567 C 460.995616 442.393564 461.280494 438.324101 464.195008 437.205273 C 466.857516 436.086445 470.166476 436.250979 473.004293 436.174197 Z M 473.004293 436.174197 " transform="matrix(0.356513,0,0,0.35612,0.00451659,9.892127)"/><path style="fill-rule:nonzero;fill:#000000;fill-opacity:1;stroke-width:13.333333;stroke-linecap:butt;stroke-linejoin:miter;stroke:#89d8da;stroke-opacity:1;stroke-miterlimit:4;" d="M 475.995506 455.424621 C 484.695222 455.742719 492.474566 454.437419 500.998973 456.949298 C 500.692182 459.384395 500.922276 462.499563 499.673198 464.660437 C 497.931063 466.470306 494.402966 466.558057 492.036293 466.678715 C 485.363588 466.744528 478.679927 466.62387 471.996266 466.733559 C 469.213233 466.634839 465.29069 466.865186 462.967844 465.055317 C 460.491602 462.499563 461.225709 457.135769 464.841461 455.995004 C 468.369557 455.051678 472.368797 455.457527 475.995506 455.424621 Z M 475.995506 455.424621 " transform="matrix(0.356513,0,0,0.35612,0.00451659,9.892127)"/><path style="fill-rule:nonzero;fill:#000000;fill-opacity:1;stroke-width:13.333333;stroke-linecap:butt;stroke-linejoin:miter;stroke:#516c75;stroke-opacity:1;stroke-miterlimit:4;" d="M 553.515021 564.707798 C 558.237411 563.98385 563.244679 564.466482 568.03281 564.367762 C 573.040078 563.918037 578.6171 567.647464 579.526516 572.715097 C 581.104299 578.528615 582.736865 584.440853 583.372361 590.440843 C 579.592257 590.561501 575.768327 590.737004 571.977266 590.539563 C 570.706275 590.364061 569.577722 590.539563 568.810745 589.311046 C 566.564596 585.954562 565.425087 581.67669 564.044527 577.903387 C 561.140969 581.062431 558.445591 584.407947 555.58586 587.599897 C 554.227215 588.927135 553.131532 590.528594 551.060693 590.528594 C 547.335373 590.704097 543.401874 590.923475 539.720382 590.265341 C 537.90155 589.124575 538.493218 585.800997 538.6247 583.947253 C 540.092914 580.184919 543.379961 577.014906 545.724721 573.746173 C 548.179049 570.78457 550.359456 566.945454 553.515021 564.707798 Z M 553.515021 564.707798 " transform="matrix(0.356513,0,0,0.35612,0.00451659,9.892127)"/><path style="fill-rule:nonzero;fill:#000000;fill-opacity:1;stroke-width:13.333333;stroke-linecap:butt;stroke-linejoin:miter;stroke:#516c75;stroke-opacity:1;stroke-miterlimit:4;" d="M 212.878382 564.806518 C 216.187343 564.28001 219.660655 564.554233 223.002486 564.521326 C 239.328151 564.576171 255.664772 564.543264 272.001394 564.543264 C 278.016689 564.718767 283.122568 563.325716 288.195577 567.439054 C 288.107922 571.947273 288.414713 576.510337 288.053138 581.007587 C 287.823045 583.135554 286.793103 584.989299 284.557912 585.460961 C 280.153269 586.217816 275.474706 585.724215 271.004323 585.844873 C 258.130057 585.592588 245.288662 586.042313 232.425353 586.184909 C 232.480137 597.636443 232.491094 609.109915 232.425353 620.572419 C 245.957028 620.484668 259.49966 620.517574 273.020378 620.506605 C 275.923936 620.649201 279.189069 620.627263 279.868392 624.137312 C 280.317622 628.524873 280.383363 633.526693 279.769781 637.892316 C 278.56453 640.95264 275.759584 640.557759 273.020378 640.744231 C 259.488703 640.711324 245.967985 640.7552 232.447266 640.711324 C 232.403439 652.327392 232.425353 663.94346 232.425353 675.548559 C 248.290831 675.526621 264.145352 675.548559 280.010831 675.526621 C 282.815777 675.482745 285.533069 675.998284 288.261318 676.623511 C 289.521352 681.438859 289.499439 686.33099 289.236475 691.256027 C 289.214561 692.747798 288.546195 694.294413 287.428599 695.281615 C 285.335846 696.488194 282.355591 696.356567 280.010831 696.444318 C 259.006603 696.378505 237.991418 696.42238 216.987191 696.42238 C 215.047833 696.32366 212.47298 696.42238 210.8185 695.248708 C 208.813401 693.570466 208.95584 690.389484 208.824358 688.009232 C 208.846272 652.700335 208.835315 617.314655 208.835315 581.994788 C 208.901056 577.684009 208.550438 573.230635 209.153063 568.941794 C 209.448897 566.813827 210.8185 565.354963 212.878382 564.806518 Z M 212.878382 564.806518 " transform="matrix(0.356513,0,0,0.35612,0.00451659,9.892127)"/><path style="fill-rule:nonzero;fill:#000000;fill-opacity:1;stroke-width:13.333333;stroke-linecap:butt;stroke-linejoin:miter;stroke:#516c75;stroke-opacity:1;stroke-miterlimit:4;" d="M 739.45229 570.631005 C 743.429617 569.928995 747.954784 569.896089 751.066521 572.868661 C 757.027033 577.552383 756.796939 588.247063 750.540594 592.579779 C 744.448601 597.087998 735.014777 594.894218 731.881126 587.885089 C 728.429727 581.347623 732.330356 572.506687 739.45229 570.631005 Z M 739.45229 570.631005 " transform="matrix(0.356513,0,0,0.35612,0.00451659,9.892127)"/><path style="fill-rule:nonzero;fill:#000000;fill-opacity:1;stroke-width:13.333333;stroke-linecap:butt;stroke-linejoin:miter;stroke:#516c75;stroke-opacity:1;stroke-miterlimit:4;" d="M 456.021219 600.005726 C 464.994856 601.376839 472.785157 606.027654 478.789495 612.773529 C 479.194898 609.844832 477.989647 603.987438 481.627312 602.879579 C 486.21822 601.947222 491.225488 602.331134 495.893094 602.528574 C 498.106372 602.660201 499.465018 603.822904 500.034773 605.972809 C 500.637398 608.879569 500.407305 612.027644 500.440175 615.000216 C 500.352521 638.002005 500.473046 661.003794 500.363478 683.994614 C 499.990946 692.714891 498.982918 702.115241 495.060376 710.02382 C 490.414683 720.137148 481.101385 727.81538 470.834842 731.797091 C 453.555934 738.224868 433.088591 736.645346 417.562774 726.455236 C 415.283755 724.755056 412.81847 723.285223 413.212916 720.01649 C 413.859368 715.354706 417.310767 710.857456 419.973275 707.095123 C 423.764335 707.972635 426.941813 709.9251 430.415126 711.537528 C 436.912522 714.663666 443.815319 716.067685 451.013951 715.71668 C 459.264438 715.310831 468.314773 712.184694 473.146732 705.12072 C 477.551374 698.934259 477.73764 690.02751 477.858165 682.73319 C 473.804141 686.649088 469.377585 689.994603 464.008742 691.903193 C 449.195119 697.354737 430.634263 693.965346 419.502131 682.480905 C 410.780501 673.552218 406.485427 661.365768 406.211506 649.003814 C 405.806104 639.515714 407.427714 630.115364 411.744701 621.625433 C 415.974035 613.683948 422.811092 606.674819 431.127319 603.055081 C 438.862836 599.556001 447.683078 598.897867 456.021219 600.005726 Z M 449.523824 618.905146 C 443.267478 619.508435 437.416535 622.535852 433.702173 627.65833 C 429.220832 633.625413 428.289503 641.764339 428.585337 649.014783 C 428.78256 656.122632 430.557565 663.054979 435.816839 668.144549 C 441.897876 674.13357 450.893426 675.504683 459.045302 674.166477 C 465.060597 672.959898 471.262158 669.943449 474.614946 664.579656 C 478.066345 659.336521 478.866193 652.140921 478.920977 646.009304 C 478.625143 638.879517 477.649986 630.992876 472.215402 625.782647 C 466.254891 619.475528 457.807181 618.15926 449.523824 618.905146 Z M 449.523824 618.905146 " transform="matrix(0.356513,0,0,0.35612,0.00451659,9.892127)"/><path style="fill-rule:nonzero;fill:#000000;fill-opacity:1;stroke-width:13.333333;stroke-linecap:butt;stroke-linejoin:miter;stroke:#516c75;stroke-opacity:1;stroke-miterlimit:4;" d="M 576.250427 601.672999 C 587.579781 605.523084 597.013604 614.374989 601.527815 625.45358 C 604.902516 633.548631 605.877673 642.367628 605.351746 651.076937 C 605.187394 653.117153 604.015014 655.113493 601.845563 655.431591 C 597.61623 655.914223 593.255414 655.574187 589.004167 655.629032 C 571.867698 655.661938 554.742185 655.563218 537.616672 655.694845 C 538.602786 660.378566 539.523159 664.810003 542.054185 668.945279 C 545.24262 674.374886 550.644334 678.203033 556.703456 679.749648 C 563.014586 681.526611 569.961211 680.320031 575.954592 677.961717 C 581.630226 675.73503 586.001998 672.115292 591.217446 669.14272 C 595.534433 672.378546 598.952962 676.250568 600.004817 681.702113 C 595.51252 687.241409 590.351857 691.892224 583.744893 694.766076 C 572.251187 699.844678 559.157784 700.919631 547.214848 696.707572 C 536.159415 693.022021 526.791332 685.03666 521.170483 674.846549 C 514.947008 663.63633 514.322469 651.274377 515.900251 638.791766 C 518.190227 626.616284 524.698579 615.098936 534.987035 607.980119 C 546.645094 599.413406 562.576313 597.340283 576.250427 601.672999 Z M 537.813895 639.746061 C 553.317798 639.943501 568.832658 639.789936 584.336561 639.833812 C 583.591497 633.395066 582.145197 627.340232 577.291325 622.711355 C 573.215387 618.619954 567.660278 617.06237 561.995601 617.25981 C 555.596817 617.117214 549.625349 619.640062 545.264534 624.301846 C 541.035201 628.700376 539.34785 633.998356 537.813895 639.746061 Z M 537.813895 639.746061 " transform="matrix(0.356513,0,0,0.35612,0.00451659,9.892127)"/><path style="fill-rule:nonzero;fill:#000000;fill-opacity:1;stroke-width:13.333333;stroke-linecap:butt;stroke-linejoin:miter;stroke:#516c75;stroke-opacity:1;stroke-miterlimit:4;" d="M 684.547655 600.598047 C 692.940581 602.67117 700.325479 608.089808 704.412373 615.746102 C 707.283061 621.340242 708.773189 627.713174 708.63075 633.998356 C 708.575966 652.338361 708.575966 670.689335 708.641707 689.040309 C 708.543095 690.82824 708.773189 693.065896 707.546025 694.52476 C 706.154508 696.554007 703.163296 696.257847 701.004802 696.42238 C 697.104173 696.378505 692.885797 696.740479 689.094736 695.786184 C 686.059697 694.809952 686.213092 691.650908 686.103524 689.02934 C 686.125438 672.345639 686.224049 655.650969 686.114481 638.967268 C 685.895344 631.947171 683.846419 624.268939 676.866923 621.153771 C 668.079552 617.391437 655.851738 618.86127 649.277645 626.265279 C 645.530412 630.214084 643.459573 635.544971 643.415745 640.974578 C 643.317134 658.755169 643.525314 676.557698 643.317134 694.338289 C 641.279165 695.314521 639.372678 696.290754 637.038875 696.345598 C 631.53855 696.455287 626.410758 697.135359 621.436361 694.371196 C 621.272008 666.23596 621.458274 638.111694 621.337749 609.96549 C 621.425404 608.374999 621.282965 606.499317 621.907504 604.996577 C 622.904575 603.526744 624.328962 602.638263 626.114924 602.517605 C 629.949811 602.232414 634.014792 602.254351 637.860637 602.506636 C 639.624685 602.693107 641.355863 603.16477 642.08997 604.974639 C 642.955559 607.651051 642.583027 610.86494 642.517286 613.66201 C 653.167317 602.385978 669.350543 597.000247 684.547655 600.598047 Z M 684.547655 600.598047 " transform="matrix(0.356513,0,0,0.35612,0.00451659,9.892127)"/><path style="fill-rule:nonzero;fill:#000000;fill-opacity:1;stroke-width:13.333333;stroke-linecap:butt;stroke-linejoin:miter;stroke:#516c75;stroke-opacity:1;stroke-miterlimit:4;" d="M 819.053602 599.775379 C 830.361042 600.674829 841.274037 607.387798 846.259391 617.742442 C 849.05338 623.65468 850.039494 630.510245 850.258631 636.992866 C 850.269588 653.994665 850.214804 670.996464 850.302458 688.009232 C 850.390113 691.102463 849.623135 693.570466 848.242576 696.279785 C 841.876662 696.334629 835.872324 696.959857 829.605021 695.446148 C 828.925698 691.848348 828.640821 688.42605 828.695605 684.773406 C 823.765035 691.694783 816.380137 696.159127 808.173478 698.111591 C 794.104918 702.071365 776.464435 695.248708 770.405312 681.515642 C 765.091254 668.802684 769.824601 650.967248 783.005658 645.011134 C 796.329153 638.74789 810.857899 641.369458 824.937415 637.958129 C 826.252234 637.629062 827.457484 637.146431 828.476469 636.225043 C 828.870914 631.530352 827.742362 626.089777 824.411488 622.579728 C 821.946203 620.1556 818.494804 618.696736 815.065319 618.378638 C 807.505112 617.906975 800.394134 617.885038 793.524207 621.504775 C 790.105678 622.985577 786.884373 626.122683 783.213837 626.715004 C 780.748552 626.473688 778.809195 623.314644 777.472462 621.482838 C 775.708414 618.740612 773.604704 615.022154 775.850853 611.950861 C 779.466604 607.486518 785.438072 604.601696 790.752131 602.693107 C 799.966818 599.336623 809.367771 599.139183 819.053602 599.775379 Z M 828.684648 651.14275 C 820.499902 654.137261 812.172718 653.753349 803.725008 655.234151 C 798.586258 656.254259 792.888711 658.250599 790.806915 663.548579 C 789.053823 667.596104 790.050894 672.016572 792.505222 675.526621 C 795.638873 679.628991 800.887191 681.811802 805.99307 681.691144 C 812.09602 681.789864 818.253754 678.806323 822.592655 674.605233 C 825.485256 671.764287 828.169678 668.265207 828.520296 664.075087 C 828.859958 659.775277 828.607951 655.44256 828.684648 651.14275 Z M 828.684648 651.14275 " transform="matrix(0.356513,0,0,0.35612,0.00451659,9.892127)"/><path style="fill-rule:nonzero;fill:#000000;fill-opacity:1;stroke-width:13.333333;stroke-linecap:butt;stroke-linejoin:miter;stroke:#516c75;stroke-opacity:1;stroke-miterlimit:4;" d="M 310.930982 602.375009 C 316.245041 602.407916 321.679625 601.683968 326.48967 604.086158 C 326.840288 617.709535 326.533497 631.365819 326.632108 645.000165 C 326.796461 652.634521 325.865131 659.599774 328.308502 666.948939 C 330.127334 672.729551 335.014077 677.128081 340.974588 678.257878 C 345.434015 678.981825 350.200232 678.784385 354.495307 677.292614 C 362.680053 674.363917 368.936398 667.003784 368.772046 658.031221 C 368.750132 640.129972 368.761089 622.294536 368.772046 604.393287 C 370.766187 603.428024 372.650761 602.484698 374.92978 602.418885 C 380.353406 602.309196 385.415458 601.618155 390.291244 604.37135 C 390.433683 634.0532 390.280287 663.735051 390.367942 693.416901 C 389.54618 694.382165 388.735375 695.347428 387.913614 696.32366 C 381.876405 696.290754 376.1679 696.850168 370.218346 695.544868 C 369.385628 692.671016 368.870657 689.841039 368.552909 686.868466 C 358.560287 697.694773 342.289407 701.654547 328.231804 697.815431 C 321.219438 696.159127 314.875438 692.265166 310.700889 686.320021 C 306.230506 679.892244 304.510285 671.753318 304.477414 664.020242 C 304.466457 647.676577 304.510285 631.343881 304.444544 615.000216 C 304.466457 611.86311 304.192537 608.56147 304.762292 605.46824 C 305.485442 602.704076 308.564309 602.484698 310.930982 602.375009 Z M 310.930982 602.375009 " transform="matrix(0.356513,0,0,0.35612,0.00451659,9.892127)"/><path style="fill-rule:nonzero;fill:#000000;fill-opacity:1;stroke-width:13.333333;stroke-linecap:butt;stroke-linejoin:miter;stroke:#516c75;stroke-opacity:1;stroke-miterlimit:4;" d="M 750.376242 602.561481 C 751.351399 603.460931 752.315599 604.349412 753.301713 605.248862 C 753.466065 635.062339 753.455109 664.875816 753.290756 694.689294 C 751.263744 695.511962 749.269603 696.268816 747.045368 696.334629 C 741.52313 696.444318 736.559689 697.310862 731.66199 694.2286 C 731.651033 664.305434 731.585292 634.371298 731.69486 604.437163 C 736.888394 601.190368 744.426687 602.616325 750.376242 602.561481 Z M 750.376242 602.561481 " transform="matrix(0.356513,0,0,0.35612,0.00451659,9.892127)"/><path style="fill-rule:nonzero;fill:#000000;fill-opacity:1;stroke-width:13.333333;stroke-linecap:butt;stroke-linejoin:miter;stroke:#ffffff;stroke-opacity:1;stroke-miterlimit:4;" d="M 561.995601 617.25981 C 567.660278 617.06237 573.215387 618.619954 577.291325 622.711355 C 582.145197 627.340232 583.591497 633.395066 584.336561 639.833812 C 568.832658 639.789936 553.317798 639.943501 537.813895 639.746061 C 539.34785 633.998356 541.035201 628.700376 545.264534 624.301846 C 549.625349 619.640062 555.596817 617.117214 561.995601 617.25981 Z M 561.995601 617.25981 " transform="matrix(0.356513,0,0,0.35612,0.00451659,9.892127)"/><path style="fill-rule:nonzero;fill:#000000;fill-opacity:1;stroke-width:13.333333;stroke-linecap:butt;stroke-linejoin:miter;stroke:#ffffff;stroke-opacity:1;stroke-miterlimit:4;" d="M 449.523824 618.905146 C 457.807181 618.15926 466.254891 619.475528 472.215402 625.782647 C 477.649986 630.992876 478.625143 638.879517 478.920977 646.009304 C 478.866193 652.140921 478.066345 659.336521 474.614946 664.579656 C 471.262158 669.943449 465.060597 672.959898 459.045302 674.166477 C 450.893426 675.504683 441.897876 674.13357 435.816839 668.144549 C 430.557565 663.054979 428.78256 656.122632 428.585337 649.014783 C 428.289503 641.764339 429.220832 633.625413 433.702173 627.65833 C 437.416535 622.535852 443.267478 619.508435 449.523824 618.905146 Z M 449.523824 618.905146 " transform="matrix(0.356513,0,0,0.35612,0.00451659,9.892127)"/><path style="fill-rule:nonzero;fill:#000000;fill-opacity:1;stroke-width:13.333333;stroke-linecap:butt;stroke-linejoin:miter;stroke:#ffffff;stroke-opacity:1;stroke-miterlimit:4;" d="M 828.684648 651.14275 C 828.607951 655.44256 828.859958 659.775277 828.520296 664.075087 C 828.169678 668.265207 825.485256 671.764287 822.592655 674.605233 C 818.253754 678.806323 812.09602 681.789864 805.99307 681.691144 C 800.887191 681.811802 795.638873 679.628991 792.505222 675.526621 C 790.050894 672.016572 789.053823 667.596104 790.806915 663.548579 C 792.888711 658.250599 798.586258 656.254259 803.725008 655.234151 C 812.172718 653.753349 820.499902 654.137261 828.684648 651.14275 Z M 828.684648 651.14275 " transform="matrix(0.356513,0,0,0.35612,0.00451659,9.892127)"/><g clip-rule="nonzero" clip-path="url(#759432fdb8)"><path style=" stroke:none;fill-rule:nonzero;fill:#ffffff;fill-opacity:1;" d="M 0.00390625 9.890625 L 368.996094 9.890625 L 368.996094 370.640625 L 0.00390625 370.640625 Z M 102.8125 173.808594 C 102.910156 174.441406 102.730469 175.144531 102.582031 175.761719 C 100.789062 181.878906 99.109375 188.035156 97.390625 194.171875 C 97.101562 195.34375 96.699219 196.75 97.058594 197.925781 C 97.527344 199.738281 99.378906 201.09375 101.261719 200.886719 C 103.136719 200.683594 104.980469 199.765625 106.777344 199.195312 C 111.550781 197.644531 116.292969 196.050781 120.957031 194.191406 C 121.8125 193.90625 122.921875 193.398438 123.828125 193.632812 C 125.425781 194.109375 126.898438 195.058594 128.433594 195.714844 C 134.640625 198.402344 141.210938 200.171875 147.949219 200.824219 C 152.019531 201.113281 155.996094 201.542969 160.074219 201.027344 C 169.726562 200.339844 179.164062 197.515625 187.460938 192.519531 C 199.367188 185.476562 209.214844 174.015625 213.246094 160.6875 C 216.09375 151.242188 216.257812 141.035156 213.496094 131.546875 C 211.558594 124.679688 208.054688 118.402344 203.515625 112.917969 C 198.519531 107.089844 192.488281 102.179688 185.695312 98.582031 C 177.355469 94.097656 168.089844 91.648438 158.65625 91.035156 C 149.816406 90.6875 140.980469 91.605469 132.609375 94.570312 C 124.132812 97.558594 116.054688 102.398438 109.78125 108.863281 C 100.976562 117.410156 95.398438 129.152344 94.550781 141.402344 C 94.078125 145.792969 94.511719 150.324219 95.246094 154.664062 C 96.394531 160.542969 98.410156 166.46875 101.667969 171.527344 C 102.089844 172.242188 102.609375 173 102.8125 173.808594 Z M 201.09375 215.695312 C 201.585938 217.039062 201.992188 218.5625 202.792969 219.757812 C 203.066406 220.195312 203.46875 220.132812 203.921875 220.195312 C 205.273438 220.265625 206.636719 220.203125 207.984375 220.160156 C 207.757812 218.023438 207.175781 215.917969 206.613281 213.847656 C 206.289062 212.042969 204.300781 210.714844 202.515625 210.875 C 200.808594 210.910156 199.023438 210.738281 197.339844 210.996094 C 196.214844 211.792969 195.4375 213.160156 194.5625 214.214844 C 193.726562 215.378906 192.554688 216.507812 192.03125 217.847656 C 191.984375 218.507812 191.773438 219.691406 192.421875 220.097656 C 193.734375 220.332031 195.136719 220.253906 196.464844 220.191406 C 197.203125 220.191406 197.59375 219.621094 198.078125 219.148438 C 199.097656 218.011719 200.058594 216.820312 201.09375 215.695312 Z M 102.773438 250.851562 C 101.800781 250.628906 100.832031 250.445312 99.832031 250.460938 C 94.175781 250.46875 88.523438 250.460938 82.867188 250.46875 C 82.867188 246.335938 82.859375 242.199219 82.875 238.0625 C 87.695312 238.078125 92.515625 238.0625 97.339844 238.074219 C 98.316406 238.007812 99.316406 238.148438 99.746094 237.058594 C 99.964844 235.503906 99.941406 233.722656 99.78125 232.160156 C 99.539062 230.910156 98.375 230.917969 97.339844 230.867188 C 92.519531 230.871094 87.691406 230.859375 82.867188 230.890625 C 82.890625 226.808594 82.886719 222.722656 82.867188 218.644531 C 87.453125 218.59375 92.03125 218.433594 96.621094 218.523438 C 98.214844 218.480469 99.882812 218.65625 101.453125 218.386719 C 102.25 218.21875 102.617188 217.558594 102.699219 216.800781 C 102.828125 215.199219 102.71875 213.574219 102.75 211.96875 C 100.941406 210.503906 99.121094 211 96.976562 210.9375 C 91.152344 210.9375 85.328125 210.949219 79.507812 210.929688 C 78.316406 210.941406 77.078125 210.84375 75.898438 211.03125 C 75.164062 211.226562 74.675781 211.746094 74.570312 212.503906 C 74.355469 214.03125 74.480469 215.617188 74.457031 217.152344 C 74.457031 229.730469 74.460938 242.332031 74.453125 254.90625 C 74.5 255.753906 74.449219 256.886719 75.164062 257.484375 C 75.753906 257.902344 76.671875 257.867188 77.363281 257.902344 C 84.851562 257.902344 92.34375 257.886719 99.832031 257.910156 C 100.667969 257.878906 101.730469 257.925781 102.476562 257.496094 C 102.875 257.144531 103.113281 256.59375 103.121094 256.0625 C 103.214844 254.308594 103.222656 252.566406 102.773438 250.851562 Z M 263.628906 213.105469 C 261.089844 213.773438 259.699219 216.921875 260.929688 219.25 C 262.046875 221.746094 265.410156 222.527344 267.582031 220.921875 C 269.8125 219.378906 269.894531 215.570312 267.769531 213.902344 C 266.660156 212.84375 265.046875 212.855469 263.628906 213.105469 Z M 170.367188 253.027344 C 170.324219 255.625 170.257812 258.796875 168.6875 261 C 166.964844 263.515625 163.738281 264.628906 160.796875 264.773438 C 158.230469 264.898438 155.769531 264.398438 153.453125 263.285156 C 152.214844 262.710938 151.082031 262.015625 149.730469 261.703125 C 148.78125 263.042969 147.550781 264.644531 147.320312 266.304688 C 147.179688 267.46875 148.058594 267.992188 148.871094 268.597656 C 154.40625 272.226562 161.703125 272.789062 167.863281 270.5 C 171.523438 269.082031 174.84375 266.347656 176.5 262.746094 C 177.898438 259.929688 178.257812 256.582031 178.390625 253.476562 C 178.429688 245.289062 178.386719 237.097656 178.417969 228.90625 C 178.40625 227.847656 178.488281 226.726562 178.273438 225.691406 C 178.070312 224.925781 177.585938 224.511719 176.796875 224.464844 C 175.132812 224.394531 173.347656 224.257812 171.710938 224.589844 C 170.414062 224.984375 170.84375 227.070312 170.699219 228.113281 C 168.558594 225.710938 165.78125 224.054688 162.582031 223.566406 C 159.609375 223.171875 156.464844 223.40625 153.707031 224.652344 C 150.742188 225.941406 148.304688 228.4375 146.796875 231.265625 C 145.257812 234.289062 144.679688 237.636719 144.824219 241.015625 C 144.921875 245.417969 146.453125 249.757812 149.5625 252.9375 C 153.53125 257.027344 160.148438 258.234375 165.429688 256.292969 C 167.34375 255.613281 168.921875 254.421875 170.367188 253.027344 Z M 213.914062 252.660156 C 213.539062 250.71875 212.320312 249.339844 210.78125 248.1875 C 208.921875 249.246094 207.363281 250.535156 205.339844 251.328125 C 203.203125 252.167969 200.726562 252.597656 198.476562 251.964844 C 196.316406 251.414062 194.390625 250.050781 193.253906 248.117188 C 192.351562 246.644531 192.023438 245.066406 191.671875 243.398438 C 197.777344 243.351562 203.882812 243.386719 209.992188 243.375 C 211.507812 243.355469 213.0625 243.476562 214.570312 243.304688 C 215.34375 243.191406 215.761719 242.480469 215.820312 241.753906 C 216.007812 238.652344 215.660156 235.511719 214.457031 232.628906 C 212.847656 228.683594 209.484375 225.53125 205.445312 224.160156 C 200.570312 222.617188 194.890625 223.355469 190.734375 226.40625 C 187.066406 228.941406 184.746094 233.042969 183.929688 237.378906 C 183.367188 241.824219 183.589844 246.226562 185.808594 250.21875 C 187.8125 253.847656 191.152344 256.691406 195.09375 258.003906 C 199.351562 259.503906 204.019531 259.121094 208.117188 257.3125 C 210.472656 256.289062 212.3125 254.632812 213.914062 252.660156 Z M 229.070312 228.429688 C 229.09375 227.433594 229.226562 226.289062 228.917969 225.335938 C 228.65625 224.691406 228.039062 224.523438 227.410156 224.457031 C 226.039062 224.367188 224.589844 224.359375 223.222656 224.460938 C 222.585938 224.503906 222.078125 224.820312 221.722656 225.34375 C 221.5 225.878906 221.550781 226.546875 221.519531 227.113281 C 221.5625 237.136719 221.496094 247.152344 221.554688 257.171875 C 223.328125 258.15625 225.15625 257.914062 227.117188 257.875 C 227.949219 257.855469 228.628906 257.507812 229.355469 257.160156 C 229.429688 250.828125 229.355469 244.488281 229.390625 238.15625 C 229.40625 236.222656 230.144531 234.324219 231.480469 232.917969 C 233.824219 230.28125 238.183594 229.757812 241.316406 231.097656 C 243.804688 232.207031 244.535156 234.941406 244.613281 237.441406 C 244.652344 243.382812 244.617188 249.328125 244.609375 255.269531 C 244.648438 256.203125 244.59375 257.328125 245.675781 257.675781 C 247.027344 258.015625 248.53125 257.886719 249.921875 257.902344 C 250.691406 257.84375 251.757812 257.949219 252.253906 257.226562 C 252.691406 256.707031 252.609375 255.910156 252.644531 255.273438 C 252.621094 248.738281 252.621094 242.203125 252.640625 235.671875 C 252.691406 233.433594 252.160156 231.164062 251.136719 229.171875 C 249.679688 226.445312 247.046875 224.515625 244.054688 223.777344 C 238.636719 222.496094 232.867188 224.414062 229.070312 228.429688 Z M 295.445312 253.753906 C 295.425781 255.054688 295.527344 256.273438 295.769531 257.554688 C 298.003906 258.09375 300.144531 257.871094 302.414062 257.851562 C 302.90625 256.886719 303.179688 256.007812 303.148438 254.90625 C 303.117188 248.847656 303.136719 242.792969 303.132812 236.738281 C 303.054688 234.429688 302.703125 231.988281 301.707031 229.882812 C 299.929688 226.195312 296.039062 223.804688 292.007812 223.484375 C 288.554688 223.257812 285.203125 223.328125 281.917969 224.523438 C 280.023438 225.203125 277.894531 226.230469 276.605469 227.820312 C 275.804688 228.914062 276.554688 230.238281 277.183594 231.214844 C 277.660156 231.867188 278.351562 232.992188 279.230469 233.078125 C 280.539062 232.867188 281.6875 231.75 282.90625 231.222656 C 285.355469 229.933594 287.890625 229.941406 290.585938 230.109375 C 291.808594 230.222656 293.039062 230.742188 293.917969 231.605469 C 295.105469 232.855469 295.507812 234.792969 295.367188 236.464844 C 295.003906 236.792969 294.574219 236.964844 294.105469 237.082031 C 289.085938 238.296875 283.90625 237.363281 279.15625 239.59375 C 274.457031 241.714844 272.769531 248.066406 274.664062 252.59375 C 276.824219 257.484375 283.113281 259.914062 288.128906 258.503906 C 291.054688 257.808594 293.6875 256.21875 295.445312 253.753906 Z M 131.398438 254.5 C 131.511719 255.558594 131.695312 256.566406 131.992188 257.589844 C 134.113281 258.054688 136.148438 257.855469 138.300781 257.867188 C 138.59375 257.519531 138.882812 257.175781 139.175781 256.832031 C 139.144531 246.261719 139.199219 235.691406 139.148438 225.121094 C 137.410156 224.140625 135.605469 224.386719 133.671875 224.425781 C 132.859375 224.449219 132.1875 224.785156 131.476562 225.128906 C 131.472656 231.503906 131.46875 237.855469 131.476562 244.230469 C 131.535156 247.425781 129.304688 250.046875 126.386719 251.089844 C 124.855469 251.621094 123.15625 251.691406 121.566406 251.433594 C 119.441406 251.03125 117.699219 249.464844 117.050781 247.40625 C 116.179688 244.789062 116.511719 242.308594 116.453125 239.589844 C 116.417969 234.734375 116.527344 229.871094 116.402344 225.019531 C 114.6875 224.164062 112.75 224.421875 110.855469 224.410156 C 110.011719 224.449219 108.914062 224.527344 108.65625 225.511719 C 108.453125 226.613281 108.550781 227.789062 108.542969 228.90625 C 108.566406 234.726562 108.550781 240.542969 108.554688 246.363281 C 108.566406 249.117188 109.179688 252.015625 110.773438 254.304688 C 112.261719 256.421875 114.523438 257.808594 117.023438 258.398438 C 122.035156 259.765625 127.835938 258.355469 131.398438 254.5 Z M 260.863281 225.144531 C 260.824219 235.804688 260.847656 246.464844 260.851562 257.121094 C 262.597656 258.21875 264.367188 257.910156 266.335938 257.871094 C 267.128906 257.847656 267.839844 257.578125 268.5625 257.285156 C 268.621094 246.667969 268.625 236.050781 268.566406 225.433594 C 268.214844 225.113281 267.871094 224.796875 267.523438 224.476562 C 265.402344 224.496094 262.714844 223.988281 260.863281 225.144531 Z M 260.863281 225.144531 "/></g><path style=" stroke:none;fill-rule:nonzero;fill:#95e6ad;fill-opacity:1;" d="M 158.65625 91.035156 C 168.089844 91.648438 177.355469 94.097656 185.695312 98.582031 C 192.488281 102.179688 198.519531 107.089844 203.515625 112.917969 C 208.054688 118.402344 211.558594 124.679688 213.496094 131.546875 C 216.257812 141.035156 216.09375 151.242188 213.246094 160.6875 C 209.214844 174.015625 199.367188 185.476562 187.460938 192.519531 C 179.164062 197.515625 169.726562 200.339844 160.074219 201.027344 C 155.996094 201.542969 152.019531 201.113281 147.949219 200.824219 C 141.210938 200.171875 134.640625 198.402344 128.433594 195.714844 C 126.898438 195.058594 125.425781 194.109375 123.828125 193.632812 C 122.921875 193.398438 121.8125 193.90625 120.957031 194.191406 C 116.292969 196.050781 111.550781 197.644531 106.777344 199.195312 C 104.980469 199.765625 103.136719 200.683594 101.261719 200.886719 C 99.378906 201.09375 97.527344 199.738281 97.058594 197.925781 C 96.699219 196.75 97.101562 195.34375 97.390625 194.171875 C 99.109375 188.035156 100.789062 181.878906 102.582031 175.761719 C 102.730469 175.144531 102.910156 174.441406 102.8125 173.808594 C 102.609375 173 102.089844 172.242188 101.667969 171.527344 C 98.410156 166.46875 96.394531 160.542969 95.246094 154.664062 C 94.511719 150.324219 94.078125 145.792969 94.550781 141.402344 C 95.398438 129.152344 100.976562 117.410156 109.78125 108.863281 C 116.054688 102.398438 124.132812 97.558594 132.609375 94.570312 C 140.980469 91.605469 149.816406 90.6875 158.65625 91.035156 Z M 108.191406 189.066406 C 111.554688 188.03125 114.859375 186.785156 118.152344 185.550781 C 120.003906 184.871094 122.089844 183.757812 124.078125 183.761719 C 125.675781 183.726562 127.089844 184.757812 128.46875 185.464844 C 136.65625 189.773438 145.832031 192.046875 155.085938 192.019531 C 164.390625 191.914062 173.601562 189.699219 181.695312 185.054688 C 190.679688 180.023438 198.113281 172.425781 202.488281 163.070312 C 207.847656 151.761719 207.539062 137.898438 201.691406 126.839844 C 196.863281 117.984375 189.257812 111.046875 180.304688 106.484375 C 173.578125 103.070312 166.191406 100.964844 158.652344 100.53125 C 155.804688 100.449219 152.9375 100.429688 150.089844 100.585938 C 138.785156 101.492188 127.609375 105.636719 118.914062 113.003906 C 110.617188 120.003906 104.875 130.042969 103.929688 140.929688 C 103.792969 143.777344 103.816406 146.65625 103.917969 149.503906 C 104.335938 155.679688 106.386719 161.597656 109.503906 166.925781 C 110.347656 168.398438 111.582031 169.660156 112.304688 171.191406 C 112.796875 172.449219 112.390625 174.117188 112.074219 175.386719 C 110.820312 179.960938 109.480469 184.5 108.191406 189.066406 Z M 108.191406 189.066406 "/><path style=" stroke:none;fill-rule:nonzero;fill:#ffffff;fill-opacity:1;" d="M 150.089844 100.585938 C 152.9375 100.429688 155.804688 100.449219 158.652344 100.53125 C 166.191406 100.964844 173.578125 103.070312 180.304688 106.484375 C 189.257812 111.046875 196.863281 117.984375 201.691406 126.839844 C 207.539062 137.898438 207.847656 151.761719 202.488281 163.070312 C 198.113281 172.425781 190.679688 180.023438 181.695312 185.054688 C 173.601562 189.699219 164.390625 191.914062 155.085938 192.019531 C 145.832031 192.046875 136.65625 189.773438 128.46875 185.464844 C 127.089844 184.757812 125.675781 183.726562 124.078125 183.761719 C 122.089844 183.757812 120.003906 184.871094 118.152344 185.550781 C 114.859375 186.785156 111.554688 188.03125 108.191406 189.066406 C 109.480469 184.5 110.820312 179.960938 112.074219 175.386719 C 112.390625 174.117188 112.796875 172.449219 112.304688 171.191406 C 111.582031 169.660156 110.347656 168.398438 109.503906 166.925781 C 106.386719 161.597656 104.335938 155.679688 103.917969 149.503906 C 103.816406 146.65625 103.792969 143.777344 103.929688 140.929688 C 104.875 130.042969 110.617188 120.003906 118.914062 113.003906 C 127.609375 105.636719 138.785156 101.492188 150.089844 100.585938 Z M 123.660156 126.730469 C 121.78125 127.941406 120.007812 129.078125 118.75 130.988281 C 117.03125 133.398438 116.40625 136.246094 116.6875 139.179688 C 116.8125 141.152344 117.714844 142.65625 118.625 144.34375 C 117.363281 146.054688 116.308594 147.8125 116.007812 149.957031 C 115.308594 153.648438 116.402344 157.515625 119.097656 160.15625 C 120.621094 161.726562 122.515625 162.402344 124.5625 163.019531 C 124.632812 164.78125 124.675781 166.441406 125.3125 168.113281 C 126.445312 171.328125 129.289062 173.765625 132.363281 175.078125 C 135.40625 176.300781 138.542969 175.742188 141.585938 174.871094 C 142.925781 175.804688 144.246094 176.800781 145.859375 177.199219 C 148.6875 177.871094 151.898438 177.179688 154 175.109375 C 155.738281 173.289062 156.578125 170.867188 156.636719 168.371094 C 156.753906 154.238281 156.78125 140.117188 156.800781 125.988281 C 156.765625 123.566406 157.089844 120.75 156.128906 118.492188 C 154.9375 115.542969 152.355469 113.191406 149.210938 112.527344 C 147.214844 112.117188 144.9375 112.074219 143.019531 112.828125 C 141.460938 113.453125 140.601562 114.675781 139.273438 115.554688 C 138.976562 115.757812 138.539062 115.695312 138.195312 115.691406 C 136.648438 115.574219 135.222656 115.363281 133.691406 115.78125 C 130.675781 116.523438 128.023438 118.878906 126.117188 121.238281 C 124.796875 122.851562 124.167969 124.742188 123.660156 126.730469 Z M 163.121094 151.601562 C 164.167969 152.367188 165.214844 152.878906 166.527344 152.992188 C 169.371094 153.300781 172.121094 153.703125 174.570312 155.300781 C 176.367188 156.453125 177.636719 158.207031 179.289062 159.453125 C 180.054688 160.035156 181.121094 160.226562 181.878906 159.519531 C 183.242188 158.242188 183.988281 156.515625 185.546875 155.347656 C 187.570312 153.777344 189.832031 153.417969 192.25 152.847656 C 193.164062 152.605469 194.113281 152.460938 194.695312 151.632812 C 195.109375 150.925781 195.101562 149.933594 195.136719 149.136719 C 195.136719 142.726562 195.105469 136.316406 195.144531 129.90625 C 195.125 128.941406 195.148438 127.824219 194.777344 126.925781 C 194.347656 126.070312 193.496094 125.636719 192.566406 125.523438 C 188.703125 125.175781 185.050781 126.355469 181.828125 128.433594 C 180.269531 125.796875 178.507812 123.375 176.027344 121.523438 C 173.472656 119.425781 170.402344 118.09375 167.183594 117.410156 C 166.144531 117.25 164.902344 117.085938 164.046875 117.84375 C 163.28125 118.484375 163.183594 119.714844 163.148438 120.636719 C 163.148438 130.957031 163.1875 141.285156 163.121094 151.601562 Z M 171.488281 169.238281 C 175.050781 169.246094 178.617188 169.222656 182.183594 169.269531 C 183.304688 169.257812 184.566406 169.316406 185.636719 168.953125 C 187.085938 168.53125 187.125 166.066406 185.710938 165.554688 C 184.859375 165.207031 183.804688 165.253906 182.894531 165.226562 C 178.144531 165.257812 173.386719 165.257812 168.636719 165.222656 C 167.625 165.25 166.445312 165.191406 165.496094 165.589844 C 164.457031 165.988281 164.355469 167.4375 164.761719 168.316406 C 165.089844 169 165.78125 169.105469 166.464844 169.199219 C 168.125 169.339844 169.820312 169.226562 171.488281 169.238281 Z M 178.617188 172.621094 C 175.578125 171.726562 172.804688 172.191406 169.703125 172.078125 C 168.410156 172.089844 166.984375 171.945312 165.726562 172.28125 C 164.4375 172.6875 164.175781 174.597656 165.058594 175.507812 C 165.886719 176.152344 167.285156 176.070312 168.277344 176.105469 C 170.660156 176.066406 173.042969 176.109375 175.421875 176.085938 C 176.265625 176.042969 177.523438 176.011719 178.144531 175.367188 C 178.589844 174.597656 178.507812 173.488281 178.617188 172.621094 Z M 178.617188 172.621094 "/><path style=" stroke:none;fill-rule:nonzero;fill:#89d8da;fill-opacity:1;" d="M 149.210938 112.527344 C 152.355469 113.191406 154.9375 115.542969 156.128906 118.492188 C 157.089844 120.75 156.765625 123.566406 156.800781 125.988281 C 156.78125 140.117188 156.753906 154.238281 156.636719 168.371094 C 156.578125 170.867188 155.738281 173.289062 154 175.109375 C 151.898438 177.179688 148.6875 177.871094 145.859375 177.199219 C 144.246094 176.800781 142.925781 175.804688 141.585938 174.871094 C 138.542969 175.742188 135.40625 176.300781 132.363281 175.078125 C 129.289062 173.765625 126.445312 171.328125 125.3125 168.113281 C 124.675781 166.441406 124.632812 164.78125 124.5625 163.019531 C 122.515625 162.402344 120.621094 161.726562 119.097656 160.15625 C 116.402344 157.515625 115.308594 153.648438 116.007812 149.957031 C 116.308594 147.8125 117.363281 146.054688 118.625 144.34375 C 117.714844 142.65625 116.8125 141.152344 116.6875 139.179688 C 116.40625 136.246094 117.03125 133.398438 118.75 130.988281 C 120.007812 129.078125 121.78125 127.941406 123.660156 126.730469 C 124.167969 124.742188 124.796875 122.851562 126.117188 121.238281 C 128.023438 118.878906 130.675781 116.523438 133.691406 115.78125 C 135.222656 115.363281 136.648438 115.574219 138.195312 115.691406 C 138.539062 115.695312 138.976562 115.757812 139.273438 115.554688 C 140.601562 114.675781 141.460938 113.453125 143.019531 112.828125 C 144.9375 112.074219 147.214844 112.117188 149.210938 112.527344 Z M 142.757812 117.855469 C 143.90625 119.652344 145.300781 121.632812 144.855469 123.890625 C 144.511719 125.140625 142.914062 125.496094 141.898438 124.886719 C 140.898438 123.761719 140.644531 121.9375 139.585938 120.820312 C 138.640625 119.832031 137.1875 119.324219 135.828125 119.390625 C 134.429688 119.515625 133.164062 120.320312 132.0625 121.140625 C 130.574219 122.289062 129.078125 123.625 128.359375 125.410156 C 127.828125 126.667969 127.78125 128.074219 127.292969 129.328125 C 126.925781 129.914062 126.058594 130.207031 125.480469 130.542969 C 121.882812 132.085938 119.625 136.710938 121.113281 140.425781 C 121.5625 141.609375 122.464844 142.492188 123.710938 142.800781 C 125.609375 143.238281 127.242188 142.324219 129.054688 142.207031 C 129.917969 142.097656 130.613281 143.023438 130.625 143.816406 C 130.753906 145.019531 129.648438 145.960938 128.6875 146.460938 C 126.753906 147.394531 124.660156 146.785156 122.636719 146.855469 C 121.855469 146.855469 121.328125 147.597656 120.933594 148.175781 C 118.871094 151.539062 119.984375 156.320312 123.417969 158.316406 C 125.125 159.1875 127.328125 159.128906 129.078125 158.417969 C 130.425781 157.890625 130.871094 156.304688 131.5625 155.164062 C 132.855469 152.667969 135.957031 151.019531 138.742188 151.5625 C 140.046875 151.882812 140.285156 153.449219 139.757812 154.496094 C 138.773438 155.566406 136.746094 155.472656 135.660156 156.425781 C 134.71875 157.539062 134.34375 159.066406 133.375 160.195312 C 132.144531 161.71875 130.484375 162.300781 128.757812 163.074219 C 128.800781 164.554688 128.757812 165.898438 129.480469 167.246094 C 130.550781 169.21875 132.425781 171 134.648438 171.546875 C 136.097656 171.859375 137.773438 171.539062 139.21875 171.296875 C 139.039062 169.253906 138.773438 167.375 139.601562 165.421875 C 140.136719 164.175781 141.082031 162.589844 142.4375 162.125 C 143.714844 161.71875 145.144531 162.671875 144.933594 164.070312 C 144.5625 165.40625 143.332031 166.597656 143.101562 167.96875 C 142.777344 171.003906 145.972656 174.070312 149.019531 173.316406 C 150.792969 172.964844 152.082031 171.476562 152.371094 169.730469 C 152.660156 167.523438 152.417969 165.246094 152.53125 163.019531 C 152.859375 157.675781 152.695312 152.292969 152.722656 146.9375 C 150.234375 146.375 147.492188 145.882812 145.640625 143.964844 C 144.207031 142.488281 143.832031 140.707031 143.378906 138.777344 C 141.277344 138.0625 139.011719 137.796875 137.027344 136.898438 C 135.75 136.261719 134.507812 135.273438 133.789062 134.023438 C 133.171875 132.902344 133.578125 131.425781 134.773438 130.902344 C 136.058594 130.675781 137.027344 131.730469 137.949219 132.4375 C 140.265625 134.511719 143.503906 133.679688 145.988281 135.785156 C 147.820312 137.199219 147.410156 139.40625 148.542969 141.0625 C 149.570312 142.054688 151.382812 142.335938 152.71875 142.726562 C 152.78125 136.199219 152.710938 129.667969 152.78125 123.136719 C 152.761719 121.605469 152.800781 120.203125 151.859375 118.90625 C 150.375 116.746094 147.65625 116.019531 145.171875 116.5625 C 144.3125 116.824219 143.519531 117.386719 142.757812 117.855469 Z M 142.757812 117.855469 "/><path style=" stroke:none;fill-rule:nonzero;fill:#ffffff;fill-opacity:1;" d="M 145.171875 116.5625 C 147.65625 116.019531 150.375 116.746094 151.859375 118.90625 C 152.800781 120.203125 152.761719 121.605469 152.78125 123.136719 C 152.710938 129.667969 152.78125 136.199219 152.71875 142.726562 C 151.382812 142.335938 149.570312 142.054688 148.542969 141.0625 C 147.410156 139.40625 147.820312 137.199219 145.988281 135.785156 C 143.503906 133.679688 140.265625 134.511719 137.949219 132.4375 C 137.027344 131.730469 136.058594 130.675781 134.773438 130.902344 C 133.578125 131.425781 133.171875 132.902344 133.789062 134.023438 C 134.507812 135.273438 135.75 136.261719 137.027344 136.898438 C 139.011719 137.796875 141.277344 138.0625 143.378906 138.777344 C 143.832031 140.707031 144.207031 142.488281 145.640625 143.964844 C 147.492188 145.882812 150.234375 146.375 152.722656 146.9375 C 152.695312 152.292969 152.859375 157.675781 152.53125 163.019531 C 152.417969 165.246094 152.660156 167.523438 152.371094 169.730469 C 152.082031 171.476562 150.792969 172.964844 149.019531 173.316406 C 145.972656 174.070312 142.777344 171.003906 143.101562 167.96875 C 143.332031 166.597656 144.5625 165.40625 144.933594 164.070312 C 145.144531 162.671875 143.714844 161.71875 142.4375 162.125 C 141.082031 162.589844 140.136719 164.175781 139.601562 165.421875 C 138.773438 167.375 139.039062 169.253906 139.21875 171.296875 C 137.773438 171.539062 136.097656 171.859375 134.648438 171.546875 C 132.425781 171 130.550781 169.21875 129.480469 167.246094 C 128.757812 165.898438 128.800781 164.554688 128.757812 163.074219 C 130.484375 162.300781 132.144531 161.71875 133.375 160.195312 C 134.34375 159.066406 134.71875 157.539062 135.660156 156.425781 C 136.746094 155.472656 138.773438 155.566406 139.757812 154.496094 C 140.285156 153.449219 140.046875 151.882812 138.742188 151.5625 C 135.957031 151.019531 132.855469 152.667969 131.5625 155.164062 C 130.871094 156.304688 130.425781 157.890625 129.078125 158.417969 C 127.328125 159.128906 125.125 159.1875 123.417969 158.316406 C 119.984375 156.320312 118.871094 151.539062 120.933594 148.175781 C 121.328125 147.597656 121.855469 146.855469 122.636719 146.855469 C 124.660156 146.785156 126.753906 147.394531 128.6875 146.460938 C 129.648438 145.960938 130.753906 145.019531 130.625 143.816406 C 130.613281 143.023438 129.917969 142.097656 129.054688 142.207031 C 127.242188 142.324219 125.609375 143.238281 123.710938 142.800781 C 122.464844 142.492188 121.5625 141.609375 121.113281 140.425781 C 119.625 136.710938 121.882812 132.085938 125.480469 130.542969 C 126.058594 130.207031 126.925781 129.914062 127.292969 129.328125 C 127.78125 128.074219 127.828125 126.667969 128.359375 125.410156 C 129.078125 123.625 130.574219 122.289062 132.0625 121.140625 C 133.164062 120.320312 134.429688 119.515625 135.828125 119.390625 C 137.1875 119.324219 138.640625 119.832031 139.585938 120.820312 C 140.644531 121.9375 140.898438 123.761719 141.898438 124.886719 C 142.914062 125.496094 144.511719 125.140625 144.855469 123.890625 C 145.300781 121.632812 143.90625 119.652344 142.757812 117.855469 C 143.519531 117.386719 144.3125 116.824219 145.171875 116.5625 Z M 145.171875 116.5625 "/><path style=" stroke:none;fill-rule:nonzero;fill:#fc786c;fill-opacity:1;" d="M 167.183594 117.410156 C 170.402344 118.09375 173.472656 119.425781 176.027344 121.523438 C 178.507812 123.375 180.269531 125.796875 181.828125 128.433594 C 185.050781 126.355469 188.703125 125.175781 192.566406 125.523438 C 193.496094 125.636719 194.347656 126.070312 194.777344 126.925781 C 195.148438 127.824219 195.125 128.941406 195.144531 129.90625 C 195.105469 136.316406 195.136719 142.726562 195.136719 149.136719 C 195.101562 149.933594 195.109375 150.925781 194.695312 151.632812 C 194.113281 152.460938 193.164062 152.605469 192.25 152.847656 C 189.832031 153.417969 187.570312 153.777344 185.546875 155.347656 C 183.988281 156.515625 183.242188 158.242188 181.878906 159.519531 C 181.121094 160.226562 180.054688 160.035156 179.289062 159.453125 C 177.636719 158.207031 176.367188 156.453125 174.570312 155.300781 C 172.121094 153.703125 169.371094 153.300781 166.527344 152.992188 C 165.214844 152.878906 164.167969 152.367188 163.121094 151.601562 C 163.1875 141.285156 163.148438 130.957031 163.148438 120.636719 C 163.183594 119.714844 163.28125 118.484375 164.046875 117.84375 C 164.902344 117.085938 166.144531 117.25 167.183594 117.410156 Z M 167.359375 148.855469 C 169.574219 149.066406 171.808594 149.449219 173.90625 150.199219 C 175.640625 150.828125 177.0625 151.851562 178.511719 152.960938 C 178.535156 146.578125 178.507812 140.195312 178.523438 133.816406 C 178.554688 132.101562 178.148438 130.582031 177.253906 129.121094 C 175.089844 125.660156 171.457031 122.6875 167.425781 121.773438 C 167.273438 123.164062 167.332031 124.589844 167.332031 125.988281 C 167.351562 133.609375 167.320312 141.234375 167.359375 148.855469 Z M 182.777344 151.960938 C 185.351562 150.542969 187.957031 149.515625 190.894531 149.140625 C 190.941406 142.632812 190.929688 136.117188 190.921875 129.609375 C 188.660156 130.105469 185.785156 130.550781 183.980469 132.074219 C 182.804688 133.109375 182.765625 134.5 182.742188 135.957031 C 182.789062 141.292969 182.742188 146.628906 182.777344 151.960938 Z M 182.777344 151.960938 "/><path style=" stroke:none;fill-rule:nonzero;fill:#ffffff;fill-opacity:1;" d="M 167.425781 121.773438 C 171.457031 122.6875 175.089844 125.660156 177.253906 129.121094 C 178.148438 130.582031 178.554688 132.101562 178.523438 133.816406 C 178.507812 140.195312 178.535156 146.578125 178.511719 152.960938 C 177.0625 151.851562 175.640625 150.828125 173.90625 150.199219 C 171.808594 149.449219 169.574219 149.066406 167.359375 148.855469 C 167.320312 141.234375 167.351562 133.609375 167.332031 125.988281 C 167.332031 124.589844 167.273438 123.164062 167.425781 121.773438 Z M 167.425781 121.773438 "/><path style=" stroke:none;fill-rule:nonzero;fill:#ffffff;fill-opacity:1;" d="M 190.921875 129.609375 C 190.929688 136.117188 190.941406 142.632812 190.894531 149.140625 C 187.957031 149.515625 185.351562 150.542969 182.777344 151.960938 C 182.742188 146.628906 182.789062 141.292969 182.742188 135.957031 C 182.765625 134.5 182.804688 133.109375 183.980469 132.074219 C 185.785156 130.550781 188.660156 130.105469 190.921875 129.609375 Z M 190.921875 129.609375 "/><path style=" stroke:none;fill-rule:nonzero;fill:#89d8da;fill-opacity:1;" d="M 168.636719 165.222656 C 173.386719 165.257812 178.144531 165.257812 182.894531 165.226562 C 183.804688 165.253906 184.859375 165.207031 185.710938 165.554688 C 187.125 166.066406 187.085938 168.53125 185.636719 168.953125 C 184.566406 169.316406 183.304688 169.257812 182.183594 169.269531 C 178.617188 169.222656 175.050781 169.246094 171.488281 169.238281 C 169.820312 169.226562 168.125 169.339844 166.464844 169.199219 C 165.78125 169.105469 165.089844 169 164.761719 168.316406 C 164.355469 167.4375 164.457031 165.988281 165.496094 165.589844 C 166.445312 165.191406 167.625 165.25 168.636719 165.222656 Z M 168.636719 165.222656 "/><path style=" stroke:none;fill-rule:nonzero;fill:#89d8da;fill-opacity:1;" d="M 169.703125 172.078125 C 172.804688 172.191406 175.578125 171.726562 178.617188 172.621094 C 178.507812 173.488281 178.589844 174.597656 178.144531 175.367188 C 177.523438 176.011719 176.265625 176.042969 175.421875 176.085938 C 173.042969 176.109375 170.660156 176.066406 168.277344 176.105469 C 167.285156 176.070312 165.886719 176.152344 165.058594 175.507812 C 164.175781 174.597656 164.4375 172.6875 165.726562 172.28125 C 166.984375 171.945312 168.410156 172.089844 169.703125 172.078125 Z M 169.703125 172.078125 "/><path style=" stroke:none;fill-rule:nonzero;fill:#516c75;fill-opacity:1;" d="M 197.339844 210.996094 C 199.023438 210.738281 200.808594 210.910156 202.515625 210.875 C 204.300781 210.714844 206.289062 212.042969 206.613281 213.847656 C 207.175781 215.917969 207.757812 218.023438 207.984375 220.160156 C 206.636719 220.203125 205.273438 220.265625 203.921875 220.195312 C 203.46875 220.132812 203.066406 220.195312 202.792969 219.757812 C 201.992188 218.5625 201.585938 217.039062 201.09375 215.695312 C 200.058594 216.820312 199.097656 218.011719 198.078125 219.148438 C 197.59375 219.621094 197.203125 220.191406 196.464844 220.191406 C 195.136719 220.253906 193.734375 220.332031 192.421875 220.097656 C 191.773438 219.691406 191.984375 218.507812 192.03125 217.847656 C 192.554688 216.507812 193.726562 215.378906 194.5625 214.214844 C 195.4375 213.160156 196.214844 211.792969 197.339844 210.996094 Z M 197.339844 210.996094 "/><path style=" stroke:none;fill-rule:nonzero;fill:#516c75;fill-opacity:1;" d="M 75.898438 211.03125 C 77.078125 210.84375 78.316406 210.941406 79.507812 210.929688 C 85.328125 210.949219 91.152344 210.9375 96.976562 210.9375 C 99.121094 211 100.941406 210.503906 102.75 211.96875 C 102.71875 213.574219 102.828125 215.199219 102.699219 216.800781 C 102.617188 217.558594 102.25 218.21875 101.453125 218.386719 C 99.882812 218.65625 98.214844 218.480469 96.621094 218.523438 C 92.03125 218.433594 87.453125 218.59375 82.867188 218.644531 C 82.886719 222.722656 82.890625 226.808594 82.867188 230.890625 C 87.691406 230.859375 92.519531 230.871094 97.339844 230.867188 C 98.375 230.917969 99.539062 230.910156 99.78125 232.160156 C 99.941406 233.722656 99.964844 235.503906 99.746094 237.058594 C 99.316406 238.148438 98.316406 238.007812 97.339844 238.074219 C 92.515625 238.0625 87.695312 238.078125 82.875 238.0625 C 82.859375 242.199219 82.867188 246.335938 82.867188 250.46875 C 88.523438 250.460938 94.175781 250.46875 99.832031 250.460938 C 100.832031 250.445312 101.800781 250.628906 102.773438 250.851562 C 103.222656 252.566406 103.214844 254.308594 103.121094 256.0625 C 103.113281 256.59375 102.875 257.144531 102.476562 257.496094 C 101.730469 257.925781 100.667969 257.878906 99.832031 257.910156 C 92.34375 257.886719 84.851562 257.902344 77.363281 257.902344 C 76.671875 257.867188 75.753906 257.902344 75.164062 257.484375 C 74.449219 256.886719 74.5 255.753906 74.453125 254.90625 C 74.460938 242.332031 74.457031 229.730469 74.457031 217.152344 C 74.480469 215.617188 74.355469 214.03125 74.570312 212.503906 C 74.675781 211.746094 75.164062 211.226562 75.898438 211.03125 Z M 75.898438 211.03125 "/><path style=" stroke:none;fill-rule:nonzero;fill:#516c75;fill-opacity:1;" d="M 263.628906 213.105469 C 265.046875 212.855469 266.660156 212.84375 267.769531 213.902344 C 269.894531 215.570312 269.8125 219.378906 267.582031 220.921875 C 265.410156 222.527344 262.046875 221.746094 260.929688 219.25 C 259.699219 216.921875 261.089844 213.773438 263.628906 213.105469 Z M 263.628906 213.105469 "/><path style=" stroke:none;fill-rule:nonzero;fill:#516c75;fill-opacity:1;" d="M 162.582031 223.566406 C 165.78125 224.054688 168.558594 225.710938 170.699219 228.113281 C 170.84375 227.070312 170.414062 224.984375 171.710938 224.589844 C 173.347656 224.257812 175.132812 224.394531 176.796875 224.464844 C 177.585938 224.511719 178.070312 224.925781 178.273438 225.691406 C 178.488281 226.726562 178.40625 227.847656 178.417969 228.90625 C 178.386719 237.097656 178.429688 245.289062 178.390625 253.476562 C 178.257812 256.582031 177.898438 259.929688 176.5 262.746094 C 174.84375 266.347656 171.523438 269.082031 167.863281 270.5 C 161.703125 272.789062 154.40625 272.226562 148.871094 268.597656 C 148.058594 267.992188 147.179688 267.46875 147.320312 266.304688 C 147.550781 264.644531 148.78125 263.042969 149.730469 261.703125 C 151.082031 262.015625 152.214844 262.710938 153.453125 263.285156 C 155.769531 264.398438 158.230469 264.898438 160.796875 264.773438 C 163.738281 264.628906 166.964844 263.515625 168.6875 261 C 170.257812 258.796875 170.324219 255.625 170.367188 253.027344 C 168.921875 254.421875 167.34375 255.613281 165.429688 256.292969 C 160.148438 258.234375 153.53125 257.027344 149.5625 252.9375 C 146.453125 249.757812 144.921875 245.417969 144.824219 241.015625 C 144.679688 237.636719 145.257812 234.289062 146.796875 231.265625 C 148.304688 228.4375 150.742188 225.941406 153.707031 224.652344 C 156.464844 223.40625 159.609375 223.171875 162.582031 223.566406 Z M 160.265625 230.296875 C 158.035156 230.511719 155.949219 231.589844 154.625 233.414062 C 153.027344 235.539062 152.695312 238.4375 152.800781 241.019531 C 152.871094 243.550781 153.503906 246.019531 155.378906 247.832031 C 157.546875 249.964844 160.753906 250.453125 163.660156 249.976562 C 165.804688 249.546875 168.015625 248.472656 169.210938 246.5625 C 170.441406 244.695312 170.726562 242.132812 170.746094 239.949219 C 170.640625 237.410156 170.292969 234.601562 168.355469 232.746094 C 166.230469 230.5 163.21875 230.03125 160.265625 230.296875 Z M 160.265625 230.296875 "/><path style=" stroke:none;fill-rule:nonzero;fill:#516c75;fill-opacity:1;" d="M 205.445312 224.160156 C 209.484375 225.53125 212.847656 228.683594 214.457031 232.628906 C 215.660156 235.511719 216.007812 238.652344 215.820312 241.753906 C 215.761719 242.480469 215.34375 243.191406 214.570312 243.304688 C 213.0625 243.476562 211.507812 243.355469 209.992188 243.375 C 203.882812 243.386719 197.777344 243.351562 191.671875 243.398438 C 192.023438 245.066406 192.351562 246.644531 193.253906 248.117188 C 194.390625 250.050781 196.316406 251.414062 198.476562 251.964844 C 200.726562 252.597656 203.203125 252.167969 205.339844 251.328125 C 207.363281 250.535156 208.921875 249.246094 210.78125 248.1875 C 212.320312 249.339844 213.539062 250.71875 213.914062 252.660156 C 212.3125 254.632812 210.472656 256.289062 208.117188 257.3125 C 204.019531 259.121094 199.351562 259.503906 195.09375 258.003906 C 191.152344 256.691406 187.8125 253.847656 185.808594 250.21875 C 183.589844 246.226562 183.367188 241.824219 183.929688 237.378906 C 184.746094 233.042969 187.066406 228.941406 190.734375 226.40625 C 194.890625 223.355469 200.570312 222.617188 205.445312 224.160156 Z M 191.742188 237.71875 C 197.269531 237.789062 202.800781 237.734375 208.328125 237.75 C 208.0625 235.457031 207.546875 233.300781 205.816406 231.652344 C 204.363281 230.195312 202.382812 229.640625 200.363281 229.710938 C 198.082031 229.660156 195.953125 230.558594 194.398438 232.21875 C 192.890625 233.785156 192.289062 235.671875 191.742188 237.71875 Z M 191.742188 237.71875 "/><path style=" stroke:none;fill-rule:nonzero;fill:#516c75;fill-opacity:1;" d="M 244.054688 223.777344 C 247.046875 224.515625 249.679688 226.445312 251.136719 229.171875 C 252.160156 231.164062 252.691406 233.433594 252.640625 235.671875 C 252.621094 242.203125 252.621094 248.738281 252.644531 255.273438 C 252.609375 255.910156 252.691406 256.707031 252.253906 257.226562 C 251.757812 257.949219 250.691406 257.84375 249.921875 257.902344 C 248.53125 257.886719 247.027344 258.015625 245.675781 257.675781 C 244.59375 257.328125 244.648438 256.203125 244.609375 255.269531 C 244.617188 249.328125 244.652344 243.382812 244.613281 237.441406 C 244.535156 234.941406 243.804688 232.207031 241.316406 231.097656 C 238.183594 229.757812 233.824219 230.28125 231.480469 232.917969 C 230.144531 234.324219 229.40625 236.222656 229.390625 238.15625 C 229.355469 244.488281 229.429688 250.828125 229.355469 257.160156 C 228.628906 257.507812 227.949219 257.855469 227.117188 257.875 C 225.15625 257.914062 223.328125 258.15625 221.554688 257.171875 C 221.496094 247.152344 221.5625 237.136719 221.519531 227.113281 C 221.550781 226.546875 221.5 225.878906 221.722656 225.34375 C 222.078125 224.820312 222.585938 224.503906 223.222656 224.460938 C 224.589844 224.359375 226.039062 224.367188 227.410156 224.457031 C 228.039062 224.523438 228.65625 224.691406 228.917969 225.335938 C 229.226562 226.289062 229.09375 227.433594 229.070312 228.429688 C 232.867188 224.414062 238.636719 222.496094 244.054688 223.777344 Z M 244.054688 223.777344 "/><path style=" stroke:none;fill-rule:nonzero;fill:#516c75;fill-opacity:1;" d="M 292.007812 223.484375 C 296.039062 223.804688 299.929688 226.195312 301.707031 229.882812 C 302.703125 231.988281 303.054688 234.429688 303.132812 236.738281 C 303.136719 242.792969 303.117188 248.847656 303.148438 254.90625 C 303.179688 256.007812 302.90625 256.886719 302.414062 257.851562 C 300.144531 257.871094 298.003906 258.09375 295.769531 257.554688 C 295.527344 256.273438 295.425781 255.054688 295.445312 253.753906 C 293.6875 256.21875 291.054688 257.808594 288.128906 258.503906 C 283.113281 259.914062 276.824219 257.484375 274.664062 252.59375 C 272.769531 248.066406 274.457031 241.714844 279.15625 239.59375 C 283.90625 237.363281 289.085938 238.296875 294.105469 237.082031 C 294.574219 236.964844 295.003906 236.792969 295.367188 236.464844 C 295.507812 234.792969 295.105469 232.855469 293.917969 231.605469 C 293.039062 230.742188 291.808594 230.222656 290.585938 230.109375 C 287.890625 229.941406 285.355469 229.933594 282.90625 231.222656 C 281.6875 231.75 280.539062 232.867188 279.230469 233.078125 C 278.351562 232.992188 277.660156 231.867188 277.183594 231.214844 C 276.554688 230.238281 275.804688 228.914062 276.605469 227.820312 C 277.894531 226.230469 280.023438 225.203125 281.917969 224.523438 C 285.203125 223.328125 288.554688 223.257812 292.007812 223.484375 Z M 295.441406 241.777344 C 292.523438 242.84375 289.554688 242.707031 286.542969 243.234375 C 284.710938 243.597656 282.679688 244.308594 281.9375 246.195312 C 281.3125 247.636719 281.667969 249.210938 282.542969 250.460938 C 283.660156 251.921875 285.53125 252.699219 287.351562 252.65625 C 289.527344 252.691406 291.722656 251.628906 293.269531 250.132812 C 294.300781 249.121094 295.257812 247.875 295.382812 246.382812 C 295.503906 244.851562 295.414062 243.308594 295.441406 241.777344 Z M 295.441406 241.777344 "/><path style=" stroke:none;fill-rule:nonzero;fill:#516c75;fill-opacity:1;" d="M 110.855469 224.410156 C 112.75 224.421875 114.6875 224.164062 116.402344 225.019531 C 116.527344 229.871094 116.417969 234.734375 116.453125 239.589844 C 116.511719 242.308594 116.179688 244.789062 117.050781 247.40625 C 117.699219 249.464844 119.441406 251.03125 121.566406 251.433594 C 123.15625 251.691406 124.855469 251.621094 126.386719 251.089844 C 129.304688 250.046875 131.535156 247.425781 131.476562 244.230469 C 131.46875 237.855469 131.472656 231.503906 131.476562 225.128906 C 132.1875 224.785156 132.859375 224.449219 133.671875 224.425781 C 135.605469 224.386719 137.410156 224.140625 139.148438 225.121094 C 139.199219 235.691406 139.144531 246.261719 139.175781 256.832031 C 138.882812 257.175781 138.59375 257.519531 138.300781 257.867188 C 136.148438 257.855469 134.113281 258.054688 131.992188 257.589844 C 131.695312 256.566406 131.511719 255.558594 131.398438 254.5 C 127.835938 258.355469 122.035156 259.765625 117.023438 258.398438 C 114.523438 257.808594 112.261719 256.421875 110.773438 254.304688 C 109.179688 252.015625 108.566406 249.117188 108.554688 246.363281 C 108.550781 240.542969 108.566406 234.726562 108.542969 228.90625 C 108.550781 227.789062 108.453125 226.613281 108.65625 225.511719 C 108.914062 224.527344 110.011719 224.449219 110.855469 224.410156 Z M 110.855469 224.410156 "/><path style=" stroke:none;fill-rule:nonzero;fill:#516c75;fill-opacity:1;" d="M 267.523438 224.476562 C 267.871094 224.796875 268.214844 225.113281 268.566406 225.433594 C 268.625 236.050781 268.621094 246.667969 268.5625 257.285156 C 267.839844 257.578125 267.128906 257.847656 266.335938 257.871094 C 264.367188 257.910156 262.597656 258.21875 260.851562 257.121094 C 260.847656 246.464844 260.824219 235.804688 260.863281 225.144531 C 262.714844 223.988281 265.402344 224.496094 267.523438 224.476562 Z M 267.523438 224.476562 "/><path style=" stroke:none;fill-rule:nonzero;fill:#ffffff;fill-opacity:1;" d="M 200.363281 229.710938 C 202.382812 229.640625 204.363281 230.195312 205.816406 231.652344 C 207.546875 233.300781 208.0625 235.457031 208.328125 237.75 C 202.800781 237.734375 197.269531 237.789062 191.742188 237.71875 C 192.289062 235.671875 192.890625 233.785156 194.398438 232.21875 C 195.953125 230.558594 198.082031 229.660156 200.363281 229.710938 Z M 200.363281 229.710938 "/><path style=" stroke:none;fill-rule:nonzero;fill:#ffffff;fill-opacity:1;" d="M 160.265625 230.296875 C 163.21875 230.03125 166.230469 230.5 168.355469 232.746094 C 170.292969 234.601562 170.640625 237.410156 170.746094 239.949219 C 170.726562 242.132812 170.441406 244.695312 169.210938 246.5625 C 168.015625 248.472656 165.804688 249.546875 163.660156 249.976562 C 160.753906 250.453125 157.546875 249.964844 155.378906 247.832031 C 153.503906 246.019531 152.871094 243.550781 152.800781 241.019531 C 152.695312 238.4375 153.027344 235.539062 154.625 233.414062 C 155.949219 231.589844 158.035156 230.511719 160.265625 230.296875 Z M 160.265625 230.296875 "/><path style=" stroke:none;fill-rule:nonzero;fill:#ffffff;fill-opacity:1;" d="M 295.441406 241.777344 C 295.414062 243.308594 295.503906 244.851562 295.382812 246.382812 C 295.257812 247.875 294.300781 249.121094 293.269531 250.132812 C 291.722656 251.628906 289.527344 252.691406 287.351562 252.65625 C 285.53125 252.699219 283.660156 251.921875 282.542969 250.460938 C 281.667969 249.210938 281.3125 247.636719 281.9375 246.195312 C 282.679688 244.308594 284.710938 243.597656 286.542969 243.234375 C 289.554688 242.707031 292.523438 242.84375 295.441406 241.777344 Z M 295.441406 241.777344 "/></g></svg>