<svg xmlns="http://www.w3.org/2000/svg" xmlns:xlink="http://www.w3.org/1999/xlink" width="512" zoomAndPan="magnify" viewBox="0 0 384 383.999986" height="512" preserveAspectRatio="xMidYMid meet" version="1.2"><g id="c52198fd05"><rect x="0" width="384" y="0" height="383.999986" style="fill:#ffffff;fill-opacity:1;stroke:none;"/><rect x="0" width="384" y="0" height="383.999986" style="fill:#ffffff;fill-opacity:1;stroke:none;"/><path style="fill-rule:nonzero;fill:#000000;fill-opacity:1;stroke-width:13.333333;stroke-linecap:butt;stroke-linejoin:miter;stroke:#ffffff;stroke-opacity:1;stroke-miterlimit:4;" d="M 0.000567385 0.00117015 L 1035.000632 0.00117015 L 1035.000632 1013.003228 L 0.000567385 1013.003228 Z M 288.368394 460.280525 C 288.636394 462.057103 288.13868 464.040439 287.717538 465.771071 C 282.702112 482.947217 277.977658 500.23057 273.161318 517.467977 C 272.349661 520.753116 271.216405 524.696814 272.227147 528.012584 C 273.551832 533.089617 278.743372 536.903135 284.01914 536.321152 C 289.279594 535.746827 294.448162 533.166193 299.486559 531.573399 C 312.878894 527.216187 326.179343 522.736452 339.257735 517.521581 C 341.662077 516.717526 344.778532 515.2932 347.320702 515.951759 C 351.800128 517.291851 355.927325 519.956719 360.238294 521.802216 C 377.650627 529.33736 396.081358 534.307186 414.979176 536.152683 C 426.388312 536.956738 437.552419 538.158992 448.992184 536.711693 C 476.060167 534.781961 502.530894 526.848619 525.808595 512.819774 C 559.201375 493.047679 586.820672 460.862507 598.130266 423.439492 C 606.116661 396.920993 606.583746 368.25069 598.827065 341.609668 C 593.398154 322.327664 583.566389 304.699716 570.840225 289.300149 C 556.820005 272.928058 539.913043 259.151917 520.846769 249.043797 C 497.461869 236.446936 471.473542 229.570351 445.010472 227.847376 C 420.209001 226.88251 395.430502 229.447829 371.953716 237.77937 C 348.170644 246.172172 325.520829 259.756872 307.917068 277.920857 C 283.222797 301.919983 267.579264 334.886237 265.197894 369.292132 C 263.873209 381.620975 265.090694 394.340359 267.150464 406.531364 C 270.366462 423.033635 276.01743 439.673744 285.160053 453.878715 C 286.339253 455.877366 287.801766 458.006198 288.368394 460.280525 Z M 564.048343 577.902281 C 565.418971 581.67751 566.567542 585.950488 568.811083 589.312203 C 569.576797 590.53743 570.710054 590.361304 571.981139 590.53743 C 575.771422 590.736529 579.592334 590.560403 583.367303 590.43788 C 582.739418 584.441928 581.10079 578.530209 579.531077 572.710383 C 578.619877 567.648665 573.037824 563.919382 568.030055 564.371184 C 563.236687 564.470734 558.236575 563.980643 553.519778 564.708121 C 550.35738 566.936502 548.182753 570.780651 545.717154 573.751825 C 543.381727 577.021649 540.089158 580.176607 538.626644 583.951837 C 538.488816 585.797335 537.899216 589.120762 539.721615 590.269412 C 543.397041 590.920313 547.340468 590.698241 551.061837 590.529772 C 553.129264 590.529772 554.231892 588.92932 555.587205 587.596886 C 558.450975 584.411297 561.138631 581.057239 564.048343 577.902281 Z M 288.261194 676.617258 C 285.527596 675.996987 282.816969 675.476266 280.006799 675.529869 C 264.148866 675.552842 248.290933 675.529869 232.432999 675.552842 C 232.417685 663.94382 232.402371 652.32714 232.448314 640.71046 C 245.97082 640.748749 259.493326 640.71046 273.023489 640.741091 C 275.757088 640.557307 278.5596 640.947848 279.769428 637.892439 C 280.381999 633.527569 280.320742 628.519455 279.868971 624.13927 C 279.187486 620.632059 275.917888 620.647374 273.023489 620.509536 C 259.500983 620.517194 245.963163 620.478906 232.432999 620.570798 C 232.486599 609.107271 232.478942 597.643745 232.432999 586.180218 C 245.289335 586.04238 258.130355 585.590578 271.002005 585.850938 C 275.481431 585.720758 280.152285 586.218506 284.562797 585.460397 C 286.791024 584.99328 287.81708 583.140124 288.046795 581.011293 C 288.421994 576.508585 288.108052 571.952274 288.199937 567.441908 C 283.123255 563.329741 278.023601 564.723437 271.997433 564.539653 C 255.672414 564.539653 239.332081 564.577941 222.999405 564.51668 C 219.660893 564.54731 216.192209 564.279292 212.876668 564.807671 C 210.816898 565.359023 209.44627 566.806322 209.147642 568.942811 C 208.550385 573.231104 208.902613 577.680208 208.841356 581.999132 C 208.841356 617.316289 208.849014 652.702366 208.818385 688.011866 C 208.956213 690.3934 208.810728 693.571332 210.816898 695.24836 C 212.47084 696.419983 215.051296 696.320434 216.988551 696.419983 C 237.992082 696.419983 259.010926 696.381695 280.006799 696.442956 C 282.357541 696.358722 285.343825 696.488902 287.426566 695.278991 C 288.552166 694.291152 289.21068 692.751961 289.241308 691.258716 C 289.501651 686.327179 289.516965 681.441588 288.261194 676.617258 Z M 739.450409 570.627497 C 732.329271 572.511283 728.431788 581.34823 731.8775 587.88022 C 735.016926 594.886985 744.450521 597.092393 750.537946 592.582027 C 756.801485 588.247788 757.031199 577.550028 751.066288 572.871194 C 747.949833 569.900019 743.432121 569.93065 739.450409 570.627497 Z M 477.859595 682.728076 C 477.737081 690.03349 477.553309 698.931698 473.150455 705.119092 C 468.311144 712.187119 459.260406 715.311446 451.013668 715.717303 C 443.823615 716.069555 436.90922 714.660545 430.423623 711.536217 C 426.939626 709.920449 423.761913 707.967744 419.97163 707.102428 C 417.306946 710.862342 413.861233 715.357392 413.210377 720.020911 C 412.819863 723.283077 415.277804 724.753349 417.559631 726.461009 C 433.088308 736.653363 453.563495 738.230842 470.837999 731.798402 C 481.098564 727.816416 490.409645 720.143434 495.057528 710.019999 C 498.977982 702.117287 499.988725 692.721331 500.356267 683.999249 C 500.471124 661.003276 500.34861 637.999646 500.440496 615.003674 C 500.409867 612.0325 500.639581 608.877541 500.042325 605.967628 C 499.460382 603.823481 498.112726 602.659516 495.892156 602.529336 C 491.228958 602.330236 486.22119 601.947353 481.626907 602.881588 C 477.989766 603.99195 479.199594 609.850065 478.793766 612.767636 C 472.790569 606.028889 464.987946 601.380686 456.021437 600.009963 C 447.682813 598.899602 438.86179 599.558161 431.12808 603.057715 C 422.812428 606.672133 415.966946 613.678898 411.740206 621.619898 C 407.429237 630.119908 405.813581 639.523522 406.211752 649.003713 C 406.479752 661.370844 410.783064 673.546534 419.496887 682.483031 C 430.630366 693.96953 449.191269 697.361876 464.007832 691.90196 C 469.383143 690.002859 473.801312 686.648801 477.859595 682.728076 Z M 599.998607 681.701949 C 598.949579 676.24969 595.526839 672.382569 591.223527 669.143376 C 586.001359 672.122208 581.629133 675.728969 575.96285 677.95735 C 569.959654 680.323569 563.006972 681.53348 556.697491 679.749244 C 550.640694 678.202395 545.242412 674.38122 542.049385 668.951934 C 539.522529 664.809137 538.603673 660.383005 537.623559 655.696513 C 554.737263 655.558676 571.866281 655.658225 589.002957 655.627594 C 593.260326 655.566333 597.617237 655.910928 601.851635 655.428495 C 604.018605 655.106873 605.190147 653.123538 605.350947 651.078941 C 605.87929 642.372174 604.899176 633.550542 601.530035 625.448731 C 597.012323 614.368088 587.578729 605.523483 576.253822 601.671677 C 562.578173 597.337438 546.651325 599.412665 534.989504 607.981594 C 524.69831 615.103224 518.189742 626.620354 515.900258 638.788386 C 514.322887 651.270382 514.950773 663.637514 521.168369 674.848337 C 526.788708 685.040691 536.161046 693.01998 547.217953 696.710975 C 559.163089 700.922691 572.249138 699.84296 583.75016 694.773585 C 590.350613 691.886645 595.511524 687.238441 599.998607 681.701949 Z M 642.518696 613.663583 C 642.579953 610.860877 642.96281 607.652314 642.089896 604.972131 C 641.362468 603.17258 639.631955 602.690147 637.863156 602.506363 C 634.019273 602.25366 629.953332 602.230687 626.109449 602.521678 C 624.332993 602.636543 622.901108 603.53249 621.913337 605.002762 C 621.277795 606.503665 621.42328 608.379793 621.339052 609.972587 C 621.461566 638.106854 621.270138 666.24112 621.438595 694.367729 C 626.408077 697.132146 631.53836 696.458272 637.036185 696.351064 C 639.371612 696.289803 641.27824 695.309622 643.322696 694.337098 C 643.521781 676.563654 643.322696 658.75958 643.422239 640.978479 C 643.460524 635.541536 645.527952 630.2118 649.279949 626.260444 C 655.849774 618.863138 668.078224 617.392866 676.868618 621.15278 C 683.851929 624.269451 685.896384 631.95009 686.110784 638.97217 C 686.217984 655.650567 686.118441 672.351938 686.103127 689.030335 C 686.210327 691.649257 686.057184 694.811873 689.089411 695.792055 C 692.887352 696.741605 697.098778 696.381695 700.996261 696.419983 C 703.163231 696.259172 706.157172 696.550164 707.550771 694.52854 C 708.768256 693.073583 708.538542 690.829887 708.638085 689.037993 C 708.576828 670.690224 708.576828 652.342456 708.630428 634.002345 C 708.768256 627.707743 707.282772 621.336564 704.411345 615.746468 C 700.33009 608.088801 692.940952 602.667174 684.548728 600.599604 C 669.349309 597.000501 653.169776 602.391498 642.518696 613.663583 Z M 828.702013 684.772673 C 828.640756 688.433037 828.931727 691.848357 829.597898 695.44746 C 835.869094 696.963678 841.879948 696.343407 848.24303 696.282145 C 849.621315 693.571332 850.387029 691.097905 850.3028 688.011866 C 850.210914 670.996531 850.272172 653.996512 850.256857 636.988834 C 850.042457 630.510449 849.047029 623.64918 846.259831 617.737461 C 841.267377 607.391954 830.363612 600.668523 819.046362 599.772576 C 809.367739 599.136989 799.97243 599.343746 790.753236 602.690147 C 785.439182 604.596906 779.466614 607.491503 775.852445 611.948265 C 773.601246 615.01899 775.706959 618.740615 777.468101 621.48206 C 778.8081 623.312242 780.753013 626.467201 783.210955 626.712246 C 786.878724 626.122606 790.110036 622.99062 793.517463 621.497375 C 800.393573 617.890614 807.507054 617.913587 815.072307 618.380705 C 818.487391 618.702327 821.948417 620.157284 824.406358 622.577106 C 827.737214 626.091975 828.87047 631.528918 828.479956 636.230726 C 827.461557 637.149645 826.251729 637.632078 824.942358 637.961358 C 810.860881 641.36902 796.327632 638.750098 783.011869 645.006411 C 769.81862 650.971733 765.086508 668.798781 770.408219 681.518165 C 776.457359 695.24836 794.107062 702.071341 808.173225 698.112328 C 816.381678 696.159623 823.763159 691.687546 828.702013 684.772673 Z M 368.546289 686.870873 C 368.867889 689.842048 369.388574 692.667727 370.223202 695.539352 C 376.172799 696.848813 381.877367 696.289803 387.911192 696.320434 C 388.730506 695.34791 389.549819 694.383044 390.369133 693.418178 C 390.277248 663.729406 390.43039 634.048291 390.292562 604.367176 C 385.422622 601.618073 380.353596 602.307263 374.932342 602.422128 C 372.650515 602.491047 370.766859 603.43294 368.768346 604.390149 C 368.760689 622.293773 368.753032 640.128478 368.768346 658.032102 C 368.936803 666.999229 362.680921 674.358247 354.487783 677.291133 C 350.199786 678.77672 345.429389 678.983477 340.980591 678.263656 C 335.008024 677.130322 330.130426 672.727164 328.308028 666.953283 C 325.873058 659.601923 326.799571 652.633447 326.631114 644.998754 C 326.531571 631.368107 326.837857 617.70683 326.493286 604.0915 C 321.676946 601.679335 316.240378 602.406813 310.926324 602.376182 C 308.560268 602.491047 305.489756 602.697804 304.762327 605.46988 C 304.188042 608.563577 304.471356 611.856373 304.440728 615.003674 C 304.509642 631.337477 304.471356 647.678937 304.479013 664.020397 C 304.509642 671.746982 306.232498 679.887082 310.69661 686.319521 C 314.86975 692.269528 321.217518 696.159623 328.231456 697.821336 C 342.289962 701.65017 358.561381 697.698814 368.546289 686.870873 Z M 731.693728 604.443752 C 731.578871 634.369913 731.647786 664.303731 731.6631 694.229891 C 736.563668 697.308273 741.517837 696.442956 747.038633 696.343407 C 749.266861 696.26683 751.257717 695.508721 753.286858 694.689351 C 753.462972 664.878056 753.47063 635.059103 753.302173 605.247807 C 752.322059 604.35186 751.349602 603.463571 750.377146 602.559966 C 744.427549 602.621228 736.892925 601.189244 731.693728 604.443752 Z M 731.693728 604.443752 " transform="matrix(0.510145,0,0,0.51011,-72.019821,-58.645128)"/><path style="fill-rule:nonzero;fill:#000000;fill-opacity:1;stroke-width:13.333333;stroke-linecap:butt;stroke-linejoin:miter;stroke:#95e6ad;stroke-opacity:1;stroke-miterlimit:4;" d="M 445.010472 227.847376 C 471.473542 229.570351 497.461869 236.446936 520.846769 249.043797 C 539.913043 259.151917 556.820005 272.928058 570.840225 289.300149 C 583.566389 304.699716 593.398154 322.327664 598.827065 341.609668 C 606.583746 368.25069 606.116661 396.920993 598.130266 423.439492 C 586.820672 460.862507 559.201375 493.047679 525.808595 512.819774 C 502.530894 526.848619 476.060167 534.781961 448.992184 536.711693 C 437.552419 538.158992 426.388312 536.956738 414.979176 536.152683 C 396.081358 534.307186 377.650627 529.33736 360.238294 521.802216 C 355.927325 519.956719 351.800128 517.291851 347.320702 515.951759 C 344.778532 515.2932 341.662077 516.717526 339.257735 517.521581 C 326.179343 522.736452 312.878894 527.216187 299.486559 531.573399 C 294.448162 533.166193 289.279594 535.746827 284.01914 536.321152 C 278.743372 536.903135 273.551832 533.089617 272.227147 528.012584 C 271.216405 524.696814 272.349661 520.753116 273.161318 517.467977 C 277.977658 500.23057 282.702112 482.947217 287.717538 465.771071 C 288.13868 464.040439 288.636394 462.057103 288.368394 460.280525 C 287.801766 458.006198 286.339253 455.877366 285.160053 453.878715 C 276.01743 439.673744 270.366462 423.033635 267.150464 406.531364 C 265.090694 394.340359 263.873209 381.620975 265.197894 369.292132 C 267.579264 334.886237 283.222797 301.919983 307.917068 277.920857 C 325.520829 259.756872 348.170644 246.172172 371.953716 237.77937 C 395.430502 229.447829 420.209001 226.88251 445.010472 227.847376 Z M 303.460614 503.132826 C 312.886551 500.222913 322.159346 496.723359 331.401511 493.262094 C 336.593051 491.347677 342.443105 488.223349 348.017501 488.231007 C 352.496927 488.131457 356.470982 491.033713 360.337837 493.009391 C 383.301595 505.108504 409.037236 511.502655 435.002592 511.418421 C 461.090462 511.127429 486.933304 504.901747 509.629062 491.860741 C 534.828704 477.732346 555.679091 456.398088 567.961141 430.132292 C 582.992103 398.383607 582.11919 359.452031 565.717599 328.392536 C 552.179779 303.528093 530.839335 284.04699 505.731578 271.228056 C 486.872047 261.648316 466.151831 255.736597 445.002815 254.519028 C 437.008762 254.289298 428.968767 254.228037 420.982372 254.672182 C 389.266505 257.222185 357.933495 268.861838 333.537853 289.537537 C 310.260153 309.202424 294.157191 337.390294 291.507821 367.959698 C 291.117307 375.96196 291.186221 384.040798 291.469535 392.043059 C 292.641078 409.380016 298.399246 425.997152 307.143697 440.960232 C 309.509753 445.087714 312.97078 448.640872 314.999921 452.929165 C 316.378206 456.467007 315.237293 461.153499 314.349065 464.721971 C 310.826781 477.55622 307.067126 490.306235 303.460614 503.132826 Z M 303.460614 503.132826 " transform="matrix(0.510145,0,0,0.51011,-72.019821,-58.645128)"/><path style="fill-rule:nonzero;fill:#000000;fill-opacity:1;stroke-width:13.333333;stroke-linecap:butt;stroke-linejoin:miter;stroke:#ffffff;stroke-opacity:1;stroke-miterlimit:4;" d="M 420.982372 254.672182 C 428.968767 254.228037 437.008762 254.289298 445.002815 254.519028 C 466.151831 255.736597 486.872047 261.648316 505.731578 271.228056 C 530.839335 284.04699 552.179779 303.528093 565.717599 328.392536 C 582.11919 359.452031 582.992103 398.383607 567.961141 430.132292 C 555.679091 456.398088 534.828704 477.732346 509.629062 491.860741 C 486.933304 504.901747 461.090462 511.127429 435.002592 511.418421 C 409.037236 511.502655 383.301595 505.108504 360.337837 493.009391 C 356.470982 491.033713 352.496927 488.131457 348.017501 488.231007 C 342.443105 488.223349 336.593051 491.347677 331.401511 493.262094 C 322.159346 496.723359 312.886551 500.222913 303.460614 503.132826 C 307.067126 490.306235 310.826781 477.55622 314.349065 464.721971 C 315.237293 461.153499 316.378206 456.467007 314.999921 452.929165 C 312.97078 448.640872 309.509753 445.087714 307.143697 440.960232 C 298.399246 425.997152 292.641078 409.380016 291.469535 392.043059 C 291.186221 384.040798 291.117307 375.96196 291.507821 367.959698 C 294.157191 337.390294 310.260153 309.202424 333.537853 289.537537 C 357.933495 268.861838 389.266505 257.222185 420.982372 254.672182 Z M 346.853616 328.086229 C 341.577848 331.486233 336.600708 334.67948 333.078425 340.039847 C 328.24677 346.809224 326.500943 354.811485 327.289628 363.043477 C 327.641857 368.579969 330.168712 372.807001 332.718539 377.547097 C 329.180941 382.348454 326.232943 387.287648 325.383001 393.306574 C 323.422773 403.667397 326.493286 414.533625 334.050881 421.946247 C 338.323564 426.357062 343.637618 428.248506 349.380472 429.986796 C 349.579558 434.933649 349.702072 439.597168 351.478528 444.291317 C 354.65624 453.319706 362.642636 460.158002 371.256916 463.848997 C 379.802282 467.279632 388.592677 465.70981 397.130386 463.267014 C 400.890041 465.893594 404.588439 468.688642 409.113808 469.799004 C 417.046603 471.690448 426.051397 469.753058 431.947394 463.940889 C 436.832648 458.81791 439.18339 452.017903 439.336532 445.011138 C 439.673446 405.32911 439.750018 365.677714 439.803618 326.003344 C 439.711732 319.203336 440.622932 311.292967 437.919962 304.952419 C 434.58145 296.666824 427.337797 290.073573 418.516773 288.197445 C 412.919405 287.048795 406.533352 286.926273 401.150384 289.047446 C 396.778158 290.801052 394.373816 294.239344 390.637133 296.71277 C 389.810162 297.279438 388.577363 297.103311 387.620221 297.087996 C 383.278623 296.758716 379.281597 296.169076 374.978285 297.340699 C 366.532462 299.423584 359.089723 306.039808 353.737384 312.663689 C 350.038986 317.18937 348.270187 322.503791 346.853616 328.086229 Z M 457.529893 397.931805 C 460.470234 400.083609 463.410575 401.507935 467.093659 401.829557 C 475.057082 402.702531 482.783135 403.828208 489.651588 408.307943 C 494.689985 411.547136 498.250554 416.471015 502.883123 419.970569 C 505.027122 421.609309 508.021063 422.153004 510.149747 420.16201 C 513.970659 416.570565 516.068715 411.723262 520.440941 408.453438 C 526.107223 404.042623 532.462648 403.031811 539.239215 401.423701 C 541.796699 400.742168 544.469041 400.336312 546.100011 398.008381 C 547.256239 396.032703 547.240925 393.237655 547.340468 391.001617 C 547.340468 372.998443 547.248582 355.002927 547.363439 336.999753 C 547.302182 334.296597 547.371096 331.156954 546.329725 328.629924 C 545.119897 326.233074 542.73087 325.007848 540.127443 324.701541 C 529.292593 323.72136 519.047342 327.029472 510.011919 332.872271 C 505.632035 325.467308 500.693181 318.659642 493.7405 313.460087 C 486.573418 307.571341 477.959138 303.826742 468.931372 301.919983 C 466.006345 301.468181 462.530004 301.001063 460.13332 303.129895 C 457.981664 304.929446 457.713664 308.390711 457.606464 310.979003 C 457.606464 339.96327 457.721321 368.962853 457.529893 397.931805 Z M 480.999022 447.446276 C 490.999244 447.469249 500.999467 447.407987 510.999689 447.538168 C 514.146773 447.507537 517.692028 447.668348 520.693626 446.649878 C 524.75191 445.46294 524.85911 438.54041 520.900369 437.108426 C 518.511342 436.128245 515.54803 436.258425 512.998202 436.181848 C 499.667125 436.27374 486.32839 436.27374 472.997312 436.166533 C 470.171828 436.250767 466.856287 436.089956 464.19926 437.200318 C 461.281891 438.318337 460.998577 442.392216 462.131833 444.857984 C 463.058347 446.780059 464.987946 447.078708 466.909887 447.339068 C 471.573084 447.737267 476.32051 447.423303 480.999022 447.446276 Z M 500.999467 456.94944 C 492.477072 454.437725 484.689762 455.739528 475.99891 455.433222 C 472.369427 455.456195 468.372401 455.050338 464.84246 455.992231 C 461.228291 457.140881 460.493205 462.501248 462.966461 465.051251 C 465.286574 466.873775 469.207029 466.636388 472.001884 466.72828 C 478.678909 466.621072 485.36359 466.751253 492.040615 466.682334 C 494.399014 466.559811 497.928954 466.467919 499.667125 464.66071 C 500.922895 462.501248 500.693181 459.37692 500.999467 456.94944 Z M 500.999467 456.94944 " transform="matrix(0.510145,0,0,0.51011,-72.019821,-58.645128)"/><path style="fill-rule:nonzero;fill:#000000;fill-opacity:1;stroke-width:13.333333;stroke-linecap:butt;stroke-linejoin:miter;stroke:#89d8da;stroke-opacity:1;stroke-miterlimit:4;" d="M 418.516773 288.197445 C 427.337797 290.073573 434.58145 296.666824 437.919962 304.952419 C 440.622932 311.292967 439.711732 319.203336 439.803618 326.003344 C 439.750018 365.677714 439.673446 405.32911 439.336532 445.011138 C 439.18339 452.017903 436.832648 458.81791 431.947394 463.940889 C 426.051397 469.753058 417.046603 471.690448 409.113808 469.799004 C 404.588439 468.688642 400.890041 465.893594 397.130386 463.267014 C 388.592677 465.70981 379.802282 467.279632 371.256916 463.848997 C 362.642636 460.158002 354.65624 453.319706 351.478528 444.291317 C 349.702072 439.597168 349.579558 434.933649 349.380472 429.986796 C 343.637618 428.248506 338.323564 426.357062 334.050881 421.946247 C 326.493286 414.533625 323.422773 403.667397 325.383001 393.306574 C 326.232943 387.287648 329.180941 382.348454 332.718539 377.547097 C 330.168712 372.807001 327.641857 368.579969 327.289628 363.043477 C 326.500943 354.811485 328.24677 346.809224 333.078425 340.039847 C 336.600708 334.67948 341.577848 331.486233 346.853616 328.086229 C 348.270187 322.503791 350.038986 317.18937 353.737384 312.663689 C 359.089723 306.039808 366.532462 299.423584 374.978285 297.340699 C 379.281597 296.169076 383.278623 296.758716 387.620221 297.087996 C 388.577363 297.103311 389.810162 297.279438 390.637133 296.71277 C 394.373816 294.239344 396.778158 290.801052 401.150384 289.047446 C 406.533352 286.926273 412.919405 287.048795 418.516773 288.197445 Z M 400.407641 303.160525 C 403.638954 308.206928 407.551751 313.766393 406.303638 320.106941 C 405.331181 323.62181 400.851755 324.617307 398.0033 322.909647 C 395.200787 319.747031 394.488674 314.63171 391.517704 311.492066 C 388.868334 308.719991 384.787079 307.288008 380.981482 307.479449 C 377.061027 307.831702 373.508115 310.090713 370.422288 312.388013 C 366.241491 315.611891 362.053036 319.371805 360.031551 324.379919 C 358.538409 327.910103 358.408238 331.861459 357.03761 335.376328 C 356.011554 337.030384 353.576584 337.849754 351.953271 338.791647 C 341.861162 343.133544 335.528709 356.113289 339.701849 366.54303 C 340.95762 369.866457 343.492133 372.347541 346.991445 373.212858 C 352.313156 374.438084 356.899782 371.872766 361.976465 371.543486 C 364.403777 371.23718 366.34869 373.840786 366.379319 376.061509 C 366.746862 379.43854 363.638064 382.088093 360.950408 383.489446 C 355.521497 386.108368 349.648472 384.400708 343.98219 384.599808 C 341.792248 384.599808 340.306763 386.682693 339.196478 388.313776 C 333.407682 397.748021 336.539451 411.179568 346.172131 416.777322 C 350.957843 419.227775 357.137153 419.059306 362.053036 417.068313 C 365.820348 415.590383 367.068461 411.133622 369.013375 407.932717 C 372.642858 400.918295 381.341367 396.293064 389.151648 397.81694 C 392.81176 398.720544 393.477931 403.108387 392.000104 406.048931 C 389.243534 409.058394 383.546623 408.798033 380.506739 411.470559 C 377.872684 414.602544 376.808341 418.890838 374.097714 422.061112 C 370.652002 426.326432 365.988805 427.97283 361.149494 430.13995 C 361.272008 434.298062 361.149494 438.073292 363.170978 441.856179 C 366.180233 447.392672 371.440687 452.400786 377.673598 453.932319 C 381.731881 454.812951 386.433364 453.909346 390.491647 453.227814 C 389.978619 447.492222 389.243534 442.223747 391.563647 436.7332 C 393.056789 433.233647 395.721473 428.776885 399.519413 427.482739 C 403.102954 426.341747 407.107637 429.006615 406.518038 432.942656 C 405.476667 436.687254 402.030955 440.041312 401.380098 443.893118 C 400.468899 452.408444 409.42775 461.023318 417.980774 458.902145 C 422.950256 457.921963 426.572083 453.740877 427.38374 448.832313 C 428.187739 442.637261 427.506254 436.24311 427.827854 429.986796 C 428.74671 414.97777 428.287282 399.869194 428.37151 384.829538 C 421.3882 383.252058 413.692776 381.873678 408.501237 376.482681 C 404.481239 372.339884 403.432211 367.33177 402.161126 361.910142 C 396.257473 359.911491 389.909705 359.16104 384.342965 356.641667 C 380.759425 354.849774 377.26777 352.077698 375.261599 348.570487 C 373.531086 345.423186 374.672 341.272731 378.018169 339.802459 C 381.617024 339.159215 384.342965 342.13039 386.931078 344.113725 C 393.416674 349.941209 402.513354 347.597963 409.48135 353.509682 C 414.611633 357.476353 413.463062 363.679063 416.640775 368.327266 C 419.519859 371.122315 424.611855 371.911054 428.348539 372.998443 C 428.53231 354.673647 428.333225 336.333536 428.53231 318.001083 C 428.47871 313.689817 428.578253 309.761434 425.93654 306.116385 C 421.778714 300.051513 414.159862 298.006916 407.191866 299.530791 C 404.779867 300.273585 402.55164 301.851064 400.407641 303.160525 Z M 400.407641 303.160525 " transform="matrix(0.510145,0,0,0.51011,-72.019821,-58.645128)"/><path style="fill-rule:nonzero;fill:#000000;fill-opacity:1;stroke-width:13.333333;stroke-linecap:butt;stroke-linejoin:miter;stroke:#ffffff;stroke-opacity:1;stroke-miterlimit:4;" d="M 407.191866 299.530791 C 414.159862 298.006916 421.778714 300.051513 425.93654 306.116385 C 428.578253 309.761434 428.47871 313.689817 428.53231 318.001083 C 428.333225 336.333536 428.53231 354.673647 428.348539 372.998443 C 424.611855 371.911054 419.519859 371.122315 416.640775 368.327266 C 413.463062 363.679063 414.611633 357.476353 409.48135 353.509682 C 402.513354 347.597963 393.416674 349.941209 386.931078 344.113725 C 384.342965 342.13039 381.617024 339.159215 378.018169 339.802459 C 374.672 341.272731 373.531086 345.423186 375.261599 348.570487 C 377.26777 352.077698 380.759425 354.849774 384.342965 356.641667 C 389.909705 359.16104 396.257473 359.911491 402.161126 361.910142 C 403.432211 367.33177 404.481239 372.339884 408.501237 376.482681 C 413.692776 381.873678 421.3882 383.252058 428.37151 384.829538 C 428.287282 399.869194 428.74671 414.97777 427.827854 429.986796 C 427.506254 436.24311 428.187739 442.637261 427.38374 448.832313 C 426.572083 453.740877 422.950256 457.921963 417.980774 458.902145 C 409.42775 461.023318 400.468899 452.408444 401.380098 443.893118 C 402.030955 440.041312 405.476667 436.687254 406.518038 432.942656 C 407.107637 429.006615 403.102954 426.341747 399.519413 427.482739 C 395.721473 428.776885 393.056789 433.233647 391.563647 436.7332 C 389.243534 442.223747 389.978619 447.492222 390.491647 453.227814 C 386.433364 453.909346 381.731881 454.812951 377.673598 453.932319 C 371.440687 452.400786 366.180233 447.392672 363.170978 441.856179 C 361.149494 438.073292 361.272008 434.298062 361.149494 430.13995 C 365.988805 427.97283 370.652002 426.326432 374.097714 422.061112 C 376.808341 418.890838 377.872684 414.602544 380.506739 411.470559 C 383.546623 408.798033 389.243534 409.058394 392.000104 406.048931 C 393.477931 403.108387 392.81176 398.720544 389.151648 397.81694 C 381.341367 396.293064 372.642858 400.918295 369.013375 407.932717 C 367.068461 411.133622 365.820348 415.590383 362.053036 417.068313 C 357.137153 419.059306 350.957843 419.227775 346.172131 416.777322 C 336.539451 411.179568 333.407682 397.748021 339.196478 388.313776 C 340.306763 386.682693 341.792248 384.599808 343.98219 384.599808 C 349.648472 384.400708 355.521497 386.108368 360.950408 383.489446 C 363.638064 382.088093 366.746862 379.43854 366.379319 376.061509 C 366.34869 373.840786 364.403777 371.23718 361.976465 371.543486 C 356.899782 371.872766 352.313156 374.438084 346.991445 373.212858 C 343.492133 372.347541 340.95762 369.866457 339.701849 366.54303 C 335.528709 356.113289 341.861162 343.133544 351.953271 338.791647 C 353.576584 337.849754 356.011554 337.030384 357.03761 335.376328 C 358.408238 331.861459 358.538409 327.910103 360.031551 324.379919 C 362.053036 319.371805 366.241491 315.611891 370.422288 312.388013 C 373.508115 310.090713 377.061027 307.831702 380.981482 307.479449 C 384.787079 307.288008 388.868334 308.719991 391.517704 311.492066 C 394.488674 314.63171 395.200787 319.747031 398.0033 322.909647 C 400.851755 324.617307 405.331181 323.62181 406.303638 320.106941 C 407.551751 313.766393 403.638954 308.206928 400.407641 303.160525 C 402.55164 301.851064 404.779867 300.273585 407.191866 299.530791 Z M 407.191866 299.530791 " transform="matrix(0.510145,0,0,0.51011,-72.019821,-58.645128)"/><path style="fill-rule:nonzero;fill:#000000;fill-opacity:1;stroke-width:13.333333;stroke-linecap:butt;stroke-linejoin:miter;stroke:#fc786c;stroke-opacity:1;stroke-miterlimit:4;" d="M 468.931372 301.919983 C 477.959138 303.826742 486.573418 307.571341 493.7405 313.460087 C 500.693181 318.659642 505.632035 325.467308 510.011919 332.872271 C 519.047342 327.029472 529.292593 323.72136 540.127443 324.701541 C 542.73087 325.007848 545.119897 326.233074 546.329725 328.629924 C 547.371096 331.156954 547.302182 334.296597 547.363439 336.999753 C 547.248582 355.002927 547.340468 372.998443 547.340468 391.001617 C 547.240925 393.237655 547.256239 396.032703 546.100011 398.008381 C 544.469041 400.336312 541.796699 400.742168 539.239215 401.423701 C 532.462648 403.031811 526.107223 404.042623 520.440941 408.453438 C 516.068715 411.723262 513.970659 416.570565 510.149747 420.16201 C 508.021063 422.153004 505.027122 421.609309 502.883123 419.970569 C 498.250554 416.471015 494.689985 411.547136 489.651588 408.307943 C 482.783135 403.828208 475.057082 402.702531 467.093659 401.829557 C 463.410575 401.507935 460.470234 400.083609 457.529893 397.931805 C 457.721321 368.962853 457.606464 339.96327 457.606464 310.979003 C 457.713664 308.390711 457.981664 304.929446 460.13332 303.129895 C 462.530004 301.001063 466.006345 301.468181 468.931372 301.919983 Z M 469.421429 390.212877 C 475.631368 390.810175 481.902564 391.882248 487.790903 393.988107 C 492.653186 395.74937 496.642555 398.628652 500.700838 401.737665 C 500.769753 383.818726 500.693181 365.899786 500.739124 347.980847 C 500.823353 343.171832 499.682439 338.898854 497.170898 334.802003 C 491.106444 325.076767 480.907136 316.72991 469.612857 314.17225 C 469.1764 318.070002 469.352514 322.082619 469.3372 326.003344 C 469.398457 347.398864 469.306572 368.809699 469.421429 390.212877 Z M 512.668946 398.942617 C 519.889627 394.952973 527.202194 392.07369 535.441275 391.016932 C 535.571446 372.738082 535.53316 354.451575 535.510189 336.172725 C 529.170078 337.558763 521.099455 338.806962 516.038086 343.087598 C 512.753174 345.997511 512.638317 349.902921 512.569403 353.999773 C 512.699574 368.978168 512.569403 383.956564 512.668946 398.942617 Z M 512.668946 398.942617 " transform="matrix(0.510145,0,0,0.51011,-72.019821,-58.645128)"/><path style="fill-rule:nonzero;fill:#000000;fill-opacity:1;stroke-width:13.333333;stroke-linecap:butt;stroke-linejoin:miter;stroke:#ffffff;stroke-opacity:1;stroke-miterlimit:4;" d="M 469.612857 314.17225 C 480.907136 316.72991 491.106444 325.076767 497.170898 334.802003 C 499.682439 338.898854 500.823353 343.171832 500.739124 347.980847 C 500.693181 365.899786 500.769753 383.818726 500.700838 401.737665 C 496.642555 398.628652 492.653186 395.74937 487.790903 393.988107 C 481.902564 391.882248 475.631368 390.810175 469.421429 390.212877 C 469.306572 368.809699 469.398457 347.398864 469.3372 326.003344 C 469.352514 322.082619 469.1764 318.070002 469.612857 314.17225 Z M 469.612857 314.17225 " transform="matrix(0.510145,0,0,0.51011,-72.019821,-58.645128)"/><path style="fill-rule:nonzero;fill:#000000;fill-opacity:1;stroke-width:13.333333;stroke-linecap:butt;stroke-linejoin:miter;stroke:#ffffff;stroke-opacity:1;stroke-miterlimit:4;" d="M 535.510189 336.172725 C 535.53316 354.451575 535.571446 372.738082 535.441275 391.016932 C 527.202194 392.07369 519.889627 394.952973 512.668946 398.942617 C 512.569403 383.956564 512.699574 368.978168 512.569403 353.999773 C 512.638317 349.902921 512.753174 345.997511 516.038086 343.087598 C 521.099455 338.806962 529.170078 337.558763 535.510189 336.172725 Z M 535.510189 336.172725 " transform="matrix(0.510145,0,0,0.51011,-72.019821,-58.645128)"/><path style="fill-rule:nonzero;fill:#000000;fill-opacity:1;stroke-width:13.333333;stroke-linecap:butt;stroke-linejoin:miter;stroke:#89d8da;stroke-opacity:1;stroke-miterlimit:4;" d="M 472.997312 436.166533 C 486.32839 436.27374 499.667125 436.27374 512.998202 436.181848 C 515.54803 436.258425 518.511342 436.128245 520.900369 437.108426 C 524.85911 438.54041 524.75191 445.46294 520.693626 446.649878 C 517.692028 447.668348 514.146773 447.507537 510.999689 447.538168 C 500.999467 447.407987 490.999244 447.469249 480.999022 447.446276 C 476.32051 447.423303 471.573084 447.737267 466.909887 447.339068 C 464.987946 447.078708 463.058347 446.780059 462.131833 444.857984 C 460.998577 442.392216 461.281891 438.318337 464.19926 437.200318 C 466.856287 436.089956 470.171828 436.250767 472.997312 436.166533 Z M 472.997312 436.166533 " transform="matrix(0.510145,0,0,0.51011,-72.019821,-58.645128)"/><path style="fill-rule:nonzero;fill:#000000;fill-opacity:1;stroke-width:13.333333;stroke-linecap:butt;stroke-linejoin:miter;stroke:#89d8da;stroke-opacity:1;stroke-miterlimit:4;" d="M 475.99891 455.433222 C 484.689762 455.739528 492.477072 454.437725 500.999467 456.94944 C 500.693181 459.37692 500.922895 462.501248 499.667125 464.66071 C 497.928954 466.467919 494.399014 466.559811 492.040615 466.682334 C 485.36359 466.751253 478.678909 466.621072 472.001884 466.72828 C 469.207029 466.636388 465.286574 466.873775 462.966461 465.051251 C 460.493205 462.501248 461.228291 457.140881 464.84246 455.992231 C 468.372401 455.050338 472.369427 455.456195 475.99891 455.433222 Z M 475.99891 455.433222 " transform="matrix(0.510145,0,0,0.51011,-72.019821,-58.645128)"/><path style="fill-rule:nonzero;fill:#000000;fill-opacity:1;stroke-width:13.333333;stroke-linecap:butt;stroke-linejoin:miter;stroke:#516c75;stroke-opacity:1;stroke-miterlimit:4;" d="M 553.519778 564.708121 C 558.236575 563.980643 563.236687 564.470734 568.030055 564.371184 C 573.037824 563.919382 578.619877 567.648665 579.531077 572.710383 C 581.10079 578.530209 582.739418 584.441928 583.367303 590.43788 C 579.592334 590.560403 575.771422 590.736529 571.981139 590.53743 C 570.710054 590.361304 569.576797 590.53743 568.811083 589.312203 C 566.567542 585.950488 565.418971 581.67751 564.048343 577.902281 C 561.138631 581.057239 558.450975 584.411297 555.587205 587.596886 C 554.231892 588.92932 553.129264 590.529772 551.061837 590.529772 C 547.340468 590.698241 543.397041 590.920313 539.721615 590.269412 C 537.899216 589.120762 538.488816 585.797335 538.626644 583.951837 C 540.089158 580.176607 543.381727 577.021649 545.717154 573.751825 C 548.182753 570.780651 550.35738 566.936502 553.519778 564.708121 Z M 553.519778 564.708121 " transform="matrix(0.510145,0,0,0.51011,-72.019821,-58.645128)"/><path style="fill-rule:nonzero;fill:#000000;fill-opacity:1;stroke-width:13.333333;stroke-linecap:butt;stroke-linejoin:miter;stroke:#516c75;stroke-opacity:1;stroke-miterlimit:4;" d="M 212.876668 564.807671 C 216.192209 564.279292 219.660893 564.54731 222.999405 564.51668 C 239.332081 564.577941 255.672414 564.539653 271.997433 564.539653 C 278.023601 564.723437 283.123255 563.329741 288.199937 567.441908 C 288.108052 571.952274 288.421994 576.508585 288.046795 581.011293 C 287.81708 583.140124 286.791024 584.99328 284.562797 585.460397 C 280.152285 586.218506 275.481431 585.720758 271.002005 585.850938 C 258.130355 585.590578 245.289335 586.04238 232.432999 586.180218 C 232.478942 597.643745 232.486599 609.107271 232.432999 620.570798 C 245.963163 620.478906 259.500983 620.517194 273.023489 620.509536 C 275.917888 620.647374 279.187486 620.632059 279.868971 624.13927 C 280.320742 628.519455 280.381999 633.527569 279.769428 637.892439 C 278.5596 640.947848 275.757088 640.557307 273.023489 640.741091 C 259.493326 640.71046 245.97082 640.748749 232.448314 640.71046 C 232.402371 652.32714 232.417685 663.94382 232.432999 675.552842 C 248.290933 675.529869 264.148866 675.552842 280.006799 675.529869 C 282.816969 675.476266 285.527596 675.996987 288.261194 676.617258 C 289.516965 681.441588 289.501651 686.327179 289.241308 691.258716 C 289.21068 692.751961 288.552166 694.291152 287.426566 695.278991 C 285.343825 696.488902 282.357541 696.358722 280.006799 696.442956 C 259.010926 696.381695 237.992082 696.419983 216.988551 696.419983 C 215.051296 696.320434 212.47084 696.419983 210.816898 695.24836 C 208.810728 693.571332 208.956213 690.3934 208.818385 688.011866 C 208.849014 652.702366 208.841356 617.316289 208.841356 581.999132 C 208.902613 577.680208 208.550385 573.231104 209.147642 568.942811 C 209.44627 566.806322 210.816898 565.359023 212.876668 564.807671 Z M 212.876668 564.807671 " transform="matrix(0.510145,0,0,0.51011,-72.019821,-58.645128)"/><path style="fill-rule:nonzero;fill:#000000;fill-opacity:1;stroke-width:13.333333;stroke-linecap:butt;stroke-linejoin:miter;stroke:#516c75;stroke-opacity:1;stroke-miterlimit:4;" d="M 739.450409 570.627497 C 743.432121 569.93065 747.949833 569.900019 751.066288 572.871194 C 757.031199 577.550028 756.801485 588.247788 750.537946 592.582027 C 744.450521 597.092393 735.016926 594.886985 731.8775 587.88022 C 728.431788 581.34823 732.329271 572.511283 739.450409 570.627497 Z M 739.450409 570.627497 " transform="matrix(0.510145,0,0,0.51011,-72.019821,-58.645128)"/><path style="fill-rule:nonzero;fill:#000000;fill-opacity:1;stroke-width:13.333333;stroke-linecap:butt;stroke-linejoin:miter;stroke:#516c75;stroke-opacity:1;stroke-miterlimit:4;" d="M 456.021437 600.009963 C 464.987946 601.380686 472.790569 606.028889 478.793766 612.767636 C 479.199594 609.850065 477.989766 603.99195 481.626907 602.881588 C 486.22119 601.947353 491.228958 602.330236 495.892156 602.529336 C 498.112726 602.659516 499.460382 603.823481 500.042325 605.967628 C 500.639581 608.877541 500.409867 612.0325 500.440496 615.003674 C 500.34861 637.999646 500.471124 661.003276 500.356267 683.999249 C 499.988725 692.721331 498.977982 702.117287 495.057528 710.019999 C 490.409645 720.143434 481.098564 727.816416 470.837999 731.798402 C 453.563495 738.230842 433.088308 736.653363 417.559631 726.461009 C 415.277804 724.753349 412.819863 723.283077 413.210377 720.020911 C 413.861233 715.357392 417.306946 710.862342 419.97163 707.102428 C 423.761913 707.967744 426.939626 709.920449 430.423623 711.536217 C 436.90922 714.660545 443.823615 716.069555 451.013668 715.717303 C 459.260406 715.311446 468.311144 712.187119 473.150455 705.119092 C 477.553309 698.931698 477.737081 690.03349 477.859595 682.728076 C 473.801312 686.648801 469.383143 690.002859 464.007832 691.90196 C 449.191269 697.361876 430.630366 693.96953 419.496887 682.483031 C 410.783064 673.546534 406.479752 661.370844 406.211752 649.003713 C 405.813581 639.523522 407.429237 630.119908 411.740206 621.619898 C 415.966946 613.678898 422.812428 606.672133 431.12808 603.057715 C 438.86179 599.558161 447.682813 598.899602 456.021437 600.009963 Z M 449.520526 618.901426 C 443.272301 619.506382 437.422248 622.538818 433.700879 627.661797 C 429.221453 633.627119 428.287282 641.759561 428.593567 649.011371 C 428.777339 656.117685 430.561452 663.063189 435.821906 668.140221 C 441.901674 674.128517 450.891154 675.499239 459.038349 674.166805 C 465.05686 672.956894 471.259142 669.939773 474.612968 664.579407 C 478.066338 659.341563 478.870337 652.143356 478.91628 646.009565 C 478.632966 638.880278 477.652852 630.992882 472.216284 625.778011 C 466.251373 619.483409 457.813207 618.158633 449.520526 618.901426 Z M 449.520526 618.901426 " transform="matrix(0.510145,0,0,0.51011,-72.019821,-58.645128)"/><path style="fill-rule:nonzero;fill:#000000;fill-opacity:1;stroke-width:13.333333;stroke-linecap:butt;stroke-linejoin:miter;stroke:#516c75;stroke-opacity:1;stroke-miterlimit:4;" d="M 576.253822 601.671677 C 587.578729 605.523483 597.012323 614.368088 601.530035 625.448731 C 604.899176 633.550542 605.87929 642.372174 605.350947 651.078941 C 605.190147 653.123538 604.018605 655.106873 601.851635 655.428495 C 597.617237 655.910928 593.260326 655.566333 589.002957 655.627594 C 571.866281 655.658225 554.737263 655.558676 537.623559 655.696513 C 538.603673 660.383005 539.522529 664.809137 542.049385 668.951934 C 545.242412 674.38122 550.640694 678.202395 556.697491 679.749244 C 563.006972 681.53348 569.959654 680.323569 575.96285 677.95735 C 581.629133 675.728969 586.001359 672.122208 591.223527 669.143376 C 595.526839 672.382569 598.949579 676.24969 599.998607 681.701949 C 595.511524 687.238441 590.350613 691.886645 583.75016 694.773585 C 572.249138 699.84296 559.163089 700.922691 547.217953 696.710975 C 536.161046 693.01998 526.788708 685.040691 521.168369 674.848337 C 514.950773 663.637514 514.322887 651.270382 515.900258 638.788386 C 518.189742 626.620354 524.69831 615.103224 534.989504 607.981594 C 546.651325 599.412665 562.578173 597.337438 576.253822 601.671677 Z M 537.80733 639.753252 C 553.320693 639.937036 568.826398 639.79154 584.33976 639.829829 C 583.58936 633.389731 582.142161 627.340175 577.287535 622.707287 C 573.221595 618.618093 567.662513 617.063586 561.99623 617.262686 C 555.60252 617.11719 549.629952 619.636562 545.257726 624.300081 C 541.030986 628.703239 539.346415 634.002345 537.80733 639.753252 Z M 537.80733 639.753252 " transform="matrix(0.510145,0,0,0.51011,-72.019821,-58.645128)"/><path style="fill-rule:nonzero;fill:#000000;fill-opacity:1;stroke-width:13.333333;stroke-linecap:butt;stroke-linejoin:miter;stroke:#516c75;stroke-opacity:1;stroke-miterlimit:4;" d="M 684.548728 600.599604 C 692.940952 602.667174 700.33009 608.088801 704.411345 615.746468 C 707.282772 621.336564 708.768256 627.707743 708.630428 634.002345 C 708.576828 652.342456 708.576828 670.690224 708.638085 689.037993 C 708.538542 690.829887 708.768256 693.073583 707.550771 694.52854 C 706.157172 696.550164 703.163231 696.259172 700.996261 696.419983 C 697.098778 696.381695 692.887352 696.741605 689.089411 695.792055 C 686.057184 694.811873 686.210327 691.649257 686.103127 689.030335 C 686.118441 672.351938 686.217984 655.650567 686.110784 638.97217 C 685.896384 631.95009 683.851929 624.269451 676.868618 621.15278 C 668.078224 617.392866 655.849774 618.863138 649.279949 626.260444 C 645.527952 630.2118 643.460524 635.541536 643.422239 640.978479 C 643.322696 658.75958 643.521781 676.563654 643.322696 694.337098 C 641.27824 695.309622 639.371612 696.289803 637.036185 696.351064 C 631.53836 696.458272 626.408077 697.132146 621.438595 694.367729 C 621.270138 666.24112 621.461566 638.106854 621.339052 609.972587 C 621.42328 608.379793 621.277795 606.503665 621.913337 605.002762 C 622.901108 603.53249 624.332993 602.636543 626.109449 602.521678 C 629.953332 602.230687 634.019273 602.25366 637.863156 602.506363 C 639.631955 602.690147 641.362468 603.17258 642.089896 604.972131 C 642.96281 607.652314 642.579953 610.860877 642.518696 613.663583 C 653.169776 602.391498 669.349309 597.000501 684.548728 600.599604 Z M 684.548728 600.599604 " transform="matrix(0.510145,0,0,0.51011,-72.019821,-58.645128)"/><path style="fill-rule:nonzero;fill:#000000;fill-opacity:1;stroke-width:13.333333;stroke-linecap:butt;stroke-linejoin:miter;stroke:#516c75;stroke-opacity:1;stroke-miterlimit:4;" d="M 819.046362 599.772576 C 830.363612 600.668523 841.267377 607.391954 846.259831 617.737461 C 849.047029 623.64918 850.042457 630.510449 850.256857 636.988834 C 850.272172 653.996512 850.210914 670.996531 850.3028 688.011866 C 850.387029 691.097905 849.621315 693.571332 848.24303 696.282145 C 841.879948 696.343407 835.869094 696.963678 829.597898 695.44746 C 828.931727 691.848357 828.640756 688.433037 828.702013 684.772673 C 823.763159 691.687546 816.381678 696.159623 808.173225 698.112328 C 794.107062 702.071341 776.457359 695.24836 770.408219 681.518165 C 765.086508 668.798781 769.81862 650.971733 783.011869 645.006411 C 796.327632 638.750098 810.860881 641.36902 824.942358 637.961358 C 826.251729 637.632078 827.461557 637.149645 828.479956 636.230726 C 828.87047 631.528918 827.737214 626.091975 824.406358 622.577106 C 821.948417 620.157284 818.487391 618.702327 815.072307 618.380705 C 807.507054 617.913587 800.393573 617.890614 793.517463 621.497375 C 790.110036 622.99062 786.878724 626.122606 783.210955 626.712246 C 780.753013 626.467201 778.8081 623.312242 777.468101 621.48206 C 775.706959 618.740615 773.601246 615.01899 775.852445 611.948265 C 779.466614 607.491503 785.439182 604.596906 790.753236 602.690147 C 799.97243 599.343746 809.367739 599.136989 819.046362 599.772576 Z M 828.686699 651.140202 C 820.501218 654.142007 812.170252 653.751466 803.716771 655.229396 C 798.586488 656.247865 792.889577 658.246516 790.806836 663.553279 C 789.053351 667.596527 790.048779 672.022658 792.50672 675.529869 C 795.63849 679.626721 800.891287 681.809156 805.990941 681.686633 C 812.101337 681.786183 818.250019 678.807351 822.591617 674.61095 C 825.493672 671.762298 828.173671 668.262744 828.518242 664.066343 C 828.862813 659.77805 828.610127 655.443811 828.686699 651.140202 Z M 828.686699 651.140202 " transform="matrix(0.510145,0,0,0.51011,-72.019821,-58.645128)"/><path style="fill-rule:nonzero;fill:#000000;fill-opacity:1;stroke-width:13.333333;stroke-linecap:butt;stroke-linejoin:miter;stroke:#516c75;stroke-opacity:1;stroke-miterlimit:4;" d="M 310.926324 602.376182 C 316.240378 602.406813 321.676946 601.679335 326.493286 604.0915 C 326.837857 617.70683 326.531571 631.368107 326.631114 644.998754 C 326.799571 652.633447 325.873058 659.601923 328.308028 666.953283 C 330.130426 672.727164 335.008024 677.130322 340.980591 678.263656 C 345.429389 678.983477 350.199786 678.77672 354.487783 677.291133 C 362.680921 674.358247 368.936803 666.999229 368.768346 658.032102 C 368.753032 640.128478 368.760689 622.293773 368.768346 604.390149 C 370.766859 603.43294 372.650515 602.491047 374.932342 602.422128 C 380.353596 602.307263 385.422622 601.618073 390.292562 604.367176 C 390.43039 634.048291 390.277248 663.729406 390.369133 693.418178 C 389.549819 694.383044 388.730506 695.34791 387.911192 696.320434 C 381.877367 696.289803 376.172799 696.848813 370.223202 695.539352 C 369.388574 692.667727 368.867889 689.842048 368.546289 686.870873 C 358.561381 697.698814 342.289962 701.65017 328.231456 697.821336 C 321.217518 696.159623 314.86975 692.269528 310.69661 686.319521 C 306.232498 679.887082 304.509642 671.746982 304.479013 664.020397 C 304.471356 647.678937 304.509642 631.337477 304.440728 615.003674 C 304.471356 611.856373 304.188042 608.563577 304.762327 605.46988 C 305.489756 602.697804 308.560268 602.491047 310.926324 602.376182 Z M 310.926324 602.376182 " transform="matrix(0.510145,0,0,0.51011,-72.019821,-58.645128)"/><path style="fill-rule:nonzero;fill:#000000;fill-opacity:1;stroke-width:13.333333;stroke-linecap:butt;stroke-linejoin:miter;stroke:#516c75;stroke-opacity:1;stroke-miterlimit:4;" d="M 750.377146 602.559966 C 751.349602 603.463571 752.322059 604.35186 753.302173 605.247807 C 753.47063 635.059103 753.462972 664.878056 753.286858 694.689351 C 751.257717 695.508721 749.266861 696.26683 747.038633 696.343407 C 741.517837 696.442956 736.563668 697.308273 731.6631 694.229891 C 731.647786 664.303731 731.578871 634.369913 731.693728 604.443752 C 736.892925 601.189244 744.427549 602.621228 750.377146 602.559966 Z M 750.377146 602.559966 " transform="matrix(0.510145,0,0,0.51011,-72.019821,-58.645128)"/><path style="fill-rule:nonzero;fill:#000000;fill-opacity:1;stroke-width:13.333333;stroke-linecap:butt;stroke-linejoin:miter;stroke:#ffffff;stroke-opacity:1;stroke-miterlimit:4;" d="M 561.99623 617.262686 C 567.662513 617.063586 573.221595 618.618093 577.287535 622.707287 C 582.142161 627.340175 583.58936 633.389731 584.33976 639.829829 C 568.826398 639.79154 553.320693 639.937036 537.80733 639.753252 C 539.346415 634.002345 541.030986 628.703239 545.257726 624.300081 C 549.629952 619.636562 555.60252 617.11719 561.99623 617.262686 Z M 561.99623 617.262686 " transform="matrix(0.510145,0,0,0.51011,-72.019821,-58.645128)"/><path style="fill-rule:nonzero;fill:#000000;fill-opacity:1;stroke-width:13.333333;stroke-linecap:butt;stroke-linejoin:miter;stroke:#ffffff;stroke-opacity:1;stroke-miterlimit:4;" d="M 449.520526 618.901426 C 457.813207 618.158633 466.251373 619.483409 472.216284 625.778011 C 477.652852 630.992882 478.632966 638.880278 478.91628 646.009565 C 478.870337 652.143356 478.066338 659.341563 474.612968 664.579407 C 471.259142 669.939773 465.05686 672.956894 459.038349 674.166805 C 450.891154 675.499239 441.901674 674.128517 435.821906 668.140221 C 430.561452 663.063189 428.777339 656.117685 428.593567 649.011371 C 428.287282 641.759561 429.221453 633.627119 433.700879 627.661797 C 437.422248 622.538818 443.272301 619.506382 449.520526 618.901426 Z M 449.520526 618.901426 " transform="matrix(0.510145,0,0,0.51011,-72.019821,-58.645128)"/><path style="fill-rule:nonzero;fill:#000000;fill-opacity:1;stroke-width:13.333333;stroke-linecap:butt;stroke-linejoin:miter;stroke:#ffffff;stroke-opacity:1;stroke-miterlimit:4;" d="M 828.686699 651.140202 C 828.610127 655.443811 828.862813 659.77805 828.518242 664.066343 C 828.173671 668.262744 825.493672 671.762298 822.591617 674.61095 C 818.250019 678.807351 812.101337 681.786183 805.990941 681.686633 C 800.891287 681.809156 795.63849 679.626721 792.50672 675.529869 C 790.048779 672.022658 789.053351 667.596527 790.806836 663.553279 C 792.889577 658.246516 798.586488 656.247865 803.716771 655.229396 C 812.170252 653.751466 820.501218 654.142007 828.686699 651.140202 Z M 828.686699 651.140202 " transform="matrix(0.510145,0,0,0.51011,-72.019821,-58.645128)"/><path style=" stroke:none;fill-rule:nonzero;fill:#ffffff;fill-opacity:1;" d="M -72.019531 -58.644531 L 455.980469 -58.644531 L 455.980469 458.097656 L -72.019531 458.097656 Z M 75.089844 176.148438 C 75.226562 177.054688 74.972656 178.066406 74.757812 178.949219 C 72.199219 187.710938 69.789062 196.527344 67.332031 205.320312 C 66.917969 206.996094 66.339844 209.007812 66.855469 210.699219 C 67.53125 213.289062 70.179688 215.234375 72.871094 214.9375 C 75.554688 214.644531 78.191406 213.328125 80.761719 212.515625 C 87.59375 210.292969 94.378906 208.007812 101.050781 205.347656 C 102.277344 204.9375 103.867188 204.210938 105.164062 204.546875 C 107.449219 205.230469 109.554688 206.589844 111.753906 207.53125 C 120.636719 211.375 130.039062 213.910156 139.679688 214.851562 C 145.5 215.261719 151.195312 215.875 157.03125 215.136719 C 170.839844 214.152344 184.34375 210.105469 196.21875 202.949219 C 213.253906 192.863281 227.34375 176.445312 233.113281 157.355469 C 237.1875 143.828125 237.425781 129.203125 233.46875 115.613281 C 230.699219 105.777344 225.683594 96.785156 219.191406 88.929688 C 212.039062 80.578125 203.414062 73.550781 193.6875 68.394531 C 181.757812 61.96875 168.5 58.460938 155 57.582031 C 142.347656 57.089844 129.707031 58.398438 117.730469 62.648438 C 105.597656 66.929688 94.042969 73.859375 85.0625 83.125 C 72.464844 95.367188 64.484375 112.183594 63.269531 129.734375 C 62.59375 136.023438 63.214844 142.511719 64.265625 148.730469 C 65.90625 157.148438 68.789062 165.636719 73.453125 172.882812 C 74.054688 173.902344 74.800781 174.988281 75.089844 176.148438 Z M 215.726562 236.148438 C 216.425781 238.074219 217.011719 240.253906 218.15625 241.96875 C 218.546875 242.59375 219.125 242.503906 219.773438 242.59375 C 221.707031 242.695312 223.65625 242.605469 225.582031 242.542969 C 225.261719 239.484375 224.425781 236.46875 223.625 233.5 C 223.160156 230.917969 220.3125 229.015625 217.757812 229.246094 C 215.3125 229.296875 212.761719 229.046875 210.355469 229.417969 C 208.742188 230.554688 207.632812 232.515625 206.375 234.03125 C 205.183594 235.699219 203.503906 237.308594 202.757812 239.234375 C 202.6875 240.175781 202.386719 241.871094 203.316406 242.457031 C 205.191406 242.789062 207.203125 242.675781 209.101562 242.589844 C 210.15625 242.589844 210.71875 241.773438 211.410156 241.09375 C 212.871094 239.46875 214.242188 237.757812 215.726562 236.148438 Z M 75.035156 286.503906 C 73.640625 286.1875 72.257812 285.921875 70.824219 285.949219 C 62.734375 285.960938 54.644531 285.949219 46.554688 285.960938 C 46.546875 280.039062 46.539062 274.113281 46.5625 268.1875 C 53.460938 268.207031 60.359375 268.1875 67.261719 268.203125 C 68.65625 268.109375 70.085938 268.308594 70.703125 266.75 C 71.015625 264.523438 70.984375 261.96875 70.753906 259.734375 C 70.40625 257.945312 68.738281 257.953125 67.261719 257.882812 C 60.363281 257.886719 53.457031 257.867188 46.554688 257.914062 C 46.582031 252.066406 46.578125 246.21875 46.554688 240.371094 C 53.113281 240.300781 59.664062 240.070312 66.230469 240.203125 C 68.515625 240.136719 70.898438 240.390625 73.148438 240.003906 C 74.285156 239.765625 74.808594 238.820312 74.925781 237.734375 C 75.117188 235.4375 74.957031 233.113281 75.003906 230.8125 C 72.414062 228.714844 69.8125 229.425781 66.738281 229.332031 C 58.410156 229.332031 50.074219 229.351562 41.742188 229.320312 C 40.039062 229.335938 38.269531 229.199219 36.578125 229.46875 C 35.527344 229.75 34.828125 230.488281 34.675781 231.578125 C 34.371094 233.765625 34.550781 236.035156 34.519531 238.238281 C 34.519531 256.253906 34.523438 274.304688 34.507812 292.316406 C 34.578125 293.53125 34.503906 295.152344 35.527344 296.007812 C 36.371094 296.605469 37.6875 296.554688 38.675781 296.605469 C 49.390625 296.605469 60.113281 296.585938 70.824219 296.617188 C 72.023438 296.574219 73.546875 296.640625 74.609375 296.023438 C 75.183594 295.519531 75.519531 294.734375 75.535156 293.972656 C 75.667969 291.457031 75.675781 288.964844 75.035156 286.503906 Z M 305.207031 232.4375 C 301.574219 233.398438 299.585938 237.90625 301.34375 241.238281 C 302.945312 244.8125 307.757812 245.9375 310.863281 243.636719 C 314.058594 241.425781 314.175781 235.96875 311.132812 233.582031 C 309.542969 232.066406 307.238281 232.082031 305.207031 232.4375 Z M 171.757812 289.621094 C 171.695312 293.347656 171.601562 297.886719 169.355469 301.042969 C 166.886719 304.648438 162.269531 306.242188 158.0625 306.449219 C 154.394531 306.628906 150.867188 305.910156 147.558594 304.316406 C 145.78125 303.492188 144.160156 302.496094 142.226562 302.054688 C 140.867188 303.972656 139.109375 306.265625 138.777344 308.644531 C 138.578125 310.308594 139.832031 311.058594 140.996094 311.929688 C 148.917969 317.128906 159.363281 317.933594 168.175781 314.652344 C 173.410156 312.621094 178.160156 308.707031 180.53125 303.542969 C 182.53125 299.511719 183.046875 294.71875 183.234375 290.269531 C 183.292969 278.539062 183.230469 266.804688 183.277344 255.074219 C 183.261719 253.558594 183.378906 251.949219 183.074219 250.464844 C 182.777344 249.371094 182.089844 248.777344 180.957031 248.710938 C 178.578125 248.609375 176.023438 248.414062 173.679688 248.890625 C 171.824219 249.457031 172.441406 252.445312 172.234375 253.933594 C 169.171875 250.496094 165.191406 248.125 160.617188 247.425781 C 156.363281 246.859375 151.863281 247.195312 147.917969 248.980469 C 143.675781 250.824219 140.183594 254.398438 138.027344 258.449219 C 135.828125 262.785156 135.003906 267.582031 135.207031 272.417969 C 135.34375 278.726562 137.539062 284.9375 141.984375 289.496094 C 147.664062 295.355469 157.132812 297.085938 164.691406 294.300781 C 167.433594 293.332031 169.6875 291.621094 171.757812 289.621094 Z M 234.066406 289.097656 C 233.53125 286.316406 231.785156 284.34375 229.589844 282.691406 C 226.925781 284.210938 224.695312 286.050781 221.804688 287.1875 C 218.742188 288.394531 215.195312 289.011719 211.976562 288.101562 C 208.886719 287.3125 206.132812 285.363281 204.503906 282.59375 C 203.214844 280.480469 202.746094 278.222656 202.246094 275.832031 C 210.976562 275.761719 219.714844 275.8125 228.457031 275.796875 C 230.628906 275.765625 232.851562 275.941406 235.011719 275.695312 C 236.117188 275.53125 236.714844 274.519531 236.796875 273.476562 C 237.066406 269.035156 236.566406 264.535156 234.847656 260.402344 C 232.542969 254.75 227.730469 250.238281 221.953125 248.273438 C 214.976562 246.0625 206.851562 247.121094 200.902344 251.492188 C 195.652344 255.125 192.332031 261 191.164062 267.207031 C 190.359375 273.574219 190.679688 279.882812 193.851562 285.601562 C 196.71875 290.800781 201.5 294.871094 207.140625 296.753906 C 213.234375 298.902344 219.910156 298.351562 225.777344 295.765625 C 229.144531 294.292969 231.777344 291.921875 234.066406 289.097656 Z M 255.757812 254.390625 C 255.789062 252.960938 255.984375 251.324219 255.539062 249.957031 C 255.167969 249.039062 254.285156 248.792969 253.382812 248.699219 C 251.421875 248.570312 249.347656 248.558594 247.386719 248.707031 C 246.480469 248.765625 245.75 249.222656 245.246094 249.972656 C 244.921875 250.738281 244.996094 251.695312 244.953125 252.507812 C 245.015625 266.859375 244.917969 281.210938 245.003906 295.558594 C 247.539062 296.96875 250.15625 296.625 252.960938 296.570312 C 254.152344 296.539062 255.125 296.039062 256.167969 295.542969 C 256.269531 286.476562 256.167969 277.394531 256.21875 268.324219 C 256.238281 265.550781 257.292969 262.832031 259.207031 260.816406 C 262.558594 257.042969 268.796875 256.292969 273.28125 258.210938 C 276.84375 259.800781 277.886719 263.71875 277.996094 267.300781 C 278.050781 275.808594 278 284.328125 277.992188 292.835938 C 278.046875 294.171875 277.96875 295.785156 279.515625 296.285156 C 281.453125 296.769531 283.601562 296.585938 285.589844 296.605469 C 286.695312 296.523438 288.222656 296.671875 288.933594 295.640625 C 289.554688 294.898438 289.4375 293.753906 289.488281 292.839844 C 289.457031 283.480469 289.457031 274.121094 289.484375 264.765625 C 289.554688 261.554688 288.796875 258.304688 287.332031 255.453125 C 285.25 251.546875 281.480469 248.78125 277.199219 247.726562 C 269.445312 245.890625 261.191406 248.640625 255.757812 254.390625 Z M 350.738281 290.664062 C 350.707031 292.53125 350.855469 294.273438 351.195312 296.109375 C 354.394531 296.882812 357.460938 296.566406 360.707031 296.535156 C 361.410156 295.152344 361.800781 293.890625 361.757812 292.316406 C 361.710938 283.636719 361.742188 274.964844 361.734375 266.289062 C 361.625 262.984375 361.117188 259.484375 359.695312 256.46875 C 357.148438 251.191406 351.585938 247.761719 345.8125 247.304688 C 340.875 246.980469 336.082031 247.085938 331.378906 248.792969 C 328.667969 249.765625 325.621094 251.242188 323.777344 253.515625 C 322.628906 255.082031 323.703125 256.980469 324.601562 258.378906 C 325.285156 259.3125 326.277344 260.921875 327.53125 261.046875 C 329.402344 260.746094 331.050781 259.148438 332.789062 258.386719 C 336.296875 256.546875 339.925781 256.558594 343.785156 256.796875 C 345.527344 256.960938 347.292969 257.703125 348.546875 258.9375 C 350.246094 260.730469 350.824219 263.503906 350.625 265.902344 C 350.105469 266.371094 349.488281 266.617188 348.820312 266.785156 C 341.636719 268.523438 334.222656 267.1875 327.429688 270.378906 C 320.699219 273.421875 318.285156 282.515625 321 289.003906 C 324.085938 296.007812 333.089844 299.488281 340.265625 297.46875 C 344.453125 296.472656 348.21875 294.191406 350.738281 290.664062 Z M 115.992188 291.734375 C 116.15625 293.25 116.421875 294.691406 116.847656 296.15625 C 119.882812 296.824219 122.792969 296.539062 125.871094 296.554688 C 126.289062 296.058594 126.707031 295.566406 127.125 295.074219 C 127.078125 279.929688 127.15625 264.789062 127.085938 249.648438 C 124.601562 248.246094 122.015625 248.597656 119.25 248.65625 C 118.085938 248.691406 117.125 249.171875 116.105469 249.660156 C 116.101562 258.792969 116.097656 267.890625 116.105469 277.023438 C 116.191406 281.597656 113 285.351562 108.820312 286.847656 C 106.632812 287.605469 104.199219 287.710938 101.929688 287.34375 C 98.882812 286.765625 96.394531 284.519531 95.464844 281.574219 C 94.222656 277.824219 94.695312 274.269531 94.609375 270.375 C 94.558594 263.421875 94.714844 256.453125 94.539062 249.507812 C 92.082031 248.277344 89.308594 248.648438 86.597656 248.632812 C 85.390625 248.691406 83.824219 248.796875 83.453125 250.210938 C 83.160156 251.789062 83.304688 253.46875 83.289062 255.074219 C 83.324219 263.40625 83.304688 271.742188 83.308594 280.078125 C 83.324219 284.019531 84.203125 288.171875 86.480469 291.453125 C 88.609375 294.488281 91.847656 296.472656 95.425781 297.320312 C 102.597656 299.273438 110.898438 297.257812 115.992188 291.734375 Z M 301.25 249.6875 C 301.191406 264.953125 301.226562 280.222656 301.234375 295.488281 C 303.734375 297.058594 306.261719 296.617188 309.078125 296.566406 C 310.214844 296.527344 311.230469 296.140625 312.265625 295.722656 C 312.355469 280.515625 312.359375 265.304688 312.273438 250.097656 C 311.773438 249.640625 311.277344 249.1875 310.78125 248.726562 C 307.746094 248.757812 303.902344 248.027344 301.25 249.6875 Z M 301.25 249.6875 "/><path style=" stroke:none;fill-rule:nonzero;fill:#95e6ad;fill-opacity:1;" d="M 155 57.582031 C 168.5 58.460938 181.757812 61.96875 193.6875 68.394531 C 203.414062 73.550781 212.039062 80.578125 219.191406 88.929688 C 225.683594 96.785156 230.699219 105.777344 233.46875 115.613281 C 237.425781 129.203125 237.1875 143.828125 233.113281 157.355469 C 227.34375 176.445312 213.253906 192.863281 196.21875 202.949219 C 184.34375 210.105469 170.839844 214.152344 157.03125 215.136719 C 151.195312 215.875 145.5 215.261719 139.679688 214.851562 C 130.039062 213.910156 120.636719 211.375 111.753906 207.53125 C 109.554688 206.589844 107.449219 205.230469 105.164062 204.546875 C 103.867188 204.210938 102.277344 204.9375 101.050781 205.347656 C 94.378906 208.007812 87.59375 210.292969 80.761719 212.515625 C 78.191406 213.328125 75.554688 214.644531 72.871094 214.9375 C 70.179688 215.234375 67.53125 213.289062 66.855469 210.699219 C 66.339844 209.007812 66.917969 206.996094 67.332031 205.320312 C 69.789062 196.527344 72.199219 187.710938 74.757812 178.949219 C 74.972656 178.066406 75.226562 177.054688 75.089844 176.148438 C 74.800781 174.988281 74.054688 173.902344 73.453125 172.882812 C 68.789062 165.636719 65.90625 157.148438 64.265625 148.730469 C 63.214844 142.511719 62.59375 136.023438 63.269531 129.734375 C 64.484375 112.183594 72.464844 95.367188 85.0625 83.125 C 94.042969 73.859375 105.597656 66.929688 117.730469 62.648438 C 129.707031 58.398438 142.347656 57.089844 155 57.582031 Z M 82.789062 198.007812 C 87.597656 196.523438 92.328125 194.738281 97.042969 192.972656 C 99.691406 191.996094 102.675781 190.402344 105.519531 190.40625 C 107.804688 190.355469 109.832031 191.835938 111.804688 192.84375 C 123.519531 199.015625 136.648438 202.277344 149.894531 202.234375 C 163.203125 202.085938 176.386719 198.910156 187.964844 192.257812 C 200.820312 185.050781 211.457031 174.167969 217.722656 160.769531 C 225.390625 144.574219 224.945312 124.714844 216.578125 108.871094 C 209.671875 96.1875 198.785156 86.25 185.976562 79.710938 C 176.355469 74.824219 165.785156 71.808594 154.996094 71.1875 C 150.917969 71.070312 146.816406 71.039062 142.742188 71.265625 C 126.5625 72.566406 110.578125 78.503906 98.132812 89.050781 C 86.257812 99.082031 78.042969 113.460938 76.691406 129.054688 C 76.492188 133.136719 76.527344 137.257812 76.671875 141.339844 C 77.269531 150.183594 80.207031 158.660156 84.667969 166.292969 C 85.875 168.398438 87.640625 170.210938 88.675781 172.398438 C 89.378906 174.203125 88.796875 176.59375 88.34375 178.414062 C 86.546875 184.960938 84.628906 191.464844 82.789062 198.007812 Z M 82.789062 198.007812 "/><path style=" stroke:none;fill-rule:nonzero;fill:#ffffff;fill-opacity:1;" d="M 142.742188 71.265625 C 146.816406 71.039062 150.917969 71.070312 154.996094 71.1875 C 165.785156 71.808594 176.355469 74.824219 185.976562 79.710938 C 198.785156 86.25 209.671875 96.1875 216.578125 108.871094 C 224.945312 124.714844 225.390625 144.574219 217.722656 160.769531 C 211.457031 174.167969 200.820312 185.050781 187.964844 192.257812 C 176.386719 198.910156 163.203125 202.085938 149.894531 202.234375 C 136.648438 202.277344 123.519531 199.015625 111.804688 192.84375 C 109.832031 191.835938 107.804688 190.355469 105.519531 190.40625 C 102.675781 190.402344 99.691406 191.996094 97.042969 192.972656 C 92.328125 194.738281 87.597656 196.523438 82.789062 198.007812 C 84.628906 191.464844 86.546875 184.960938 88.34375 178.414062 C 88.796875 176.59375 89.378906 174.203125 88.675781 172.398438 C 87.640625 170.210938 85.875 168.398438 84.667969 166.292969 C 80.207031 158.660156 77.269531 150.183594 76.671875 141.339844 C 76.527344 137.257812 76.492188 133.136719 76.691406 129.054688 C 78.042969 113.460938 86.257812 99.082031 98.132812 89.050781 C 110.578125 78.503906 126.5625 72.566406 142.742188 71.265625 Z M 104.925781 108.714844 C 102.234375 110.449219 99.695312 112.078125 97.898438 114.8125 C 95.433594 118.265625 94.542969 122.347656 94.945312 126.546875 C 95.125 129.371094 96.414062 131.527344 97.714844 133.945312 C 95.910156 136.394531 94.40625 138.914062 93.972656 141.984375 C 92.972656 147.269531 94.539062 152.8125 98.394531 156.59375 C 100.574219 158.84375 103.285156 159.808594 106.214844 160.695312 C 106.316406 163.21875 106.378906 165.597656 107.285156 167.992188 C 108.90625 172.597656 112.980469 176.085938 117.375 177.96875 C 121.734375 179.71875 126.21875 178.917969 130.574219 177.671875 C 132.492188 179.011719 134.378906 180.4375 136.6875 181.003906 C 140.734375 181.96875 145.328125 180.980469 148.335938 178.015625 C 150.828125 175.402344 152.027344 171.933594 152.105469 168.359375 C 152.277344 148.117188 152.316406 127.890625 152.34375 107.652344 C 152.296875 104.183594 152.761719 100.148438 151.382812 96.914062 C 149.679688 92.6875 145.984375 89.324219 141.484375 88.367188 C 138.628906 87.78125 135.371094 87.71875 132.625 88.800781 C 130.394531 89.695312 129.167969 91.449219 127.261719 92.710938 C 126.839844 93 126.210938 92.910156 125.722656 92.902344 C 123.507812 92.734375 121.46875 92.433594 119.273438 93.03125 C 114.964844 94.09375 111.167969 97.46875 108.4375 100.847656 C 106.550781 103.15625 105.648438 105.867188 104.925781 108.714844 Z M 161.386719 144.34375 C 162.886719 145.441406 164.386719 146.167969 166.265625 146.332031 C 170.328125 146.777344 174.269531 147.351562 177.773438 149.636719 C 180.34375 151.289062 182.160156 153.800781 184.523438 155.585938 C 185.617188 156.421875 187.144531 156.699219 188.230469 155.683594 C 190.179688 153.851562 191.25 151.378906 193.480469 149.710938 C 196.371094 147.460938 199.613281 146.945312 203.070312 146.125 C 204.375 145.777344 205.738281 145.570312 206.570312 144.382812 C 207.160156 143.375 207.152344 141.949219 207.203125 140.808594 C 207.203125 131.625 207.15625 122.445312 207.214844 113.261719 C 207.183594 111.882812 207.21875 110.28125 206.6875 108.992188 C 206.070312 107.769531 204.851562 107.144531 203.523438 106.988281 C 197.996094 106.488281 192.769531 108.175781 188.160156 111.15625 C 185.925781 107.378906 183.40625 103.90625 179.859375 101.253906 C 176.203125 98.25 171.808594 96.339844 167.203125 95.367188 C 165.710938 95.136719 163.9375 94.898438 162.714844 95.984375 C 161.617188 96.902344 161.480469 98.667969 161.425781 99.988281 C 161.425781 114.773438 161.484375 129.566406 161.386719 144.34375 Z M 173.359375 169.601562 C 178.460938 169.613281 183.5625 169.582031 188.664062 169.648438 C 190.269531 169.632812 192.078125 169.714844 193.609375 169.195312 C 195.679688 168.589844 195.734375 165.058594 193.714844 164.328125 C 192.496094 163.828125 190.984375 163.894531 189.683594 163.855469 C 182.882812 163.902344 176.078125 163.902344 169.277344 163.847656 C 167.835938 163.890625 166.144531 163.808594 164.789062 164.375 C 163.300781 164.945312 163.15625 167.023438 163.734375 168.28125 C 164.207031 169.261719 165.191406 169.414062 166.171875 169.546875 C 168.550781 169.75 170.972656 169.589844 173.359375 169.601562 Z M 183.5625 174.449219 C 179.214844 173.167969 175.242188 173.832031 170.808594 173.675781 C 168.957031 173.6875 166.917969 173.480469 165.117188 173.960938 C 163.273438 174.546875 162.898438 177.28125 164.160156 178.582031 C 165.34375 179.511719 167.34375 179.390625 168.769531 179.4375 C 172.175781 179.382812 175.585938 179.449219 178.992188 179.414062 C 180.195312 179.351562 181.996094 179.304688 182.882812 178.382812 C 183.523438 177.28125 183.40625 175.6875 183.5625 174.449219 Z M 183.5625 174.449219 "/><path style=" stroke:none;fill-rule:nonzero;fill:#89d8da;fill-opacity:1;" d="M 141.484375 88.367188 C 145.984375 89.324219 149.679688 92.6875 151.382812 96.914062 C 152.761719 100.148438 152.296875 104.183594 152.34375 107.652344 C 152.316406 127.890625 152.277344 148.117188 152.105469 168.359375 C 152.027344 171.933594 150.828125 175.402344 148.335938 178.015625 C 145.328125 180.980469 140.734375 181.96875 136.6875 181.003906 C 134.378906 180.4375 132.492188 179.011719 130.574219 177.671875 C 126.21875 178.917969 121.734375 179.71875 117.375 177.96875 C 112.980469 176.085938 108.90625 172.597656 107.285156 167.992188 C 106.378906 165.597656 106.316406 163.21875 106.214844 160.695312 C 103.285156 159.808594 100.574219 158.84375 98.394531 156.59375 C 94.539062 152.8125 92.972656 147.269531 93.972656 141.984375 C 94.40625 138.914062 95.910156 136.394531 97.714844 133.945312 C 96.414062 131.527344 95.125 129.371094 94.945312 126.546875 C 94.542969 122.347656 95.433594 118.265625 97.898438 114.8125 C 99.695312 112.078125 102.234375 110.449219 104.925781 108.714844 C 105.648438 105.867188 106.550781 103.15625 108.4375 100.847656 C 111.167969 97.46875 114.964844 94.09375 119.273438 93.03125 C 121.46875 92.433594 123.507812 92.734375 125.722656 92.902344 C 126.210938 92.910156 126.839844 93 127.261719 92.710938 C 129.167969 91.449219 130.394531 89.695312 132.625 88.800781 C 135.371094 87.71875 138.628906 87.78125 141.484375 88.367188 Z M 132.246094 96 C 133.894531 98.574219 135.890625 101.410156 135.253906 104.644531 C 134.757812 106.4375 132.472656 106.945312 131.019531 106.074219 C 129.589844 104.460938 129.226562 101.851562 127.710938 100.25 C 126.359375 98.835938 124.277344 98.105469 122.335938 98.203125 C 120.335938 98.382812 118.523438 99.535156 116.949219 100.707031 C 114.816406 102.351562 112.679688 104.269531 111.648438 106.824219 C 110.886719 108.625 110.820312 110.640625 110.121094 112.433594 C 109.597656 113.277344 108.355469 113.695312 107.527344 114.175781 C 102.378906 116.390625 99.148438 123.011719 101.277344 128.332031 C 101.917969 130.027344 103.210938 131.292969 104.996094 131.734375 C 107.710938 132.359375 110.050781 131.050781 112.640625 130.882812 C 113.878906 130.726562 114.871094 132.054688 114.886719 133.1875 C 115.074219 134.910156 113.488281 136.261719 112.117188 136.976562 C 109.347656 138.3125 106.351562 137.441406 103.460938 137.542969 C 102.34375 137.542969 101.585938 138.605469 101.019531 139.4375 C 98.066406 144.25 99.664062 151.101562 104.578125 153.957031 C 107.019531 155.207031 110.171875 155.121094 112.679688 154.105469 C 114.601562 153.351562 115.238281 151.078125 116.230469 149.445312 C 118.082031 145.867188 122.519531 143.507812 126.503906 144.285156 C 128.371094 144.746094 128.710938 146.984375 127.957031 148.484375 C 126.550781 150.019531 123.644531 149.886719 122.09375 151.25 C 120.75 152.847656 120.207031 155.035156 118.824219 156.652344 C 117.066406 158.828125 114.6875 159.667969 112.21875 160.773438 C 112.28125 162.894531 112.21875 164.820312 113.25 166.75 C 114.785156 169.574219 117.46875 172.128906 120.648438 172.910156 C 122.71875 173.359375 125.117188 172.898438 127.1875 172.550781 C 126.925781 169.625 126.550781 166.9375 127.734375 164.136719 C 128.496094 162.351562 129.855469 160.078125 131.792969 159.417969 C 133.621094 158.835938 135.664062 160.195312 135.363281 162.203125 C 134.832031 164.113281 133.074219 165.824219 132.742188 167.789062 C 132.277344 172.132812 136.847656 176.527344 141.210938 175.445312 C 143.746094 174.945312 145.59375 172.8125 146.007812 170.308594 C 146.417969 167.148438 146.070312 163.886719 146.234375 160.695312 C 146.703125 153.039062 146.46875 145.332031 146.511719 137.660156 C 142.949219 136.855469 139.023438 136.152344 136.375 133.402344 C 134.324219 131.289062 133.789062 128.734375 133.140625 125.96875 C 130.128906 124.949219 126.890625 124.566406 124.050781 123.28125 C 122.222656 122.367188 120.441406 120.953125 119.417969 119.164062 C 118.535156 117.558594 119.117188 115.441406 120.824219 114.691406 C 122.660156 114.363281 124.050781 115.878906 125.371094 116.890625 C 128.679688 119.863281 133.320312 118.667969 136.875 121.683594 C 139.492188 123.707031 138.90625 126.871094 140.527344 129.242188 C 141.996094 130.667969 144.59375 131.070312 146.5 131.625 C 146.59375 122.277344 146.492188 112.921875 146.59375 103.570312 C 146.566406 101.371094 146.617188 99.367188 145.269531 97.507812 C 143.148438 94.414062 139.261719 93.371094 135.707031 94.148438 C 134.476562 94.527344 133.339844 95.332031 132.246094 96 Z M 132.246094 96 "/><path style=" stroke:none;fill-rule:nonzero;fill:#ffffff;fill-opacity:1;" d="M 135.707031 94.148438 C 139.261719 93.371094 143.148438 94.414062 145.269531 97.507812 C 146.617188 99.367188 146.566406 101.371094 146.59375 103.570312 C 146.492188 112.921875 146.59375 122.277344 146.5 131.625 C 144.59375 131.070312 141.996094 130.667969 140.527344 129.242188 C 138.90625 126.871094 139.492188 123.707031 136.875 121.683594 C 133.320312 118.667969 128.679688 119.863281 125.371094 116.890625 C 124.050781 115.878906 122.660156 114.363281 120.824219 114.691406 C 119.117188 115.441406 118.535156 117.558594 119.417969 119.164062 C 120.441406 120.953125 122.222656 122.367188 124.050781 123.28125 C 126.890625 124.566406 130.128906 124.949219 133.140625 125.96875 C 133.789062 128.734375 134.324219 131.289062 136.375 133.402344 C 139.023438 136.152344 142.949219 136.855469 146.511719 137.660156 C 146.46875 145.332031 146.703125 153.039062 146.234375 160.695312 C 146.070312 163.886719 146.417969 167.148438 146.007812 170.308594 C 145.59375 172.8125 143.746094 174.945312 141.210938 175.445312 C 136.847656 176.527344 132.277344 172.132812 132.742188 167.789062 C 133.074219 165.824219 134.832031 164.113281 135.363281 162.203125 C 135.664062 160.195312 133.621094 158.835938 131.792969 159.417969 C 129.855469 160.078125 128.496094 162.351562 127.734375 164.136719 C 126.550781 166.9375 126.925781 169.625 127.1875 172.550781 C 125.117188 172.898438 122.71875 173.359375 120.648438 172.910156 C 117.46875 172.128906 114.785156 169.574219 113.25 166.75 C 112.21875 164.820312 112.28125 162.894531 112.21875 160.773438 C 114.6875 159.667969 117.066406 158.828125 118.824219 156.652344 C 120.207031 155.035156 120.75 152.847656 122.09375 151.25 C 123.644531 149.886719 126.550781 150.019531 127.957031 148.484375 C 128.710938 146.984375 128.371094 144.746094 126.503906 144.285156 C 122.519531 143.507812 118.082031 145.867188 116.230469 149.445312 C 115.238281 151.078125 114.601562 153.351562 112.679688 154.105469 C 110.171875 155.121094 107.019531 155.207031 104.578125 153.957031 C 99.664062 151.101562 98.066406 144.25 101.019531 139.4375 C 101.585938 138.605469 102.34375 137.542969 103.460938 137.542969 C 106.351562 137.441406 109.347656 138.3125 112.117188 136.976562 C 113.488281 136.261719 115.074219 134.910156 114.886719 133.1875 C 114.871094 132.054688 113.878906 130.726562 112.640625 130.882812 C 110.050781 131.050781 107.710938 132.359375 104.996094 131.734375 C 103.210938 131.292969 101.917969 130.027344 101.277344 128.332031 C 99.148438 123.011719 102.378906 116.390625 107.527344 114.175781 C 108.355469 113.695312 109.597656 113.277344 110.121094 112.433594 C 110.820312 110.640625 110.886719 108.625 111.648438 106.824219 C 112.679688 104.269531 114.816406 102.351562 116.949219 100.707031 C 118.523438 99.535156 120.335938 98.382812 122.335938 98.203125 C 124.277344 98.105469 126.359375 98.835938 127.710938 100.25 C 129.226562 101.851562 129.589844 104.460938 131.019531 106.074219 C 132.472656 106.945312 134.757812 106.4375 135.253906 104.644531 C 135.890625 101.410156 133.894531 98.574219 132.246094 96 C 133.339844 95.332031 134.476562 94.527344 135.707031 94.148438 Z M 135.707031 94.148438 "/><path style=" stroke:none;fill-rule:nonzero;fill:#fc786c;fill-opacity:1;" d="M 167.203125 95.367188 C 171.808594 96.339844 176.203125 98.25 179.859375 101.253906 C 183.40625 103.90625 185.925781 107.378906 188.160156 111.15625 C 192.769531 108.175781 197.996094 106.488281 203.523438 106.988281 C 204.851562 107.144531 206.070312 107.769531 206.6875 108.992188 C 207.21875 110.28125 207.183594 111.882812 207.214844 113.261719 C 207.15625 122.445312 207.203125 131.625 207.203125 140.808594 C 207.152344 141.949219 207.160156 143.375 206.570312 144.382812 C 205.738281 145.570312 204.375 145.777344 203.070312 146.125 C 199.613281 146.945312 196.371094 147.460938 193.480469 149.710938 C 191.25 151.378906 190.179688 153.851562 188.230469 155.683594 C 187.144531 156.699219 185.617188 156.421875 184.523438 155.585938 C 182.160156 153.800781 180.34375 151.289062 177.773438 149.636719 C 174.269531 147.351562 170.328125 146.777344 166.265625 146.332031 C 164.386719 146.167969 162.886719 145.441406 161.386719 144.34375 C 161.484375 129.566406 161.425781 114.773438 161.425781 99.988281 C 161.480469 98.667969 161.617188 96.902344 162.714844 95.984375 C 163.9375 94.898438 165.710938 95.136719 167.203125 95.367188 Z M 167.453125 140.40625 C 170.621094 140.710938 173.820312 141.257812 176.824219 142.332031 C 179.304688 143.230469 181.339844 144.699219 183.410156 146.285156 C 183.445312 137.144531 183.40625 128.003906 183.429688 118.863281 C 183.472656 116.410156 182.890625 114.230469 181.609375 112.140625 C 178.515625 107.179688 173.3125 102.921875 167.550781 101.617188 C 167.328125 103.605469 167.417969 105.652344 167.410156 107.652344 C 167.441406 118.566406 167.394531 129.488281 167.453125 140.40625 Z M 189.515625 144.859375 C 193.199219 142.824219 196.929688 141.355469 201.132812 140.816406 C 201.199219 131.492188 201.179688 122.164062 201.167969 112.839844 C 197.933594 113.546875 193.816406 114.183594 191.234375 116.367188 C 189.558594 117.851562 189.5 119.84375 189.464844 121.933594 C 189.53125 129.574219 189.464844 137.214844 189.515625 144.859375 Z M 189.515625 144.859375 "/><path style=" stroke:none;fill-rule:nonzero;fill:#ffffff;fill-opacity:1;" d="M 167.550781 101.617188 C 173.3125 102.921875 178.515625 107.179688 181.609375 112.140625 C 182.890625 114.230469 183.472656 116.410156 183.429688 118.863281 C 183.40625 128.003906 183.445312 137.144531 183.410156 146.285156 C 181.339844 144.699219 179.304688 143.230469 176.824219 142.332031 C 173.820312 141.257812 170.621094 140.710938 167.453125 140.40625 C 167.394531 129.488281 167.441406 118.566406 167.410156 107.652344 C 167.417969 105.652344 167.328125 103.605469 167.550781 101.617188 Z M 167.550781 101.617188 "/><path style=" stroke:none;fill-rule:nonzero;fill:#ffffff;fill-opacity:1;" d="M 201.167969 112.839844 C 201.179688 122.164062 201.199219 131.492188 201.132812 140.816406 C 196.929688 141.355469 193.199219 142.824219 189.515625 144.859375 C 189.464844 137.214844 189.53125 129.574219 189.464844 121.933594 C 189.5 119.84375 189.558594 117.851562 191.234375 116.367188 C 193.816406 114.183594 197.933594 113.546875 201.167969 112.839844 Z M 201.167969 112.839844 "/><path style=" stroke:none;fill-rule:nonzero;fill:#89d8da;fill-opacity:1;" d="M 169.277344 163.847656 C 176.078125 163.902344 182.882812 163.902344 189.683594 163.855469 C 190.984375 163.894531 192.496094 163.828125 193.714844 164.328125 C 195.734375 165.058594 195.679688 168.589844 193.609375 169.195312 C 192.078125 169.714844 190.269531 169.632812 188.664062 169.648438 C 183.5625 169.582031 178.460938 169.613281 173.359375 169.601562 C 170.972656 169.589844 168.550781 169.75 166.171875 169.546875 C 165.191406 169.414062 164.207031 169.261719 163.734375 168.28125 C 163.15625 167.023438 163.300781 164.945312 164.789062 164.375 C 166.144531 163.808594 167.835938 163.890625 169.277344 163.847656 Z M 169.277344 163.847656 "/><path style=" stroke:none;fill-rule:nonzero;fill:#89d8da;fill-opacity:1;" d="M 170.808594 173.675781 C 175.242188 173.832031 179.214844 173.167969 183.5625 174.449219 C 183.40625 175.6875 183.523438 177.28125 182.882812 178.382812 C 181.996094 179.304688 180.195312 179.351562 178.992188 179.414062 C 175.585938 179.449219 172.175781 179.382812 168.769531 179.4375 C 167.34375 179.390625 165.34375 179.511719 164.160156 178.582031 C 162.898438 177.28125 163.273438 174.546875 165.117188 173.960938 C 166.917969 173.480469 168.957031 173.6875 170.808594 173.675781 Z M 170.808594 173.675781 "/><path style=" stroke:none;fill-rule:nonzero;fill:#516c75;fill-opacity:1;" d="M 210.355469 229.417969 C 212.761719 229.046875 215.3125 229.296875 217.757812 229.246094 C 220.3125 229.015625 223.160156 230.917969 223.625 233.5 C 224.425781 236.46875 225.261719 239.484375 225.582031 242.542969 C 223.65625 242.605469 221.707031 242.695312 219.773438 242.59375 C 219.125 242.503906 218.546875 242.59375 218.15625 241.96875 C 217.011719 240.253906 216.425781 238.074219 215.726562 236.148438 C 214.242188 237.757812 212.871094 239.46875 211.410156 241.09375 C 210.71875 241.773438 210.15625 242.589844 209.101562 242.589844 C 207.203125 242.675781 205.191406 242.789062 203.316406 242.457031 C 202.386719 241.871094 202.6875 240.175781 202.757812 239.234375 C 203.503906 237.308594 205.183594 235.699219 206.375 234.03125 C 207.632812 232.515625 208.742188 230.554688 210.355469 229.417969 Z M 210.355469 229.417969 "/><path style=" stroke:none;fill-rule:nonzero;fill:#516c75;fill-opacity:1;" d="M 36.578125 229.46875 C 38.269531 229.199219 40.039062 229.335938 41.742188 229.320312 C 50.074219 229.351562 58.410156 229.332031 66.738281 229.332031 C 69.8125 229.425781 72.414062 228.714844 75.003906 230.8125 C 74.957031 233.113281 75.117188 235.4375 74.925781 237.734375 C 74.808594 238.820312 74.285156 239.765625 73.148438 240.003906 C 70.898438 240.390625 68.515625 240.136719 66.230469 240.203125 C 59.664062 240.070312 53.113281 240.300781 46.554688 240.371094 C 46.578125 246.21875 46.582031 252.066406 46.554688 257.914062 C 53.457031 257.867188 60.363281 257.886719 67.261719 257.882812 C 68.738281 257.953125 70.40625 257.945312 70.753906 259.734375 C 70.984375 261.96875 71.015625 264.523438 70.703125 266.75 C 70.085938 268.308594 68.65625 268.109375 67.261719 268.203125 C 60.359375 268.1875 53.460938 268.207031 46.5625 268.1875 C 46.539062 274.113281 46.546875 280.039062 46.554688 285.960938 C 54.644531 285.949219 62.734375 285.960938 70.824219 285.949219 C 72.257812 285.921875 73.640625 286.1875 75.035156 286.503906 C 75.675781 288.964844 75.667969 291.457031 75.535156 293.972656 C 75.519531 294.734375 75.183594 295.519531 74.609375 296.023438 C 73.546875 296.640625 72.023438 296.574219 70.824219 296.617188 C 60.113281 296.585938 49.390625 296.605469 38.675781 296.605469 C 37.6875 296.554688 36.371094 296.605469 35.527344 296.007812 C 34.503906 295.152344 34.578125 293.53125 34.507812 292.316406 C 34.523438 274.304688 34.519531 256.253906 34.519531 238.238281 C 34.550781 236.035156 34.371094 233.765625 34.675781 231.578125 C 34.828125 230.488281 35.527344 229.75 36.578125 229.46875 Z M 36.578125 229.46875 "/><path style=" stroke:none;fill-rule:nonzero;fill:#516c75;fill-opacity:1;" d="M 305.207031 232.4375 C 307.238281 232.082031 309.542969 232.066406 311.132812 233.582031 C 314.175781 235.96875 314.058594 241.425781 310.863281 243.636719 C 307.757812 245.9375 302.945312 244.8125 301.34375 241.238281 C 299.585938 237.90625 301.574219 233.398438 305.207031 232.4375 Z M 305.207031 232.4375 "/><path style=" stroke:none;fill-rule:nonzero;fill:#516c75;fill-opacity:1;" d="M 160.617188 247.425781 C 165.191406 248.125 169.171875 250.496094 172.234375 253.933594 C 172.441406 252.445312 171.824219 249.457031 173.679688 248.890625 C 176.023438 248.414062 178.578125 248.609375 180.957031 248.710938 C 182.089844 248.777344 182.777344 249.371094 183.074219 250.464844 C 183.378906 251.949219 183.261719 253.558594 183.277344 255.074219 C 183.230469 266.804688 183.292969 278.539062 183.234375 290.269531 C 183.046875 294.71875 182.53125 299.511719 180.53125 303.542969 C 178.160156 308.707031 173.410156 312.621094 168.175781 314.652344 C 159.363281 317.933594 148.917969 317.128906 140.996094 311.929688 C 139.832031 311.058594 138.578125 310.308594 138.777344 308.644531 C 139.109375 306.265625 140.867188 303.972656 142.226562 302.054688 C 144.160156 302.496094 145.78125 303.492188 147.558594 304.316406 C 150.867188 305.910156 154.394531 306.628906 158.0625 306.449219 C 162.269531 306.242188 166.886719 304.648438 169.355469 301.042969 C 171.601562 297.886719 171.695312 293.347656 171.757812 289.621094 C 169.6875 291.621094 167.433594 293.332031 164.691406 294.300781 C 157.132812 297.085938 147.664062 295.355469 141.984375 289.496094 C 137.539062 284.9375 135.34375 278.726562 135.207031 272.417969 C 135.003906 267.582031 135.828125 262.785156 138.027344 258.449219 C 140.183594 254.398438 143.675781 250.824219 147.917969 248.980469 C 151.863281 247.195312 156.363281 246.859375 160.617188 247.425781 Z M 157.300781 257.0625 C 154.113281 257.371094 151.128906 258.917969 149.230469 261.53125 C 146.945312 264.574219 146.46875 268.722656 146.625 272.421875 C 146.71875 276.046875 147.628906 279.589844 150.3125 282.179688 C 153.414062 285.234375 158 285.933594 162.15625 285.253906 C 165.226562 284.636719 168.390625 283.097656 170.101562 280.363281 C 171.863281 277.691406 172.273438 274.019531 172.296875 270.890625 C 172.152344 267.253906 171.652344 263.230469 168.878906 260.570312 C 165.835938 257.359375 161.53125 256.683594 157.300781 257.0625 Z M 157.300781 257.0625 "/><path style=" stroke:none;fill-rule:nonzero;fill:#516c75;fill-opacity:1;" d="M 221.953125 248.273438 C 227.730469 250.238281 232.542969 254.75 234.847656 260.402344 C 236.566406 264.535156 237.066406 269.035156 236.796875 273.476562 C 236.714844 274.519531 236.117188 275.53125 235.011719 275.695312 C 232.851562 275.941406 230.628906 275.765625 228.457031 275.796875 C 219.714844 275.8125 210.976562 275.761719 202.246094 275.832031 C 202.746094 278.222656 203.214844 280.480469 204.503906 282.59375 C 206.132812 285.363281 208.886719 287.3125 211.976562 288.101562 C 215.195312 289.011719 218.742188 288.394531 221.804688 287.1875 C 224.695312 286.050781 226.925781 284.210938 229.589844 282.691406 C 231.785156 284.34375 233.53125 286.316406 234.066406 289.097656 C 231.777344 291.921875 229.144531 294.292969 225.777344 295.765625 C 219.910156 298.351562 213.234375 298.902344 207.140625 296.753906 C 201.5 294.871094 196.71875 290.800781 193.851562 285.601562 C 190.679688 279.882812 190.359375 273.574219 191.164062 267.207031 C 192.332031 261 195.652344 255.125 200.902344 251.492188 C 206.851562 247.121094 214.976562 246.0625 221.953125 248.273438 Z M 202.339844 267.699219 C 210.253906 267.792969 218.164062 267.71875 226.078125 267.738281 C 225.695312 264.453125 224.957031 261.367188 222.480469 259.003906 C 220.40625 256.917969 217.570312 256.125 214.679688 256.226562 C 211.417969 256.152344 208.371094 257.4375 206.140625 259.816406 C 203.984375 262.0625 203.125 264.765625 202.339844 267.699219 Z M 202.339844 267.699219 "/><path style=" stroke:none;fill-rule:nonzero;fill:#516c75;fill-opacity:1;" d="M 277.199219 247.726562 C 281.480469 248.78125 285.25 251.546875 287.332031 255.453125 C 288.796875 258.304688 289.554688 261.554688 289.484375 264.765625 C 289.457031 274.121094 289.457031 283.480469 289.488281 292.839844 C 289.4375 293.753906 289.554688 294.898438 288.933594 295.640625 C 288.222656 296.671875 286.695312 296.523438 285.589844 296.605469 C 283.601562 296.585938 281.453125 296.769531 279.515625 296.285156 C 277.96875 295.785156 278.046875 294.171875 277.992188 292.835938 C 278 284.328125 278.050781 275.808594 277.996094 267.300781 C 277.886719 263.71875 276.84375 259.800781 273.28125 258.210938 C 268.796875 256.292969 262.558594 257.042969 259.207031 260.816406 C 257.292969 262.832031 256.238281 265.550781 256.21875 268.324219 C 256.167969 277.394531 256.269531 286.476562 256.167969 295.542969 C 255.125 296.039062 254.152344 296.539062 252.960938 296.570312 C 250.15625 296.625 247.539062 296.96875 245.003906 295.558594 C 244.917969 281.210938 245.015625 266.859375 244.953125 252.507812 C 244.996094 251.695312 244.921875 250.738281 245.246094 249.972656 C 245.75 249.222656 246.480469 248.765625 247.386719 248.707031 C 249.347656 248.558594 251.421875 248.570312 253.382812 248.699219 C 254.285156 248.792969 255.167969 249.039062 255.539062 249.957031 C 255.984375 251.324219 255.789062 252.960938 255.757812 254.390625 C 261.191406 248.640625 269.445312 245.890625 277.199219 247.726562 Z M 277.199219 247.726562 "/><path style=" stroke:none;fill-rule:nonzero;fill:#516c75;fill-opacity:1;" d="M 345.8125 247.304688 C 351.585938 247.761719 357.148438 251.191406 359.695312 256.46875 C 361.117188 259.484375 361.625 262.984375 361.734375 266.289062 C 361.742188 274.964844 361.710938 283.636719 361.757812 292.316406 C 361.800781 293.890625 361.410156 295.152344 360.707031 296.535156 C 357.460938 296.566406 354.394531 296.882812 351.195312 296.109375 C 350.855469 294.273438 350.707031 292.53125 350.738281 290.664062 C 348.21875 294.191406 344.453125 296.472656 340.265625 297.46875 C 333.089844 299.488281 324.085938 296.007812 321 289.003906 C 318.285156 282.515625 320.699219 273.421875 327.429688 270.378906 C 334.222656 267.1875 341.636719 268.523438 348.820312 266.785156 C 349.488281 266.617188 350.105469 266.371094 350.625 265.902344 C 350.824219 263.503906 350.246094 260.730469 348.546875 258.9375 C 347.292969 257.703125 345.527344 256.960938 343.785156 256.796875 C 339.925781 256.558594 336.296875 256.546875 332.789062 258.386719 C 331.050781 259.148438 329.402344 260.746094 327.53125 261.046875 C 326.277344 260.921875 325.285156 259.3125 324.601562 258.378906 C 323.703125 256.980469 322.628906 255.082031 323.777344 253.515625 C 325.621094 251.242188 328.667969 249.765625 331.378906 248.792969 C 336.082031 247.085938 340.875 246.980469 345.8125 247.304688 Z M 350.730469 273.507812 C 346.554688 275.039062 342.304688 274.839844 337.992188 275.59375 C 335.375 276.113281 332.46875 277.132812 331.40625 279.839844 C 330.511719 281.902344 331.019531 284.160156 332.273438 285.949219 C 333.871094 288.039062 336.550781 289.152344 339.152344 289.089844 C 342.269531 289.140625 345.40625 287.621094 347.621094 285.480469 C 349.101562 284.027344 350.46875 282.242188 350.644531 280.101562 C 350.820312 277.914062 350.691406 275.703125 350.730469 273.507812 Z M 350.730469 273.507812 "/><path style=" stroke:none;fill-rule:nonzero;fill:#516c75;fill-opacity:1;" d="M 86.597656 248.632812 C 89.308594 248.648438 92.082031 248.277344 94.539062 249.507812 C 94.714844 256.453125 94.558594 263.421875 94.609375 270.375 C 94.695312 274.269531 94.222656 277.824219 95.464844 281.574219 C 96.394531 284.519531 98.882812 286.765625 101.929688 287.34375 C 104.199219 287.710938 106.632812 287.605469 108.820312 286.847656 C 113 285.351562 116.191406 281.597656 116.105469 277.023438 C 116.097656 267.890625 116.101562 258.792969 116.105469 249.660156 C 117.125 249.171875 118.085938 248.691406 119.25 248.65625 C 122.015625 248.597656 124.601562 248.246094 127.085938 249.648438 C 127.15625 264.789062 127.078125 279.929688 127.125 295.074219 C 126.707031 295.566406 126.289062 296.058594 125.871094 296.554688 C 122.792969 296.539062 119.882812 296.824219 116.847656 296.15625 C 116.421875 294.691406 116.15625 293.25 115.992188 291.734375 C 110.898438 297.257812 102.597656 299.273438 95.425781 297.320312 C 91.847656 296.472656 88.609375 294.488281 86.480469 291.453125 C 84.203125 288.171875 83.324219 284.019531 83.308594 280.078125 C 83.304688 271.742188 83.324219 263.40625 83.289062 255.074219 C 83.304688 253.46875 83.160156 251.789062 83.453125 250.210938 C 83.824219 248.796875 85.390625 248.691406 86.597656 248.632812 Z M 86.597656 248.632812 "/><path style=" stroke:none;fill-rule:nonzero;fill:#516c75;fill-opacity:1;" d="M 310.78125 248.726562 C 311.277344 249.1875 311.773438 249.640625 312.273438 250.097656 C 312.359375 265.304688 312.355469 280.515625 312.265625 295.722656 C 311.230469 296.140625 310.214844 296.527344 309.078125 296.566406 C 306.261719 296.617188 303.734375 297.058594 301.234375 295.488281 C 301.226562 280.222656 301.191406 264.953125 301.25 249.6875 C 303.902344 248.027344 307.746094 248.757812 310.78125 248.726562 Z M 310.78125 248.726562 "/><path style=" stroke:none;fill-rule:nonzero;fill:#ffffff;fill-opacity:1;" d="M 214.679688 256.226562 C 217.570312 256.125 220.40625 256.917969 222.480469 259.003906 C 224.957031 261.367188 225.695312 264.453125 226.078125 267.738281 C 218.164062 267.71875 210.253906 267.792969 202.339844 267.699219 C 203.125 264.765625 203.984375 262.0625 206.140625 259.816406 C 208.371094 257.4375 211.417969 256.152344 214.679688 256.226562 Z M 214.679688 256.226562 "/><path style=" stroke:none;fill-rule:nonzero;fill:#ffffff;fill-opacity:1;" d="M 157.300781 257.0625 C 161.53125 256.683594 165.835938 257.359375 168.878906 260.570312 C 171.652344 263.230469 172.152344 267.253906 172.296875 270.890625 C 172.273438 274.019531 171.863281 277.691406 170.101562 280.363281 C 168.390625 283.097656 165.226562 284.636719 162.15625 285.253906 C 158 285.933594 153.414062 285.234375 150.3125 282.179688 C 147.628906 279.589844 146.71875 276.046875 146.625 272.421875 C 146.46875 268.722656 146.945312 264.574219 149.230469 261.53125 C 151.128906 258.917969 154.113281 257.371094 157.300781 257.0625 Z M 157.300781 257.0625 "/><path style=" stroke:none;fill-rule:nonzero;fill:#ffffff;fill-opacity:1;" d="M 350.730469 273.507812 C 350.691406 275.703125 350.820312 277.914062 350.644531 280.101562 C 350.46875 282.242188 349.101562 284.027344 347.621094 285.480469 C 345.40625 287.621094 342.269531 289.140625 339.152344 289.089844 C 336.550781 289.152344 333.871094 288.039062 332.273438 285.949219 C 331.019531 284.160156 330.511719 281.902344 331.40625 279.839844 C 332.46875 277.132812 335.375 276.113281 337.992188 275.59375 C 342.304688 274.839844 346.554688 275.039062 350.730469 273.507812 Z M 350.730469 273.507812 "/></g></svg>