<svg xmlns="http://www.w3.org/2000/svg" xmlns:xlink="http://www.w3.org/1999/xlink" width="500" zoomAndPan="magnify" viewBox="0 0 375 374.999991" height="500" preserveAspectRatio="xMidYMid meet" version="1.2"><defs><clipPath id="2ae48ee6bf"><path d="M 0 0 L 375 0 L 375 366.75 L 0 366.75 Z M 0 0 "/></clipPath><clipPath id="df37cf3d7d"><path d="M 0 0 L 375 0 L 375 366.75 L 0 366.75 Z M 0 0 "/></clipPath></defs><g id="c7163ecc57"><g clip-rule="nonzero" clip-path="url(#2ae48ee6bf)"><path style="fill-rule:nonzero;fill:#000000;fill-opacity:1;stroke-width:13.333333;stroke-linecap:butt;stroke-linejoin:miter;stroke:#ffffff;stroke-opacity:1;stroke-miterlimit:4;" d="M -0.00256146 0 L 1035.002617 0 L 1035.002617 1013.000083 L -0.00256146 1013.000083 Z M 288.370983 460.278028 C 288.640521 462.058288 288.144571 464.043547 287.724091 465.769859 C 282.699899 482.946667 277.977589 500.23137 273.158246 517.472914 C 272.349632 520.752908 271.217571 524.701847 272.231035 528.014209 C 273.546381 533.085251 278.743078 536.904717 284.015245 536.322087 C 289.276631 535.750246 294.451765 533.171567 299.486739 531.574728 C 312.877397 527.215789 326.181804 522.738167 339.259798 517.516072 C 341.664079 516.717652 344.77994 515.293445 347.324381 515.951601 C 351.798715 517.289493 355.928041 519.965278 360.240652 521.799484 C 377.652821 529.341311 396.078453 534.315249 414.978473 536.149456 C 426.38533 536.958665 437.554994 538.156294 448.994195 536.710507 C 476.055832 534.779195 502.535266 526.848948 525.812586 512.82266 C 559.20298 493.045594 586.825257 460.860659 598.13508 423.442839 C 606.124193 396.922365 606.577017 368.254791 598.825098 341.604844 C 593.401989 322.334883 583.569235 304.704918 570.83625 289.29758 C 556.820263 272.929981 539.914826 259.151851 520.853083 249.042134 C 497.457166 236.450844 471.473682 229.567173 445.00503 227.85165 C 420.207514 226.8806 395.431562 229.448489 371.949392 237.777946 C 348.16534 246.17214 325.52413 259.75606 307.917894 277.914708 C 283.217412 301.921239 267.584196 334.893805 265.201478 369.290578 C 263.87535 381.622922 265.093663 394.343686 267.152935 406.524978 C 270.36583 423.03284 276.015351 439.670175 285.158087 453.879883 C 286.344056 455.875932 287.799562 458.012243 288.370983 460.278028 Z M 564.054668 577.904636 C 565.423922 581.680944 566.566764 585.953567 568.809322 589.309086 C 569.574811 590.539084 570.706871 590.355663 571.979092 590.539084 C 575.77419 590.744084 579.590851 590.560663 583.375167 590.441979 C 582.739057 584.443044 581.100265 578.530424 579.526162 572.714909 C 578.620513 567.654656 573.035682 563.921506 568.033052 564.374663 C 563.235272 564.471768 558.243424 563.975453 553.521115 564.709136 C 550.362127 566.942552 548.184258 570.783597 545.715288 573.750696 C 543.375696 577.0199 540.08733 580.18121 538.631824 583.946729 C 538.491664 585.802515 537.89868 589.114876 539.720758 590.269348 C 543.39726 590.916715 547.343299 590.700926 551.062926 590.528295 C 553.13298 590.528295 554.232696 588.931456 555.591168 587.604353 C 558.448273 584.410675 561.143656 581.055156 564.054668 577.904636 Z M 288.263168 676.617333 C 285.524659 676.002334 282.818496 675.484441 280.015298 675.527599 C 264.144888 675.549177 248.28526 675.527599 232.425631 675.549177 C 232.41485 663.939727 232.404068 652.330276 232.447194 640.710036 C 245.967231 640.753194 259.487268 640.710036 273.018086 640.742405 C 275.756595 640.558984 278.559792 640.947404 279.767323 637.893989 C 280.38187 633.535051 280.317181 628.517956 279.875138 624.137438 C 279.185121 620.630866 275.918317 620.652445 273.018086 620.512182 C 259.498049 620.522972 245.95645 620.479814 232.425631 620.566129 C 232.49032 609.107731 232.479539 597.638544 232.425631 586.180145 C 245.287995 586.039882 258.128795 585.586725 271.00194 585.845672 C 275.476275 585.716199 280.144677 586.223303 284.565103 585.457252 C 286.786098 584.993306 287.821125 583.13752 288.047537 581.011998 C 288.424891 576.512796 288.112226 571.948858 288.198478 567.438867 C 283.120379 563.328086 278.020716 564.719925 272.004623 564.536504 C 255.670607 564.536504 239.32581 564.579662 223.002575 564.514925 C 219.660301 564.547294 216.188649 564.277558 212.87872 564.806241 C 210.819448 565.356503 209.450194 566.813079 209.148311 568.938601 C 208.555327 573.232803 208.900336 577.678057 208.835647 582.004627 C 208.835647 617.318504 208.846428 652.697118 208.824865 688.010995 C 208.965025 690.384674 208.814084 693.567563 210.819448 695.250717 C 212.469022 696.415978 215.045807 696.318873 216.986482 696.415978 C 237.9889 696.415978 259.012881 696.38361 280.015298 696.437557 C 282.35489 696.362031 285.341373 696.491504 287.43299 695.283085 C 288.554269 694.290456 289.211942 692.747564 289.244287 691.25862 C 289.503043 686.32784 289.524607 681.440218 288.263168 676.617333 Z M 739.448575 570.632545 C 732.332766 572.509909 728.429853 581.346471 731.879942 587.884879 C 735.017367 594.887233 744.451204 597.088281 750.542768 592.57829 C 756.796054 588.25172 757.033248 577.548584 751.071063 572.865961 C 747.955201 569.898862 743.426959 569.93123 739.448575 570.632545 Z M 477.856347 682.734953 C 477.737751 690.028622 477.554465 698.92992 473.144819 705.123066 C 468.314695 712.190157 459.258211 715.308309 451.010341 715.718308 C 443.819062 716.07436 436.908102 714.660941 430.417622 711.54279 C 426.935188 709.924372 423.754637 707.971481 419.970321 707.097535 C 417.307283 710.863054 413.857194 715.362256 413.210302 720.023299 C 412.822167 723.281714 415.280356 724.749079 417.555258 726.464602 C 433.091441 736.649845 453.554782 738.225105 470.837572 731.805381 C 481.101587 727.824073 490.406047 720.141983 495.063667 710.021477 C 498.977362 702.123598 499.990826 692.715196 500.357398 683.997318 C 500.465213 661.004996 500.346616 638.001884 500.44365 614.998772 C 500.411305 612.031673 500.637717 608.881153 500.044733 605.968001 C 499.462531 603.8209 498.11484 602.655639 495.893845 602.526165 C 491.225443 602.331955 486.222814 601.954324 481.629882 602.882217 C 477.985726 603.993531 479.204038 609.852203 478.79434 612.765355 C 472.789029 606.032737 464.993984 601.382483 456.023752 600.012223 C 447.678849 598.900909 438.859559 599.559066 431.129203 603.054848 C 422.805863 606.669315 415.970373 613.682459 411.744014 621.623496 C 407.431403 630.114794 405.814174 639.523197 406.21309 648.996336 C 406.482628 661.371837 410.784458 673.553129 419.495933 682.476006 C 430.633252 693.966772 449.188263 697.35466 464.012865 691.895197 C 469.382066 689.996254 473.802493 686.651524 477.856347 682.734953 Z M 600.000284 681.699165 C 598.954476 676.250492 595.52595 672.377079 591.22412 669.140243 C 585.995079 672.118132 581.62856 675.732598 575.957476 677.955225 C 569.962946 680.318115 563.00886 681.526534 556.701666 679.746274 C 550.642447 678.203383 545.240901 674.383917 542.049568 668.946033 C 539.515909 664.813673 538.599479 660.379208 537.61836 655.696585 C 554.739428 655.556323 571.871276 655.664217 589.003125 655.631849 C 593.261829 655.567112 597.617567 655.912375 601.854707 655.426849 C 604.021795 655.113955 605.1862 653.117906 605.347923 651.0787 C 605.876218 642.371612 604.895098 633.54584 601.531262 625.453751 C 597.013801 614.372984 587.579964 605.514844 576.248577 601.673799 C 562.577599 597.336439 546.653281 599.408014 534.987667 607.974839 C 524.702089 615.095877 518.190046 626.619012 515.904362 638.789514 C 514.319477 651.27291 514.944806 663.637622 521.165748 674.847863 C 526.793706 685.043895 536.162854 693.0173 547.224702 696.707293 C 559.159854 700.915179 572.24863 699.836234 583.752521 694.765192 C 590.350816 691.895197 595.515169 687.244944 600.000284 681.699165 Z M 642.522633 613.66088 C 642.576541 610.855622 642.964676 607.651155 642.091372 604.964582 C 641.358228 603.173532 639.633183 602.688007 637.865013 602.515376 C 634.016007 602.24564 629.951371 602.23485 626.113147 602.515376 C 624.334194 602.644849 622.900251 603.529584 621.908351 604.99695 C 621.283022 606.496684 621.423182 608.384838 621.336929 609.970887 C 621.455526 638.109779 621.27224 666.23788 621.444745 694.365982 C 626.415029 697.128082 631.536256 696.459136 637.034835 696.351241 C 639.374427 696.286504 641.282757 695.304664 643.320466 694.344403 C 643.525315 676.563386 643.320466 658.76079 643.4175 640.979773 C 643.460626 635.541889 645.53068 630.2119 649.282652 626.26296 C 655.848602 618.861396 668.074856 617.39403 676.872583 621.14876 C 683.848232 624.266911 685.896723 631.949001 686.112353 638.972935 C 686.220168 655.653428 686.123135 672.34471 686.101572 689.025203 C 686.209387 691.64704 686.058445 694.80835 689.088055 695.79019 C 692.893935 696.739661 697.098731 696.38361 701.001644 696.415978 C 703.15795 696.264926 706.155215 696.545451 707.546032 694.527824 C 708.775126 693.071248 708.537932 690.827042 708.634966 689.035993 C 708.581059 670.693924 708.581059 652.341066 708.634966 633.998997 C 708.775126 627.708747 707.276494 621.34297 704.408607 615.754034 C 700.333189 608.093523 692.937061 602.666428 684.549031 600.594853 C 669.347076 597.001966 653.174783 602.385902 642.522633 613.66088 Z M 828.698068 684.774159 C 828.644161 688.431783 828.935262 691.85204 829.603717 695.444927 C 835.867785 696.95545 841.883878 696.340452 848.24498 696.275715 C 849.625015 693.567563 850.390504 691.096778 850.304252 688.010995 C 850.207218 670.996029 850.271907 654.002642 850.261125 636.987675 C 850.034713 630.514004 849.053594 623.651913 846.261178 617.739293 C 841.269331 607.392208 830.358424 600.67038 819.0486 599.774855 C 809.366788 599.138277 799.965295 599.343277 790.747088 602.688007 C 785.442576 604.59774 779.469609 607.489313 775.847015 611.945357 C 773.604457 615.020351 775.706855 618.742712 777.475026 621.483233 C 778.811936 623.30665 780.752611 626.46796 783.210799 626.705328 C 786.876519 626.122697 790.110978 622.993756 793.517941 621.504812 C 800.385774 617.890345 807.512365 617.911924 815.070216 618.375871 C 818.487961 618.699554 821.948831 620.15613 824.40702 622.583757 C 827.738512 626.090329 828.870573 631.528213 828.482438 636.232414 C 827.458193 637.149517 826.250661 637.635043 824.935315 637.958726 C 810.854639 641.368193 796.33192 638.746356 783.00595 645.015028 C 769.820141 650.970805 765.08705 668.79498 770.413125 681.515744 C 776.461562 695.250717 794.110925 702.069651 808.170038 698.109922 C 816.374781 696.157031 823.760128 691.690198 828.698068 684.774159 Z M 368.553211 686.867313 C 368.865875 689.845202 369.39417 692.672038 370.224348 695.542032 C 376.16497 696.847556 381.87918 696.286504 387.906055 696.318873 C 388.725451 695.347822 389.544847 694.376771 390.375025 693.41651 C 390.277991 663.734727 390.428932 634.052944 390.288772 604.371162 C 385.415522 601.619851 380.348203 602.310376 374.925094 602.418271 C 372.650192 602.493797 370.774206 603.432479 368.768841 604.392741 C 368.75806 622.292442 368.747278 640.127406 368.768841 658.027107 C 368.941346 667.003931 362.677278 674.362338 354.494098 677.286279 C 350.203049 678.775224 345.426832 678.980223 340.984842 678.25733 C 335.011876 677.135227 330.127843 672.73313 328.305765 666.949984 C 325.869139 659.602367 326.796351 652.632381 326.634628 645.004238 C 326.526813 631.366371 326.839477 617.706925 326.494468 604.090636 C 321.675125 601.684588 316.241234 602.407481 310.925941 602.375113 C 308.564786 602.493797 305.49205 602.698797 304.758906 605.471686 C 304.187485 608.557469 304.467805 611.859041 304.435461 614.998772 C 304.510931 631.344792 304.467805 647.680023 304.478587 664.015253 C 304.510931 671.75129 306.225194 679.886537 310.699529 686.317051 C 314.87198 692.272828 321.2223 696.157031 328.230294 697.818607 C 342.289407 701.648862 358.558734 697.699923 368.553211 686.867313 Z M 731.685874 604.435898 C 731.578059 634.365839 731.65353 664.295779 731.664311 694.225719 C 736.559125 697.311502 741.518628 696.437557 747.038771 696.340452 C 749.270547 696.264926 751.26513 695.509664 753.292058 694.689666 C 753.464562 664.878409 753.475344 635.056364 753.302839 605.245107 C 752.32172 604.349583 751.351382 603.464848 750.381045 602.558534 C 744.429641 602.62327 736.893353 601.188273 731.685874 604.435898 Z M 731.685874 604.435898 " transform="matrix(0.362309,0,0,0.362043,0.00483429,0)"/></g><path style="fill-rule:nonzero;fill:#000000;fill-opacity:1;stroke-width:13.333333;stroke-linecap:butt;stroke-linejoin:miter;stroke:#95e6ad;stroke-opacity:1;stroke-miterlimit:4;" d="M 445.00503 227.85165 C 471.473682 229.567173 497.457166 236.450844 520.853083 249.042134 C 539.914826 259.151851 556.820263 272.929981 570.83625 289.29758 C 583.569235 304.704918 593.401989 322.334883 598.825098 341.604844 C 606.577017 368.254791 606.124193 396.922365 598.13508 423.442839 C 586.825257 460.860659 559.20298 493.045594 525.812586 512.82266 C 502.535266 526.848948 476.055832 534.779195 448.994195 536.710507 C 437.554994 538.156294 426.38533 536.958665 414.978473 536.149456 C 396.078453 534.315249 377.652821 529.341311 360.240652 521.799484 C 355.928041 519.965278 351.798715 517.289493 347.324381 515.951601 C 344.77994 515.293445 341.664079 516.717652 339.259798 517.516072 C 326.181804 522.738167 312.877397 527.215789 299.486739 531.574728 C 294.451765 533.171567 289.276631 535.750246 284.015245 536.322087 C 278.743078 536.904717 273.546381 533.085251 272.231035 528.014209 C 271.217571 524.701847 272.349632 520.752908 273.158246 517.472914 C 277.977589 500.23137 282.699899 482.946667 287.724091 465.769859 C 288.144571 464.043547 288.640521 462.058288 288.370983 460.278028 C 287.799562 458.012243 286.344056 455.875932 285.158087 453.879883 C 276.015351 439.670175 270.36583 423.03284 267.152935 406.524978 C 265.093663 394.343686 263.87535 381.622922 265.201478 369.290578 C 267.584196 334.893805 283.217412 301.921239 307.917894 277.914708 C 325.52413 259.75606 348.16534 246.17214 371.949392 237.777946 C 395.431562 229.448489 420.207514 226.8806 445.00503 227.85165 Z M 303.465123 503.133732 C 312.888179 500.22058 322.160293 496.724798 331.400063 493.261384 C 336.585979 491.35165 342.440349 488.222709 348.02518 488.233499 C 352.499515 488.125604 356.467117 491.027967 360.337686 493.013226 C 383.302342 505.108202 409.037851 511.495558 434.999771 511.420031 C 461.09107 511.128716 486.934394 504.903202 509.629512 491.858755 C 534.825944 477.735362 555.677421 456.404615 567.957582 430.132299 C 582.987032 398.378941 582.12451 359.450598 565.715024 328.387765 C 552.184205 303.528868 530.836779 284.053907 505.726599 271.225248 C 486.869705 261.655004 466.147607 255.742384 445.00503 254.523176 C 437.005136 254.285808 428.972897 254.231861 420.983784 254.674228 C 389.275309 257.220539 357.933405 268.862358 333.534806 289.534948 C 310.257486 309.204119 294.160664 337.386168 291.508408 367.963476 C 291.120273 375.95846 291.184962 384.039759 291.465282 392.034744 C 292.640468 409.384183 298.397805 425.999939 307.141624 440.964909 C 309.51356 445.08648 312.974431 448.636209 315.001358 452.930411 C 316.381394 456.469352 315.238552 461.151974 314.354467 464.723283 C 310.828907 477.562731 307.066153 490.305074 303.465123 503.133732 Z M 303.465123 503.133732 " transform="matrix(0.362309,0,0,0.362043,0.00483429,0)"/><path style="fill-rule:nonzero;fill:#000000;fill-opacity:1;stroke-width:13.333333;stroke-linecap:butt;stroke-linejoin:miter;stroke:#ffffff;stroke-opacity:1;stroke-miterlimit:4;" d="M 420.983784 254.674228 C 428.972897 254.231861 437.005136 254.285808 445.00503 254.523176 C 466.147607 255.742384 486.869705 261.655004 505.726599 271.225248 C 530.836779 284.053907 552.184205 303.528868 565.715024 328.387765 C 582.12451 359.450598 582.987032 398.378941 567.957582 430.132299 C 555.677421 456.404615 534.825944 477.735362 509.629512 491.858755 C 486.934394 504.903202 461.09107 511.128716 434.999771 511.420031 C 409.037851 511.495558 383.302342 505.108202 360.337686 493.013226 C 356.467117 491.027967 352.499515 488.125604 348.02518 488.233499 C 342.440349 488.222709 336.585979 491.35165 331.400063 493.261384 C 322.160293 496.724798 312.888179 500.22058 303.465123 503.133732 C 307.066153 490.305074 310.828907 477.562731 314.354467 464.723283 C 315.238552 461.151974 316.381394 456.469352 315.001358 452.930411 C 312.974431 448.636209 309.51356 445.08648 307.141624 440.964909 C 298.397805 425.999939 292.640468 409.384183 291.465282 392.034744 C 291.184962 384.039759 291.120273 375.95846 291.508408 367.963476 C 294.160664 337.386168 310.257486 309.204119 333.534806 289.534948 C 357.933405 268.862358 389.275309 257.220539 420.983784 254.674228 Z M 346.849994 328.085661 C 341.577826 331.495128 336.59676 334.678016 333.081982 340.040374 C 328.251857 346.80536 326.505249 354.811134 327.292301 363.043486 C 327.63731 368.578475 330.170969 372.80794 332.71541 377.555299 C 329.179069 382.345816 326.22493 387.287385 325.38397 393.307899 C 323.421732 403.665773 326.494468 414.530751 334.052319 421.953894 C 338.321805 426.355991 343.637098 428.254934 349.383653 429.992036 C 349.577721 434.933605 349.696317 439.594649 351.47527 444.28806 C 354.655821 453.318832 362.644933 460.159344 371.259375 463.849337 C 379.798345 467.280383 388.585291 465.705123 397.135043 463.266707 C 400.887015 465.888543 404.585079 468.693801 409.113321 469.805115 C 417.048526 471.693269 426.051103 469.751167 431.948599 463.935653 C 436.832631 458.821452 439.183004 452.024097 439.344727 445.010954 C 439.668173 405.327349 439.754425 365.676112 439.797552 326.003296 C 439.711299 319.195152 440.616948 311.286484 437.921566 304.953075 C 434.579292 296.666776 427.344886 290.074421 418.514814 288.197056 C 412.919201 287.053374 406.525754 286.93469 401.145772 289.049423 C 396.779253 290.797314 394.374972 294.239149 390.644563 296.709934 C 389.814385 297.281775 388.585291 297.098354 387.614953 297.087565 C 383.280779 296.763881 379.280832 296.170461 374.979002 297.335722 C 366.526283 299.418086 359.087029 306.04281 353.739391 312.656744 C 350.041326 317.188314 348.273156 322.496724 346.849994 328.085661 Z M 457.533166 397.925784 C 460.465742 400.083675 463.409099 401.507883 467.0856 401.831566 C 475.063932 402.694722 482.783506 403.827615 489.65134 408.305237 C 494.686313 411.552862 498.254999 416.472853 502.880275 419.968635 C 505.025799 421.608632 508.023064 422.148104 510.147025 420.162845 C 513.974468 416.569958 516.066085 411.714704 520.443385 408.4455 C 526.114469 404.043404 532.46479 403.029195 539.235589 401.421567 C 541.801593 400.741831 544.464631 400.342622 546.103423 398.0121 C 547.257047 396.026841 547.235484 393.243162 547.343299 390.998956 C 547.343299 373.00215 547.246265 355.005344 547.364862 336.997748 C 547.300173 334.300385 547.364862 331.160655 546.329835 328.625133 C 545.122304 326.229875 542.728805 325.010667 540.130456 324.697773 C 529.29502 323.715933 519.052568 327.028294 510.006866 332.865388 C 505.629565 325.474613 500.691625 318.65568 493.737539 313.455164 C 486.567822 307.574912 477.964163 303.830972 468.929242 301.921239 C 466.007448 301.468082 462.525014 301.004136 460.131514 303.129658 C 457.975209 304.931496 457.705671 308.394911 457.608637 310.984379 C 457.608637 339.964848 457.716452 368.956105 457.533166 397.925784 Z M 481.004554 447.44937 C 490.999031 447.470949 501.004289 447.406212 510.998766 447.535685 C 514.146973 447.514106 517.694095 447.665159 520.69136 446.65095 C 524.745215 445.464111 524.863812 438.537282 520.896209 437.113075 C 518.513492 436.131234 515.548571 436.260708 513.004131 436.185182 C 499.66738 436.271497 486.330629 436.271497 473.00466 436.174392 C 470.169118 436.249918 466.859188 436.088077 464.196151 437.19939 C 461.285138 438.321493 461.004818 442.389117 462.126097 444.859901 C 463.06409 446.780424 464.993984 447.082528 466.913096 447.341475 C 471.570716 447.740685 476.32537 447.417001 481.004554 447.44937 Z M 501.004289 456.954877 C 492.4761 454.440935 484.691837 455.735669 476.001924 455.433564 C 472.368549 455.455143 468.368602 455.045144 464.843042 455.994616 C 461.23123 457.138298 460.487305 462.500655 462.967056 465.046966 C 465.285085 466.870384 469.209561 466.643805 472.001977 466.730121 C 478.675744 466.622226 485.360291 466.7517 492.044839 466.676173 C 494.395212 466.557489 497.931554 466.471174 499.66738 464.658546 C 500.918037 462.500655 500.691625 459.382504 501.004289 456.954877 Z M 501.004289 456.954877 " transform="matrix(0.362309,0,0,0.362043,0.00483429,0)"/><path style="fill-rule:nonzero;fill:#000000;fill-opacity:1;stroke-width:13.333333;stroke-linecap:butt;stroke-linejoin:miter;stroke:#89d8da;stroke-opacity:1;stroke-miterlimit:4;" d="M 418.514814 288.197056 C 427.344886 290.074421 434.579292 296.666776 437.921566 304.953075 C 440.616948 311.286484 439.711299 319.195152 439.797552 326.003296 C 439.754425 365.676112 439.668173 405.327349 439.344727 445.010954 C 439.183004 452.024097 436.832631 458.821452 431.948599 463.935653 C 426.051103 469.751167 417.048526 471.693269 409.113321 469.805115 C 404.585079 468.693801 400.887015 465.888543 397.135043 463.266707 C 388.585291 465.705123 379.798345 467.280383 371.259375 463.849337 C 362.644933 460.159344 354.655821 453.318832 351.47527 444.28806 C 349.696317 439.594649 349.577721 434.933605 349.383653 429.992036 C 343.637098 428.254934 338.321805 426.355991 334.052319 421.953894 C 326.494468 414.530751 323.421732 403.665773 325.38397 393.307899 C 326.22493 387.287385 329.179069 382.345816 332.71541 377.555299 C 330.170969 372.80794 327.63731 368.578475 327.292301 363.043486 C 326.505249 354.811134 328.251857 346.80536 333.081982 340.040374 C 336.59676 334.678016 341.577826 331.495128 346.849994 328.085661 C 348.273156 322.496724 350.041326 317.188314 353.739391 312.656744 C 359.087029 306.04281 366.526283 299.418086 374.979002 297.335722 C 379.280832 296.170461 383.280779 296.763881 387.614953 297.087565 C 388.585291 297.098354 389.814385 297.281775 390.644563 296.709934 C 394.374972 294.239149 396.779253 290.797314 401.145772 289.049423 C 406.525754 286.93469 412.919201 287.053374 418.514814 288.197056 Z M 400.412628 303.162026 C 403.636305 308.21149 407.55 313.768058 406.299342 320.112256 C 405.329005 323.618828 400.85467 324.622247 397.997565 322.906724 C 395.205149 319.745414 394.493569 314.631214 391.517867 311.491483 C 388.865611 308.718594 384.790193 307.294386 380.984313 307.477807 C 377.059837 307.833859 373.512714 310.088855 370.418415 312.387008 C 366.235182 315.613054 362.051949 319.367783 360.025022 324.384879 C 358.537171 327.913029 358.407792 331.861969 357.038538 335.37933 C 356.014293 337.030117 353.577668 337.850115 351.949657 338.788797 C 341.858146 343.126157 335.529389 356.105868 339.70184 366.539268 C 340.963279 369.873209 343.486157 372.354783 346.990154 373.20715 C 352.305447 374.437147 356.898378 371.869257 361.976478 371.534784 C 364.402322 371.243469 366.353779 373.843727 366.375342 376.055565 C 366.752696 379.443453 363.636834 382.086869 360.952233 383.489497 C 355.518343 386.111334 349.653191 384.395811 343.982107 384.600811 C 341.793457 384.600811 340.305606 386.683175 339.195109 388.312383 C 333.405428 397.753153 336.542853 411.175232 346.170758 416.774957 C 350.957756 419.234952 357.135572 419.062321 362.051949 417.066272 C 365.814703 415.588118 367.06536 411.132074 369.006035 407.927607 C 372.63941 400.925252 381.340104 396.285788 389.14593 397.81789 C 392.81165 398.724204 393.480105 403.104721 392.003035 406.050242 C 389.242964 409.060499 383.550317 408.801552 380.509926 411.466547 C 377.868452 414.595488 376.811862 418.88969 374.094917 422.061789 C 370.644827 426.334412 365.987207 427.974409 361.146301 430.143088 C 361.264898 434.297028 361.146301 438.073336 363.173228 441.860434 C 366.181275 447.384633 371.442661 452.401728 377.674384 453.93383 C 381.728239 454.807776 386.428985 453.912252 390.493621 453.232516 C 389.976108 447.492528 389.242964 442.216485 391.560993 436.724654 C 393.059625 433.228872 395.722663 428.783618 399.517761 427.478094 C 403.097228 426.345201 407.107957 429.010196 406.514973 432.937557 C 405.479946 436.692286 402.029857 440.037016 401.382965 443.888851 C 400.466535 452.412518 409.425986 461.022501 417.975738 458.896978 C 422.946022 457.915138 426.568616 453.73962 427.377231 448.83042 C 428.185845 442.637274 427.506609 436.239129 427.830055 429.992036 C 428.746485 414.983908 428.293661 399.867886 428.369131 384.82739 C 421.393482 383.252129 413.684689 381.87108 408.498774 376.476354 C 404.477264 372.343993 403.431456 367.326898 402.159235 361.910593 C 396.261739 359.914545 389.911419 359.159283 384.337369 356.645341 C 380.757901 354.854291 377.264686 352.081402 375.259322 348.57483 C 373.534277 345.42431 374.666338 341.270371 378.019393 339.803006 C 381.620423 339.155639 384.337369 342.133527 386.924936 344.107997 C 393.415416 349.945091 402.515026 347.60378 409.479893 353.50561 C 414.611901 357.476128 413.458277 363.680063 416.638828 368.330317 C 419.517496 371.124785 424.606378 371.912415 428.347568 373.00215 C 428.530854 354.670871 428.326005 336.328802 428.530854 317.997523 C 428.476947 313.692532 428.584762 309.765171 425.943287 306.118336 C 421.781617 300.054664 414.159077 298.004668 407.194209 299.525981 C 404.779147 300.270453 402.54737 301.845713 400.412628 303.162026 Z M 400.412628 303.162026 " transform="matrix(0.362309,0,0,0.362043,0.00483429,0)"/><path style="fill-rule:nonzero;fill:#000000;fill-opacity:1;stroke-width:13.333333;stroke-linecap:butt;stroke-linejoin:miter;stroke:#ffffff;stroke-opacity:1;stroke-miterlimit:4;" d="M 407.194209 299.525981 C 414.159077 298.004668 421.781617 300.054664 425.943287 306.118336 C 428.584762 309.765171 428.476947 313.692532 428.530854 317.997523 C 428.326005 336.328802 428.530854 354.670871 428.347568 373.00215 C 424.606378 371.912415 419.517496 371.124785 416.638828 368.330317 C 413.458277 363.680063 414.611901 357.476128 409.479893 353.50561 C 402.515026 347.60378 393.415416 349.945091 386.924936 344.107997 C 384.337369 342.133527 381.620423 339.155639 378.019393 339.803006 C 374.666338 341.270371 373.534277 345.42431 375.259322 348.57483 C 377.264686 352.081402 380.757901 354.854291 384.337369 356.645341 C 389.911419 359.159283 396.261739 359.914545 402.159235 361.910593 C 403.431456 367.326898 404.477264 372.343993 408.498774 376.476354 C 413.684689 381.87108 421.393482 383.252129 428.369131 384.82739 C 428.293661 399.867886 428.746485 414.983908 427.830055 429.992036 C 427.506609 436.239129 428.185845 442.637274 427.377231 448.83042 C 426.568616 453.73962 422.946022 457.915138 417.975738 458.896978 C 409.425986 461.022501 400.466535 452.412518 401.382965 443.888851 C 402.029857 440.037016 405.479946 436.692286 406.514973 432.937557 C 407.107957 429.010196 403.097228 426.345201 399.517761 427.478094 C 395.722663 428.783618 393.059625 433.228872 391.560993 436.724654 C 389.242964 442.216485 389.976108 447.492528 390.493621 453.232516 C 386.428985 453.912252 381.728239 454.807776 377.674384 453.93383 C 371.442661 452.401728 366.181275 447.384633 363.173228 441.860434 C 361.146301 438.073336 361.264898 434.297028 361.146301 430.143088 C 365.987207 427.974409 370.644827 426.334412 374.094917 422.061789 C 376.811862 418.88969 377.868452 414.595488 380.509926 411.466547 C 383.550317 408.801552 389.242964 409.060499 392.003035 406.050242 C 393.480105 403.104721 392.81165 398.724204 389.14593 397.81789 C 381.340104 396.285788 372.63941 400.925252 369.006035 407.927607 C 367.06536 411.132074 365.814703 415.588118 362.051949 417.066272 C 357.135572 419.062321 350.957756 419.234952 346.170758 416.774957 C 336.542853 411.175232 333.405428 397.753153 339.195109 388.312383 C 340.305606 386.683175 341.793457 384.600811 343.982107 384.600811 C 349.653191 384.395811 355.518343 386.111334 360.952233 383.489497 C 363.636834 382.086869 366.752696 379.443453 366.375342 376.055565 C 366.353779 373.843727 364.402322 371.243469 361.976478 371.534784 C 356.898378 371.869257 352.305447 374.437147 346.990154 373.20715 C 343.486157 372.354783 340.963279 369.873209 339.70184 366.539268 C 335.529389 356.105868 341.858146 343.126157 351.949657 338.788797 C 353.577668 337.850115 356.014293 337.030117 357.038538 335.37933 C 358.407792 331.861969 358.537171 327.913029 360.025022 324.384879 C 362.051949 319.367783 366.235182 315.613054 370.418415 312.387008 C 373.512714 310.088855 377.059837 307.833859 380.984313 307.477807 C 384.790193 307.294386 388.865611 308.718594 391.517867 311.491483 C 394.493569 314.631214 395.205149 319.745414 397.997565 322.906724 C 400.85467 324.622247 405.329005 323.618828 406.299342 320.112256 C 407.55 313.768058 403.636305 308.21149 400.412628 303.162026 C 402.54737 301.845713 404.779147 300.270453 407.194209 299.525981 Z M 407.194209 299.525981 " transform="matrix(0.362309,0,0,0.362043,0.00483429,0)"/><path style="fill-rule:nonzero;fill:#000000;fill-opacity:1;stroke-width:13.333333;stroke-linecap:butt;stroke-linejoin:miter;stroke:#fc786c;stroke-opacity:1;stroke-miterlimit:4;" d="M 468.929242 301.921239 C 477.964163 303.830972 486.567822 307.574912 493.737539 313.455164 C 500.691625 318.65568 505.629565 325.474613 510.006866 332.865388 C 519.052568 327.028294 529.29502 323.715933 540.130456 324.697773 C 542.728805 325.010667 545.122304 326.229875 546.329835 328.625133 C 547.364862 331.160655 547.300173 334.300385 547.364862 336.997748 C 547.246265 355.005344 547.343299 373.00215 547.343299 390.998956 C 547.235484 393.243162 547.257047 396.026841 546.103423 398.0121 C 544.464631 400.342622 541.801593 400.741831 539.235589 401.421567 C 532.46479 403.029195 526.114469 404.043404 520.443385 408.4455 C 516.066085 411.714704 513.974468 416.569958 510.147025 420.162845 C 508.023064 422.148104 505.025799 421.608632 502.880275 419.968635 C 498.254999 416.472853 494.686313 411.552862 489.65134 408.305237 C 482.783506 403.827615 475.063932 402.694722 467.0856 401.831566 C 463.409099 401.507883 460.465742 400.083675 457.533166 397.925784 C 457.716452 368.956105 457.608637 339.964848 457.608637 310.984379 C 457.705671 308.394911 457.975209 304.931496 460.131514 303.129658 C 462.525014 301.004136 466.007448 301.468082 468.929242 301.921239 Z M 469.425192 390.211326 C 475.635353 390.804746 481.899421 391.883691 487.786135 393.987634 C 492.648605 395.746315 496.63777 398.627099 500.702406 401.74525 C 500.767096 383.82397 500.691625 365.90269 500.734751 347.98141 C 500.821003 343.169315 499.678161 338.896692 497.166065 334.7967 C 491.106846 325.075404 480.90752 316.735157 469.608478 314.167267 C 469.177217 318.073049 469.349721 322.075936 469.33894 326.003296 C 469.403629 347.39878 469.306595 368.805053 469.425192 390.211326 Z M 512.669903 398.939993 C 519.893527 394.947896 527.203404 392.067112 535.440491 391.020535 C 535.56987 372.743203 535.526744 354.455082 535.505181 336.16696 C 529.165642 337.5588 521.101058 338.810376 516.044522 343.093789 C 512.745374 345.996151 512.637559 349.901933 512.572869 354.001925 C 512.702248 368.977684 512.572869 383.964233 512.669903 398.939993 Z M 512.669903 398.939993 " transform="matrix(0.362309,0,0,0.362043,0.00483429,0)"/><path style="fill-rule:nonzero;fill:#000000;fill-opacity:1;stroke-width:13.333333;stroke-linecap:butt;stroke-linejoin:miter;stroke:#ffffff;stroke-opacity:1;stroke-miterlimit:4;" d="M 469.608478 314.167267 C 480.90752 316.735157 491.106846 325.075404 497.166065 334.7967 C 499.678161 338.896692 500.821003 343.169315 500.734751 347.98141 C 500.691625 365.90269 500.767096 383.82397 500.702406 401.74525 C 496.63777 398.627099 492.648605 395.746315 487.786135 393.987634 C 481.899421 391.883691 475.635353 390.804746 469.425192 390.211326 C 469.306595 368.805053 469.403629 347.39878 469.33894 326.003296 C 469.349721 322.075936 469.177217 318.073049 469.608478 314.167267 Z M 469.608478 314.167267 " transform="matrix(0.362309,0,0,0.362043,0.00483429,0)"/><path style="fill-rule:nonzero;fill:#000000;fill-opacity:1;stroke-width:13.333333;stroke-linecap:butt;stroke-linejoin:miter;stroke:#ffffff;stroke-opacity:1;stroke-miterlimit:4;" d="M 535.505181 336.16696 C 535.526744 354.455082 535.56987 372.743203 535.440491 391.020535 C 527.203404 392.067112 519.893527 394.947896 512.669903 398.939993 C 512.572869 383.964233 512.702248 368.977684 512.572869 354.001925 C 512.637559 349.901933 512.745374 345.996151 516.044522 343.093789 C 521.101058 338.810376 529.165642 337.5588 535.505181 336.16696 Z M 535.505181 336.16696 " transform="matrix(0.362309,0,0,0.362043,0.00483429,0)"/><path style="fill-rule:nonzero;fill:#000000;fill-opacity:1;stroke-width:13.333333;stroke-linecap:butt;stroke-linejoin:miter;stroke:#89d8da;stroke-opacity:1;stroke-miterlimit:4;" d="M 473.00466 436.174392 C 486.330629 436.271497 499.66738 436.271497 513.004131 436.185182 C 515.548571 436.260708 518.513492 436.131234 520.896209 437.113075 C 524.863812 438.537282 524.745215 445.464111 520.69136 446.65095 C 517.694095 447.665159 514.146973 447.514106 510.998766 447.535685 C 501.004289 447.406212 490.999031 447.470949 481.004554 447.44937 C 476.32537 447.417001 471.570716 447.740685 466.913096 447.341475 C 464.993984 447.082528 463.06409 446.780424 462.126097 444.859901 C 461.004818 442.389117 461.285138 438.321493 464.196151 437.19939 C 466.859188 436.088077 470.169118 436.249918 473.00466 436.174392 Z M 473.00466 436.174392 " transform="matrix(0.362309,0,0,0.362043,0.00483429,0)"/><path style="fill-rule:nonzero;fill:#000000;fill-opacity:1;stroke-width:13.333333;stroke-linecap:butt;stroke-linejoin:miter;stroke:#89d8da;stroke-opacity:1;stroke-miterlimit:4;" d="M 476.001924 455.433564 C 484.691837 455.735669 492.4761 454.440935 501.004289 456.954877 C 500.691625 459.382504 500.918037 462.500655 499.66738 464.658546 C 497.931554 466.471174 494.395212 466.557489 492.044839 466.676173 C 485.360291 466.7517 478.675744 466.622226 472.001977 466.730121 C 469.209561 466.643805 465.285085 466.870384 462.967056 465.046966 C 460.487305 462.500655 461.23123 457.138298 464.843042 455.994616 C 468.368602 455.045144 472.368549 455.455143 476.001924 455.433564 Z M 476.001924 455.433564 " transform="matrix(0.362309,0,0,0.362043,0.00483429,0)"/><path style="fill-rule:nonzero;fill:#000000;fill-opacity:1;stroke-width:13.333333;stroke-linecap:butt;stroke-linejoin:miter;stroke:#516c75;stroke-opacity:1;stroke-miterlimit:4;" d="M 553.521115 564.709136 C 558.243424 563.975453 563.235272 564.471768 568.033052 564.374663 C 573.035682 563.921506 578.620513 567.654656 579.526162 572.714909 C 581.100265 578.530424 582.739057 584.443044 583.375167 590.441979 C 579.590851 590.560663 575.77419 590.744084 571.979092 590.539084 C 570.706871 590.355663 569.574811 590.539084 568.809322 589.309086 C 566.566764 585.953567 565.423922 581.680944 564.054668 577.904636 C 561.143656 581.055156 558.448273 584.410675 555.591168 587.604353 C 554.232696 588.931456 553.13298 590.528295 551.062926 590.528295 C 547.343299 590.700926 543.39726 590.916715 539.720758 590.269348 C 537.89868 589.114876 538.491664 585.802515 538.631824 583.946729 C 540.08733 580.18121 543.375696 577.0199 545.715288 573.750696 C 548.184258 570.783597 550.362127 566.942552 553.521115 564.709136 Z M 553.521115 564.709136 " transform="matrix(0.362309,0,0,0.362043,0.00483429,0)"/><path style="fill-rule:nonzero;fill:#000000;fill-opacity:1;stroke-width:13.333333;stroke-linecap:butt;stroke-linejoin:miter;stroke:#516c75;stroke-opacity:1;stroke-miterlimit:4;" d="M 212.87872 564.806241 C 216.188649 564.277558 219.660301 564.547294 223.002575 564.514925 C 239.32581 564.579662 255.670607 564.536504 272.004623 564.536504 C 278.020716 564.719925 283.120379 563.328086 288.198478 567.438867 C 288.112226 571.948858 288.424891 576.512796 288.047537 581.011998 C 287.821125 583.13752 286.786098 584.993306 284.565103 585.457252 C 280.144677 586.223303 275.476275 585.716199 271.00194 585.845672 C 258.128795 585.586725 245.287995 586.039882 232.425631 586.180145 C 232.479539 597.638544 232.49032 609.107731 232.425631 620.566129 C 245.95645 620.479814 259.498049 620.522972 273.018086 620.512182 C 275.918317 620.652445 279.185121 620.630866 279.875138 624.137438 C 280.317181 628.517956 280.38187 633.535051 279.767323 637.893989 C 278.559792 640.947404 275.756595 640.558984 273.018086 640.742405 C 259.487268 640.710036 245.967231 640.753194 232.447194 640.710036 C 232.404068 652.330276 232.41485 663.939727 232.425631 675.549177 C 248.28526 675.527599 264.144888 675.549177 280.015298 675.527599 C 282.818496 675.484441 285.524659 676.002334 288.263168 676.617333 C 289.524607 681.440218 289.503043 686.32784 289.244287 691.25862 C 289.211942 692.747564 288.554269 694.290456 287.43299 695.283085 C 285.341373 696.491504 282.35489 696.362031 280.015298 696.437557 C 259.012881 696.38361 237.9889 696.415978 216.986482 696.415978 C 215.045807 696.318873 212.469022 696.415978 210.819448 695.250717 C 208.814084 693.567563 208.965025 690.384674 208.824865 688.010995 C 208.846428 652.697118 208.835647 617.318504 208.835647 582.004627 C 208.900336 577.678057 208.555327 573.232803 209.148311 568.938601 C 209.450194 566.813079 210.819448 565.356503 212.87872 564.806241 Z M 212.87872 564.806241 " transform="matrix(0.362309,0,0,0.362043,0.00483429,0)"/><path style="fill-rule:nonzero;fill:#000000;fill-opacity:1;stroke-width:13.333333;stroke-linecap:butt;stroke-linejoin:miter;stroke:#516c75;stroke-opacity:1;stroke-miterlimit:4;" d="M 739.448575 570.632545 C 743.426959 569.93123 747.955201 569.898862 751.071063 572.865961 C 757.033248 577.548584 756.796054 588.25172 750.542768 592.57829 C 744.451204 597.088281 735.017367 594.887233 731.879942 587.884879 C 728.429853 581.346471 732.332766 572.509909 739.448575 570.632545 Z M 739.448575 570.632545 " transform="matrix(0.362309,0,0,0.362043,0.00483429,0)"/><path style="fill-rule:nonzero;fill:#000000;fill-opacity:1;stroke-width:13.333333;stroke-linecap:butt;stroke-linejoin:miter;stroke:#516c75;stroke-opacity:1;stroke-miterlimit:4;" d="M 456.023752 600.012223 C 464.993984 601.382483 472.789029 606.032737 478.79434 612.765355 C 479.204038 609.852203 477.985726 603.993531 481.629882 602.882217 C 486.222814 601.954324 491.225443 602.331955 495.893845 602.526165 C 498.11484 602.655639 499.462531 603.8209 500.044733 605.968001 C 500.637717 608.881153 500.411305 612.031673 500.44365 614.998772 C 500.346616 638.001884 500.465213 661.004996 500.357398 683.997318 C 499.990826 692.715196 498.977362 702.123598 495.063667 710.021477 C 490.406047 720.141983 481.101587 727.824073 470.837572 731.805381 C 453.554782 738.225105 433.091441 736.649845 417.555258 726.464602 C 415.280356 724.749079 412.822167 723.281714 413.210302 720.023299 C 413.857194 715.362256 417.307283 710.863054 419.970321 707.097535 C 423.754637 707.971481 426.935188 709.924372 430.417622 711.54279 C 436.908102 714.660941 443.819062 716.07436 451.010341 715.718308 C 459.258211 715.308309 468.314695 712.190157 473.144819 705.123066 C 477.554465 698.92992 477.737751 690.028622 477.856347 682.734953 C 473.802493 686.651524 469.382066 689.996254 464.012865 691.895197 C 449.188263 697.35466 430.633252 693.966772 419.495933 682.476006 C 410.784458 673.553129 406.482628 661.371837 406.21309 648.996336 C 405.814174 639.523197 407.431403 630.114794 411.744014 621.623496 C 415.970373 613.682459 422.805863 606.669315 431.129203 603.054848 C 438.859559 599.559066 447.678849 598.900909 456.023752 600.012223 Z M 449.52249 618.904554 C 443.269204 619.508763 437.414834 622.540599 433.695206 627.654799 C 429.220872 633.632156 428.293661 641.756613 428.584762 649.007125 C 428.778829 656.117374 430.557782 663.054992 435.819168 668.136824 C 441.89995 674.12497 450.891744 675.49523 459.04258 674.168128 C 465.058673 672.959709 471.258052 669.938662 474.611107 664.576305 C 478.071978 659.34342 478.869811 652.136066 478.923719 646.007657 C 478.632617 638.87583 477.651498 630.98874 472.217608 625.777435 C 466.244641 619.476395 457.813486 618.160081 449.52249 618.904554 Z M 449.52249 618.904554 " transform="matrix(0.362309,0,0,0.362043,0.00483429,0)"/><path style="fill-rule:nonzero;fill:#000000;fill-opacity:1;stroke-width:13.333333;stroke-linecap:butt;stroke-linejoin:miter;stroke:#516c75;stroke-opacity:1;stroke-miterlimit:4;" d="M 576.248577 601.673799 C 587.579964 605.514844 597.013801 614.372984 601.531262 625.453751 C 604.895098 633.54584 605.876218 642.371612 605.347923 651.0787 C 605.1862 653.117906 604.021795 655.113955 601.854707 655.426849 C 597.617567 655.912375 593.261829 655.567112 589.003125 655.631849 C 571.871276 655.664217 554.739428 655.556323 537.61836 655.696585 C 538.599479 660.379208 539.515909 664.813673 542.049568 668.946033 C 545.240901 674.383917 550.642447 678.203383 556.701666 679.746274 C 563.00886 681.526534 569.962946 680.318115 575.957476 677.955225 C 581.62856 675.732598 585.995079 672.118132 591.22412 669.140243 C 595.52595 672.377079 598.954476 676.250492 600.000284 681.699165 C 595.515169 687.244944 590.350816 691.895197 583.752521 694.765192 C 572.24863 699.836234 559.159854 700.915179 547.224702 696.707293 C 536.162854 693.0173 526.793706 685.043895 521.165748 674.847863 C 514.944806 663.637622 514.319477 651.27291 515.904362 638.789514 C 518.190046 626.619012 524.702089 615.095877 534.987667 607.974839 C 546.653281 599.408014 562.577599 597.336439 576.248577 601.673799 Z M 537.812428 639.749775 C 553.316266 639.943985 568.830885 639.792933 584.334723 639.825301 C 583.590798 633.394788 582.135292 627.341905 577.294385 622.71323 C 573.218968 618.624028 567.655699 617.059557 561.995396 617.264557 C 555.60195 617.124294 549.628983 619.638236 545.262464 624.29928 C 541.025323 628.701376 539.354186 633.998997 537.812428 639.749775 Z M 537.812428 639.749775 " transform="matrix(0.362309,0,0,0.362043,0.00483429,0)"/><path style="fill-rule:nonzero;fill:#000000;fill-opacity:1;stroke-width:13.333333;stroke-linecap:butt;stroke-linejoin:miter;stroke:#516c75;stroke-opacity:1;stroke-miterlimit:4;" d="M 684.549031 600.594853 C 692.937061 602.666428 700.333189 608.093523 704.408607 615.754034 C 707.276494 621.34297 708.775126 627.708747 708.634966 633.998997 C 708.581059 652.341066 708.581059 670.693924 708.634966 689.035993 C 708.537932 690.827042 708.775126 693.071248 707.546032 694.527824 C 706.155215 696.545451 703.15795 696.264926 701.001644 696.415978 C 697.098731 696.38361 692.893935 696.739661 689.088055 695.79019 C 686.058445 694.80835 686.209387 691.64704 686.101572 689.025203 C 686.123135 672.34471 686.220168 655.653428 686.112353 638.972935 C 685.896723 631.949001 683.848232 624.266911 676.872583 621.14876 C 668.074856 617.39403 655.848602 618.861396 649.282652 626.26296 C 645.53068 630.2119 643.460626 635.541889 643.4175 640.979773 C 643.320466 658.76079 643.525315 676.563386 643.320466 694.344403 C 641.282757 695.304664 639.374427 696.286504 637.034835 696.351241 C 631.536256 696.459136 626.415029 697.128082 621.444745 694.365982 C 621.27224 666.23788 621.455526 638.109779 621.336929 609.970887 C 621.423182 608.384838 621.283022 606.496684 621.908351 604.99695 C 622.900251 603.529584 624.334194 602.644849 626.113147 602.515376 C 629.951371 602.23485 634.016007 602.24564 637.865013 602.515376 C 639.633183 602.688007 641.358228 603.173532 642.091372 604.964582 C 642.964676 607.651155 642.576541 610.855622 642.522633 613.66088 C 653.174783 602.385902 669.347076 597.001966 684.549031 600.594853 Z M 684.549031 600.594853 " transform="matrix(0.362309,0,0,0.362043,0.00483429,0)"/><path style="fill-rule:nonzero;fill:#000000;fill-opacity:1;stroke-width:13.333333;stroke-linecap:butt;stroke-linejoin:miter;stroke:#516c75;stroke-opacity:1;stroke-miterlimit:4;" d="M 819.0486 599.774855 C 830.358424 600.67038 841.269331 607.392208 846.261178 617.739293 C 849.053594 623.651913 850.034713 630.514004 850.261125 636.987675 C 850.271907 654.002642 850.207218 670.996029 850.304252 688.010995 C 850.390504 691.096778 849.625015 693.567563 848.24498 696.275715 C 841.883878 696.340452 835.867785 696.95545 829.603717 695.444927 C 828.935262 691.85204 828.644161 688.431783 828.698068 684.774159 C 823.760128 691.690198 816.374781 696.157031 808.170038 698.109922 C 794.110925 702.069651 776.461562 695.250717 770.413125 681.515744 C 765.08705 668.79498 769.820141 650.970805 783.00595 645.015028 C 796.33192 638.746356 810.854639 641.368193 824.935315 637.958726 C 826.250661 637.635043 827.458193 637.149517 828.482438 636.232414 C 828.870573 631.528213 827.738512 626.090329 824.40702 622.583757 C 821.948831 620.15613 818.487961 618.699554 815.070216 618.375871 C 807.512365 617.911924 800.385774 617.890345 793.517941 621.504812 C 790.110978 622.993756 786.876519 626.122697 783.210799 626.705328 C 780.752611 626.46796 778.811936 623.30665 777.475026 621.483233 C 775.706855 618.742712 773.604457 615.020351 775.847015 611.945357 C 779.469609 607.489313 785.442576 604.59774 790.747088 602.688007 C 799.965295 599.343277 809.366788 599.138277 819.0486 599.774855 Z M 828.687287 651.143437 C 820.504107 654.142904 812.169985 653.754484 803.717267 655.232639 C 798.585259 656.246848 792.892612 658.253686 790.811777 663.551307 C 789.054388 667.597351 790.046288 672.021027 792.515258 675.527599 C 795.641902 679.62759 800.892506 681.80706 805.992169 681.688376 C 812.105296 681.785481 818.250767 678.807592 822.584942 674.610495 C 825.485173 671.76208 828.169773 668.255508 828.514782 664.0692 C 828.859791 659.774998 828.611816 655.437639 828.687287 651.143437 Z M 828.687287 651.143437 " transform="matrix(0.362309,0,0,0.362043,0.00483429,0)"/><path style="fill-rule:nonzero;fill:#000000;fill-opacity:1;stroke-width:13.333333;stroke-linecap:butt;stroke-linejoin:miter;stroke:#516c75;stroke-opacity:1;stroke-miterlimit:4;" d="M 310.925941 602.375113 C 316.241234 602.407481 321.675125 601.684588 326.494468 604.090636 C 326.839477 617.706925 326.526813 631.366371 326.634628 645.004238 C 326.796351 652.632381 325.869139 659.602367 328.305765 666.949984 C 330.127843 672.73313 335.011876 677.135227 340.984842 678.25733 C 345.426832 678.980223 350.203049 678.775224 354.494098 677.286279 C 362.677278 674.362338 368.941346 667.003931 368.768841 658.027107 C 368.747278 640.127406 368.75806 622.292442 368.768841 604.392741 C 370.774206 603.432479 372.650192 602.493797 374.925094 602.418271 C 380.348203 602.310376 385.415522 601.619851 390.288772 604.371162 C 390.428932 634.052944 390.277991 663.734727 390.375025 693.41651 C 389.544847 694.376771 388.725451 695.347822 387.906055 696.318873 C 381.87918 696.286504 376.16497 696.847556 370.224348 695.542032 C 369.39417 692.672038 368.865875 689.845202 368.553211 686.867313 C 358.558734 697.699923 342.289407 701.648862 328.230294 697.818607 C 321.2223 696.157031 314.87198 692.272828 310.699529 686.317051 C 306.225194 679.886537 304.510931 671.75129 304.478587 664.015253 C 304.467805 647.680023 304.510931 631.344792 304.435461 614.998772 C 304.467805 611.859041 304.187485 608.557469 304.758906 605.471686 C 305.49205 602.698797 308.564786 602.493797 310.925941 602.375113 Z M 310.925941 602.375113 " transform="matrix(0.362309,0,0,0.362043,0.00483429,0)"/><path style="fill-rule:nonzero;fill:#000000;fill-opacity:1;stroke-width:13.333333;stroke-linecap:butt;stroke-linejoin:miter;stroke:#516c75;stroke-opacity:1;stroke-miterlimit:4;" d="M 750.381045 602.558534 C 751.351382 603.464848 752.32172 604.349583 753.302839 605.245107 C 753.475344 635.056364 753.464562 664.878409 753.292058 694.689666 C 751.26513 695.509664 749.270547 696.264926 747.038771 696.340452 C 741.518628 696.437557 736.559125 697.311502 731.664311 694.225719 C 731.65353 664.295779 731.578059 634.365839 731.685874 604.435898 C 736.893353 601.188273 744.429641 602.62327 750.381045 602.558534 Z M 750.381045 602.558534 " transform="matrix(0.362309,0,0,0.362043,0.00483429,0)"/><path style="fill-rule:nonzero;fill:#000000;fill-opacity:1;stroke-width:13.333333;stroke-linecap:butt;stroke-linejoin:miter;stroke:#ffffff;stroke-opacity:1;stroke-miterlimit:4;" d="M 561.995396 617.264557 C 567.655699 617.059557 573.218968 618.624028 577.294385 622.71323 C 582.135292 627.341905 583.590798 633.394788 584.334723 639.825301 C 568.830885 639.792933 553.316266 639.943985 537.812428 639.749775 C 539.354186 633.998997 541.025323 628.701376 545.262464 624.29928 C 549.628983 619.638236 555.60195 617.124294 561.995396 617.264557 Z M 561.995396 617.264557 " transform="matrix(0.362309,0,0,0.362043,0.00483429,0)"/><path style="fill-rule:nonzero;fill:#000000;fill-opacity:1;stroke-width:13.333333;stroke-linecap:butt;stroke-linejoin:miter;stroke:#ffffff;stroke-opacity:1;stroke-miterlimit:4;" d="M 449.52249 618.904554 C 457.813486 618.160081 466.244641 619.476395 472.217608 625.777435 C 477.651498 630.98874 478.632617 638.87583 478.923719 646.007657 C 478.869811 652.136066 478.071978 659.34342 474.611107 664.576305 C 471.258052 669.938662 465.058673 672.959709 459.04258 674.168128 C 450.891744 675.49523 441.89995 674.12497 435.819168 668.136824 C 430.557782 663.054992 428.778829 656.117374 428.584762 649.007125 C 428.293661 641.756613 429.220872 633.632156 433.695206 627.654799 C 437.414834 622.540599 443.269204 619.508763 449.52249 618.904554 Z M 449.52249 618.904554 " transform="matrix(0.362309,0,0,0.362043,0.00483429,0)"/><path style="fill-rule:nonzero;fill:#000000;fill-opacity:1;stroke-width:13.333333;stroke-linecap:butt;stroke-linejoin:miter;stroke:#ffffff;stroke-opacity:1;stroke-miterlimit:4;" d="M 828.687287 651.143437 C 828.611816 655.437639 828.859791 659.774998 828.514782 664.0692 C 828.169773 668.255508 825.485173 671.76208 822.584942 674.610495 C 818.250767 678.807592 812.105296 681.785481 805.992169 681.688376 C 800.892506 681.80706 795.641902 679.62759 792.515258 675.527599 C 790.046288 672.021027 789.054388 667.597351 790.811777 663.551307 C 792.892612 658.253686 798.585259 656.246848 803.717267 655.232639 C 812.169985 653.754484 820.504107 654.142904 828.687287 651.143437 Z M 828.687287 651.143437 " transform="matrix(0.362309,0,0,0.362043,0.00483429,0)"/><g clip-rule="nonzero" clip-path="url(#df37cf3d7d)"><path style=" stroke:none;fill-rule:nonzero;fill:#ffffff;fill-opacity:1;" d="M 0.00390625 0 L 374.996094 0 L 374.996094 366.75 L 0.00390625 366.75 Z M 104.484375 166.640625 C 104.582031 167.285156 104.402344 168.003906 104.25 168.628906 C 102.429688 174.847656 100.71875 181.105469 98.972656 187.347656 C 98.679688 188.535156 98.269531 189.964844 98.636719 191.164062 C 99.113281 193 100.996094 194.382812 102.90625 194.171875 C 104.8125 193.964844 106.6875 193.03125 108.511719 192.453125 C 113.363281 190.875 118.183594 189.253906 122.921875 187.363281 C 123.792969 187.074219 124.921875 186.558594 125.84375 186.796875 C 127.464844 187.28125 128.960938 188.25 130.523438 188.914062 C 136.832031 191.644531 143.507812 193.445312 150.355469 194.109375 C 154.488281 194.402344 158.535156 194.835938 162.679688 194.3125 C 172.484375 193.613281 182.078125 190.742188 190.511719 185.664062 C 202.609375 178.503906 212.617188 166.851562 216.714844 153.304688 C 219.609375 143.703125 219.773438 133.324219 216.964844 123.675781 C 215 116.699219 211.4375 110.316406 206.824219 104.738281 C 201.746094 98.8125 195.621094 93.824219 188.714844 90.164062 C 180.238281 85.605469 170.824219 83.113281 161.234375 82.492188 C 152.25 82.140625 143.273438 83.070312 134.765625 86.085938 C 126.148438 89.125 117.945312 94.042969 111.566406 100.617188 C 102.617188 109.308594 96.953125 121.246094 96.089844 133.699219 C 95.609375 138.164062 96.050781 142.769531 96.796875 147.179688 C 97.960938 153.15625 100.007812 159.179688 103.320312 164.324219 C 103.75 165.046875 104.277344 165.820312 104.484375 166.640625 Z M 204.367188 209.226562 C 204.863281 210.59375 205.277344 212.140625 206.089844 213.355469 C 206.367188 213.800781 206.777344 213.734375 207.238281 213.800781 C 208.613281 213.875 209.996094 213.808594 211.367188 213.765625 C 211.136719 211.59375 210.542969 209.453125 209.972656 207.347656 C 209.644531 205.515625 207.621094 204.164062 205.808594 204.328125 C 204.070312 204.363281 202.261719 204.183594 200.550781 204.449219 C 199.40625 205.257812 198.617188 206.648438 197.722656 207.722656 C 196.875 208.90625 195.683594 210.050781 195.15625 211.414062 C 195.105469 212.085938 194.890625 213.285156 195.550781 213.703125 C 196.882812 213.9375 198.3125 213.859375 199.660156 213.796875 C 200.410156 213.796875 200.808594 213.21875 201.300781 212.738281 C 202.335938 211.582031 203.3125 210.367188 204.367188 209.226562 Z M 104.445312 244.964844 C 103.453125 244.742188 102.472656 244.554688 101.457031 244.570312 C 95.707031 244.578125 89.960938 244.570312 84.214844 244.578125 C 84.210938 240.375 84.207031 236.171875 84.222656 231.964844 C 89.121094 231.980469 94.019531 231.964844 98.921875 231.976562 C 99.914062 231.910156 100.929688 232.050781 101.367188 230.945312 C 101.589844 229.367188 101.566406 227.550781 101.40625 225.964844 C 101.15625 224.695312 99.972656 224.703125 98.921875 224.652344 C 94.023438 224.65625 89.117188 224.640625 84.214844 224.671875 C 84.238281 220.523438 84.234375 216.371094 84.214844 212.222656 C 88.875 212.171875 93.527344 212.007812 98.191406 212.101562 C 99.8125 212.054688 101.503906 212.238281 103.105469 211.960938 C 103.910156 211.792969 104.285156 211.121094 104.367188 210.351562 C 104.503906 208.722656 104.390625 207.070312 104.421875 205.4375 C 102.582031 203.949219 100.734375 204.453125 98.554688 204.386719 C 92.636719 204.386719 86.714844 204.402344 80.800781 204.378906 C 79.589844 204.390625 78.332031 204.292969 77.132812 204.484375 C 76.386719 204.683594 75.890625 205.210938 75.78125 205.980469 C 75.566406 207.535156 75.691406 209.144531 75.667969 210.710938 C 75.667969 223.496094 75.671875 236.304688 75.664062 249.089844 C 75.714844 249.949219 75.660156 251.101562 76.386719 251.710938 C 76.984375 252.132812 77.917969 252.097656 78.621094 252.132812 C 86.230469 252.132812 93.847656 252.121094 101.457031 252.140625 C 102.304688 252.113281 103.386719 252.160156 104.144531 251.722656 C 104.550781 251.363281 104.789062 250.804688 104.800781 250.265625 C 104.894531 248.480469 104.902344 246.710938 104.445312 244.964844 Z M 267.914062 206.59375 C 265.335938 207.273438 263.921875 210.472656 265.171875 212.839844 C 266.308594 215.375 269.726562 216.171875 271.933594 214.539062 C 274.199219 212.972656 274.285156 209.097656 272.125 207.402344 C 270.996094 206.328125 269.355469 206.339844 267.914062 206.59375 Z M 173.136719 247.179688 C 173.09375 249.820312 173.027344 253.042969 171.429688 255.285156 C 169.679688 257.84375 166.398438 258.972656 163.410156 259.121094 C 160.804688 259.25 158.300781 258.738281 155.949219 257.609375 C 154.6875 257.023438 153.535156 256.316406 152.164062 256 C 151.199219 257.363281 149.949219 258.992188 149.714844 260.679688 C 149.574219 261.859375 150.464844 262.390625 151.289062 263.011719 C 156.917969 266.699219 164.332031 267.269531 170.59375 264.945312 C 174.3125 263.503906 177.683594 260.722656 179.371094 257.058594 C 180.789062 254.199219 181.15625 250.792969 181.289062 247.636719 C 181.328125 239.3125 181.285156 230.984375 181.320312 222.65625 C 181.308594 221.582031 181.390625 220.441406 181.175781 219.386719 C 180.964844 218.609375 180.476562 218.1875 179.671875 218.140625 C 177.980469 218.070312 176.167969 217.933594 174.503906 218.269531 C 173.183594 218.671875 173.625 220.792969 173.476562 221.847656 C 171.300781 219.410156 168.476562 217.726562 165.226562 217.230469 C 162.203125 216.828125 159.007812 217.066406 156.207031 218.332031 C 153.191406 219.640625 150.714844 222.179688 149.183594 225.054688 C 147.621094 228.128906 147.035156 231.535156 147.179688 234.964844 C 147.277344 239.445312 148.835938 243.855469 151.992188 247.085938 C 156.027344 251.246094 162.75 252.472656 168.121094 250.496094 C 170.066406 249.808594 171.667969 248.597656 173.136719 247.179688 Z M 217.390625 246.804688 C 217.011719 244.832031 215.769531 243.429688 214.210938 242.257812 C 212.316406 243.335938 210.734375 244.644531 208.679688 245.449219 C 206.507812 246.304688 203.988281 246.742188 201.703125 246.097656 C 199.507812 245.539062 197.550781 244.15625 196.394531 242.1875 C 195.476562 240.691406 195.144531 239.085938 194.789062 237.390625 C 200.992188 237.339844 207.199219 237.378906 213.40625 237.367188 C 214.949219 237.34375 216.527344 237.46875 218.0625 237.292969 C 218.847656 237.179688 219.269531 236.457031 219.328125 235.71875 C 219.519531 232.566406 219.164062 229.371094 217.945312 226.441406 C 216.308594 222.429688 212.890625 219.222656 208.785156 217.832031 C 203.832031 216.261719 198.0625 217.011719 193.835938 220.113281 C 190.109375 222.691406 187.75 226.863281 186.921875 231.269531 C 186.347656 235.789062 186.574219 240.265625 188.828125 244.324219 C 190.867188 248.015625 194.261719 250.902344 198.269531 252.238281 C 202.59375 253.761719 207.335938 253.371094 211.503906 251.535156 C 213.894531 250.496094 215.765625 248.8125 217.390625 246.804688 Z M 232.796875 222.171875 C 232.816406 221.15625 232.957031 219.996094 232.640625 219.023438 C 232.375 218.375 231.75 218.199219 231.109375 218.136719 C 229.714844 218.039062 228.242188 218.035156 226.851562 218.136719 C 226.207031 218.183594 225.6875 218.503906 225.328125 219.035156 C 225.101562 219.578125 225.152344 220.261719 225.121094 220.835938 C 225.164062 231.023438 225.097656 241.207031 225.160156 251.390625 C 226.960938 252.390625 228.816406 252.148438 230.808594 252.109375 C 231.65625 252.085938 232.347656 251.730469 233.085938 251.382812 C 233.160156 244.945312 233.085938 238.5 233.121094 232.0625 C 233.136719 230.09375 233.886719 228.164062 235.246094 226.734375 C 237.625 224.054688 242.054688 223.523438 245.242188 224.882812 C 247.769531 226.011719 248.511719 228.792969 248.589844 231.335938 C 248.628906 237.375 248.59375 243.417969 248.585938 249.457031 C 248.625 250.40625 248.570312 251.550781 249.667969 251.90625 C 251.046875 252.25 252.570312 252.121094 253.984375 252.132812 C 254.765625 252.078125 255.851562 252.179688 256.355469 251.449219 C 256.800781 250.921875 256.714844 250.109375 256.75 249.460938 C 256.730469 242.820312 256.730469 236.175781 256.75 229.535156 C 256.800781 227.257812 256.257812 224.953125 255.21875 222.929688 C 253.742188 220.15625 251.0625 218.191406 248.023438 217.441406 C 242.515625 216.140625 236.65625 218.089844 232.796875 222.171875 Z M 300.25 247.917969 C 300.230469 249.242188 300.335938 250.480469 300.578125 251.78125 C 302.847656 252.328125 305.027344 252.105469 307.332031 252.082031 C 307.832031 251.101562 308.109375 250.207031 308.078125 249.089844 C 308.042969 242.929688 308.066406 236.777344 308.0625 230.617188 C 307.980469 228.273438 307.625 225.789062 306.613281 223.648438 C 304.804688 219.902344 300.851562 217.46875 296.753906 217.144531 C 293.246094 216.914062 289.839844 216.988281 286.5 218.199219 C 284.578125 218.890625 282.414062 219.9375 281.101562 221.550781 C 280.289062 222.664062 281.050781 224.011719 281.691406 225.003906 C 282.175781 225.664062 282.878906 226.808594 283.769531 226.894531 C 285.097656 226.683594 286.269531 225.550781 287.503906 225.011719 C 289.992188 223.703125 292.574219 223.710938 295.3125 223.878906 C 296.550781 223.996094 297.804688 224.523438 298.695312 225.402344 C 299.902344 226.671875 300.3125 228.640625 300.171875 230.34375 C 299.800781 230.675781 299.363281 230.851562 298.886719 230.96875 C 293.785156 232.203125 288.523438 231.253906 283.695312 233.523438 C 278.917969 235.679688 277.203125 242.132812 279.132812 246.738281 C 281.324219 251.710938 287.71875 254.179688 292.8125 252.746094 C 295.785156 252.039062 298.460938 250.421875 300.25 247.917969 Z M 133.535156 248.675781 C 133.648438 249.753906 133.839844 250.777344 134.140625 251.816406 C 136.292969 252.289062 138.363281 252.085938 140.546875 252.097656 C 140.84375 251.746094 141.140625 251.394531 141.441406 251.046875 C 141.40625 240.300781 141.460938 229.554688 141.410156 218.808594 C 139.644531 217.8125 137.808594 218.0625 135.84375 218.101562 C 135.019531 218.128906 134.339844 218.46875 133.613281 218.816406 C 133.609375 225.296875 133.605469 231.753906 133.613281 238.234375 C 133.675781 241.484375 131.40625 244.148438 128.441406 245.207031 C 126.886719 245.746094 125.15625 245.820312 123.546875 245.558594 C 121.382812 245.152344 119.613281 243.558594 118.953125 241.464844 C 118.070312 238.804688 118.40625 236.28125 118.347656 233.519531 C 118.308594 228.582031 118.421875 223.636719 118.296875 218.707031 C 116.550781 217.835938 114.582031 218.097656 112.65625 218.085938 C 111.800781 218.128906 110.6875 218.203125 110.421875 219.207031 C 110.214844 220.324219 110.316406 221.519531 110.304688 222.65625 C 110.332031 228.574219 110.316406 234.488281 110.320312 240.402344 C 110.332031 243.203125 110.953125 246.148438 112.574219 248.476562 C 114.085938 250.632812 116.386719 252.039062 118.925781 252.640625 C 124.019531 254.027344 129.914062 252.597656 133.535156 248.675781 Z M 265.101562 218.832031 C 265.0625 229.667969 265.089844 240.503906 265.09375 251.339844 C 266.867188 252.457031 268.664062 252.140625 270.664062 252.105469 C 271.472656 252.078125 272.195312 251.804688 272.929688 251.507812 C 272.992188 240.714844 272.996094 229.917969 272.933594 219.125 C 272.578125 218.800781 272.226562 218.480469 271.875 218.152344 C 269.71875 218.175781 266.988281 217.65625 265.101562 218.832031 Z M 265.101562 218.832031 "/></g><path style=" stroke:none;fill-rule:nonzero;fill:#95e6ad;fill-opacity:1;" d="M 161.234375 82.492188 C 170.824219 83.113281 180.238281 85.605469 188.714844 90.164062 C 195.621094 93.824219 201.746094 98.8125 206.824219 104.738281 C 211.4375 110.316406 215 116.699219 216.964844 123.675781 C 219.773438 133.324219 219.609375 143.703125 216.714844 153.304688 C 212.617188 166.851562 202.609375 178.503906 190.511719 185.664062 C 182.078125 190.742188 172.484375 193.613281 162.679688 194.3125 C 158.535156 194.835938 154.488281 194.402344 150.355469 194.109375 C 143.507812 193.445312 136.832031 191.644531 130.523438 188.914062 C 128.960938 188.25 127.464844 187.28125 125.84375 186.796875 C 124.921875 186.558594 123.792969 187.074219 122.921875 187.363281 C 118.183594 189.253906 113.363281 190.875 108.511719 192.453125 C 106.6875 193.03125 104.8125 193.964844 102.90625 194.171875 C 100.996094 194.382812 99.113281 193 98.636719 191.164062 C 98.269531 189.964844 98.679688 188.535156 98.972656 187.347656 C 100.71875 181.105469 102.429688 174.847656 104.25 168.628906 C 104.402344 168.003906 104.582031 167.285156 104.484375 166.640625 C 104.277344 165.820312 103.75 165.046875 103.320312 164.324219 C 100.007812 159.179688 97.960938 153.15625 96.796875 147.179688 C 96.050781 142.769531 95.609375 138.164062 96.089844 133.699219 C 96.953125 121.246094 102.617188 109.308594 111.566406 100.617188 C 117.945312 94.042969 126.148438 89.125 134.765625 86.085938 C 143.273438 83.070312 152.25 82.140625 161.234375 82.492188 Z M 109.953125 182.15625 C 113.367188 181.101562 116.726562 179.835938 120.074219 178.582031 C 121.953125 177.890625 124.074219 176.757812 126.097656 176.761719 C 127.71875 176.722656 129.15625 177.773438 130.558594 178.492188 C 138.878906 182.871094 148.203125 185.183594 157.609375 185.15625 C 167.0625 185.050781 176.425781 182.796875 184.648438 178.074219 C 193.777344 172.960938 201.332031 165.238281 205.78125 155.726562 C 211.226562 144.230469 210.914062 130.136719 204.96875 118.890625 C 200.066406 109.890625 192.332031 102.839844 183.234375 98.195312 C 176.402344 94.730469 168.894531 92.589844 161.234375 92.148438 C 158.335938 92.0625 155.425781 92.042969 152.53125 92.203125 C 141.042969 93.125 129.6875 97.339844 120.847656 104.824219 C 112.414062 111.945312 106.582031 122.148438 105.621094 133.21875 C 105.480469 136.113281 105.503906 139.039062 105.605469 141.933594 C 106.03125 148.214844 108.117188 154.230469 111.285156 159.648438 C 112.144531 161.140625 113.398438 162.425781 114.132812 163.980469 C 114.632812 165.261719 114.21875 166.957031 113.898438 168.25 C 112.621094 172.898438 111.257812 177.511719 109.953125 182.15625 Z M 109.953125 182.15625 "/><path style=" stroke:none;fill-rule:nonzero;fill:#ffffff;fill-opacity:1;" d="M 152.53125 92.203125 C 155.425781 92.042969 158.335938 92.0625 161.234375 92.148438 C 168.894531 92.589844 176.402344 94.730469 183.234375 98.195312 C 192.332031 102.839844 200.066406 109.890625 204.96875 118.890625 C 210.914062 130.136719 211.226562 144.230469 205.78125 155.726562 C 201.332031 165.238281 193.777344 172.960938 184.648438 178.074219 C 176.425781 182.796875 167.0625 185.050781 157.609375 185.15625 C 148.203125 185.183594 138.878906 182.871094 130.558594 178.492188 C 129.15625 177.773438 127.71875 176.722656 126.097656 176.761719 C 124.074219 176.757812 121.953125 177.890625 120.074219 178.582031 C 116.726562 179.835938 113.367188 181.101562 109.953125 182.15625 C 111.257812 177.511719 112.621094 172.898438 113.898438 168.25 C 114.21875 166.957031 114.632812 165.261719 114.132812 163.980469 C 113.398438 162.425781 112.144531 161.140625 111.285156 159.648438 C 108.117188 154.230469 106.03125 148.214844 105.605469 141.933594 C 105.503906 139.039062 105.480469 136.113281 105.621094 133.21875 C 106.582031 122.148438 112.414062 111.945312 120.847656 104.824219 C 129.6875 97.339844 141.042969 93.125 152.53125 92.203125 Z M 125.671875 118.78125 C 123.761719 120.015625 121.957031 121.167969 120.683594 123.109375 C 118.933594 125.558594 118.300781 128.457031 118.585938 131.4375 C 118.710938 133.441406 119.628906 134.972656 120.550781 136.691406 C 119.269531 138.425781 118.199219 140.214844 117.894531 142.394531 C 117.183594 146.144531 118.296875 150.078125 121.035156 152.765625 C 122.582031 154.359375 124.507812 155.046875 126.589844 155.675781 C 126.660156 157.464844 126.703125 159.152344 127.347656 160.851562 C 128.5 164.121094 131.394531 166.597656 134.515625 167.933594 C 137.609375 169.175781 140.792969 168.605469 143.890625 167.722656 C 145.25 168.671875 146.589844 169.6875 148.230469 170.089844 C 151.105469 170.773438 154.367188 170.070312 156.503906 167.964844 C 158.273438 166.113281 159.125 163.652344 159.183594 161.113281 C 159.300781 146.746094 159.332031 132.390625 159.347656 118.027344 C 159.316406 115.5625 159.644531 112.699219 158.667969 110.40625 C 157.457031 107.40625 154.835938 105.019531 151.636719 104.339844 C 149.609375 103.925781 147.292969 103.882812 145.34375 104.648438 C 143.761719 105.28125 142.890625 106.527344 141.539062 107.421875 C 141.238281 107.628906 140.792969 107.5625 140.441406 107.558594 C 138.871094 107.441406 137.421875 107.226562 135.863281 107.648438 C 132.800781 108.402344 130.105469 110.800781 128.167969 113.195312 C 126.828125 114.835938 126.1875 116.757812 125.671875 118.78125 Z M 165.773438 144.066406 C 166.835938 144.847656 167.902344 145.363281 169.234375 145.480469 C 172.125 145.792969 174.921875 146.203125 177.410156 147.824219 C 179.234375 149 180.527344 150.78125 182.203125 152.046875 C 182.980469 152.640625 184.066406 152.835938 184.835938 152.117188 C 186.222656 150.816406 186.980469 149.058594 188.566406 147.875 C 190.621094 146.28125 192.921875 145.914062 195.375 145.332031 C 196.304688 145.085938 197.269531 144.941406 197.863281 144.097656 C 198.28125 143.378906 198.273438 142.371094 198.3125 141.558594 C 198.3125 135.042969 198.277344 128.527344 198.320312 122.007812 C 198.296875 121.03125 198.320312 119.894531 197.945312 118.976562 C 197.507812 118.109375 196.640625 117.667969 195.699219 117.554688 C 191.773438 117.199219 188.0625 118.398438 184.785156 120.511719 C 183.199219 117.835938 181.410156 115.367188 178.890625 113.484375 C 176.292969 111.355469 173.175781 110 169.902344 109.308594 C 168.84375 109.144531 167.582031 108.976562 166.714844 109.746094 C 165.933594 110.398438 165.835938 111.652344 165.800781 112.589844 C 165.800781 123.082031 165.839844 133.578125 165.773438 144.066406 Z M 174.277344 161.996094 C 177.898438 162.003906 181.523438 161.980469 185.144531 162.027344 C 186.285156 162.019531 187.570312 162.074219 188.65625 161.707031 C 190.125 161.277344 190.167969 158.769531 188.730469 158.253906 C 187.867188 157.898438 186.792969 157.945312 185.871094 157.917969 C 181.039062 157.949219 176.207031 157.949219 171.378906 157.914062 C 170.351562 157.941406 169.152344 157.882812 168.1875 158.285156 C 167.132812 158.691406 167.03125 160.164062 167.4375 161.058594 C 167.777344 161.753906 168.476562 161.863281 169.171875 161.957031 C 170.859375 162.101562 172.582031 161.984375 174.277344 161.996094 Z M 181.523438 165.4375 C 178.433594 164.527344 175.613281 164.996094 172.464844 164.886719 C 171.148438 164.894531 169.699219 164.746094 168.421875 165.089844 C 167.113281 165.503906 166.84375 167.445312 167.742188 168.367188 C 168.582031 169.027344 170.003906 168.945312 171.015625 168.976562 C 173.433594 168.9375 175.855469 168.984375 178.277344 168.957031 C 179.128906 168.914062 180.410156 168.882812 181.039062 168.226562 C 181.492188 167.445312 181.410156 166.316406 181.523438 165.4375 Z M 181.523438 165.4375 "/><path style=" stroke:none;fill-rule:nonzero;fill:#89d8da;fill-opacity:1;" d="M 151.636719 104.339844 C 154.835938 105.019531 157.457031 107.40625 158.667969 110.40625 C 159.644531 112.699219 159.316406 115.5625 159.347656 118.027344 C 159.332031 132.390625 159.300781 146.746094 159.183594 161.113281 C 159.125 163.652344 158.273438 166.113281 156.503906 167.964844 C 154.367188 170.070312 151.105469 170.773438 148.230469 170.089844 C 146.589844 169.6875 145.25 168.671875 143.890625 167.722656 C 140.792969 168.605469 137.609375 169.175781 134.515625 167.933594 C 131.394531 166.597656 128.5 164.121094 127.347656 160.851562 C 126.703125 159.152344 126.660156 157.464844 126.589844 155.675781 C 124.507812 155.046875 122.582031 154.359375 121.035156 152.765625 C 118.296875 150.078125 117.183594 146.144531 117.894531 142.394531 C 118.199219 140.214844 119.269531 138.425781 120.550781 136.691406 C 119.628906 134.972656 118.710938 133.441406 118.585938 131.4375 C 118.300781 128.457031 118.933594 125.558594 120.683594 123.109375 C 121.957031 121.167969 123.761719 120.015625 125.671875 118.78125 C 126.1875 116.757812 126.828125 114.835938 128.167969 113.195312 C 130.105469 110.800781 132.800781 108.402344 135.863281 107.648438 C 137.421875 107.226562 138.871094 107.441406 140.441406 107.558594 C 140.792969 107.5625 141.238281 107.628906 141.539062 107.421875 C 142.890625 106.527344 143.761719 105.28125 145.34375 104.648438 C 147.292969 103.882812 149.609375 103.925781 151.636719 104.339844 Z M 145.078125 109.757812 C 146.246094 111.585938 147.664062 113.597656 147.210938 115.894531 C 146.859375 117.164062 145.238281 117.527344 144.203125 116.90625 C 143.191406 115.761719 142.933594 113.910156 141.855469 112.773438 C 140.894531 111.769531 139.417969 111.253906 138.039062 111.320312 C 136.617188 111.449219 135.332031 112.265625 134.210938 113.097656 C 132.695312 114.265625 131.179688 115.625 130.445312 117.441406 C 129.90625 118.71875 129.859375 120.148438 129.363281 121.421875 C 128.992188 122.019531 128.109375 122.316406 127.519531 122.65625 C 123.863281 124.226562 121.570312 128.925781 123.082031 132.703125 C 123.539062 133.910156 124.453125 134.808594 125.722656 135.117188 C 127.648438 135.5625 129.3125 134.632812 131.152344 134.511719 C 132.03125 134.40625 132.738281 135.347656 132.746094 136.148438 C 132.882812 137.375 131.753906 138.332031 130.78125 138.839844 C 128.8125 139.789062 126.6875 139.167969 124.632812 139.242188 C 123.839844 139.242188 123.300781 139.996094 122.898438 140.585938 C 120.800781 144.003906 121.9375 148.863281 125.425781 150.890625 C 127.160156 151.78125 129.398438 151.71875 131.179688 150.996094 C 132.542969 150.460938 132.996094 148.847656 133.699219 147.6875 C 135.015625 145.152344 138.167969 143.472656 140.996094 144.027344 C 142.324219 144.355469 142.566406 145.941406 142.03125 147.007812 C 141.03125 148.097656 138.96875 148.003906 137.867188 148.96875 C 136.910156 150.101562 136.527344 151.65625 135.542969 152.804688 C 134.292969 154.351562 132.605469 154.945312 130.851562 155.730469 C 130.894531 157.234375 130.851562 158.601562 131.585938 159.972656 C 132.675781 161.972656 134.582031 163.789062 136.839844 164.34375 C 138.308594 164.660156 140.011719 164.335938 141.484375 164.089844 C 141.296875 162.011719 141.03125 160.101562 141.871094 158.113281 C 142.414062 156.847656 143.378906 155.238281 144.753906 154.765625 C 146.050781 154.355469 147.503906 155.320312 147.289062 156.742188 C 146.914062 158.101562 145.664062 159.3125 145.429688 160.707031 C 145.097656 163.792969 148.34375 166.910156 151.441406 166.140625 C 153.242188 165.785156 154.554688 164.273438 154.847656 162.496094 C 155.140625 160.253906 154.894531 157.9375 155.011719 155.675781 C 155.34375 150.242188 155.179688 144.769531 155.207031 139.324219 C 152.679688 138.753906 149.886719 138.253906 148.007812 136.300781 C 146.550781 134.804688 146.171875 132.988281 145.710938 131.027344 C 143.574219 130.304688 141.273438 130.03125 139.253906 129.121094 C 137.957031 128.472656 136.691406 127.46875 135.964844 126.199219 C 135.339844 125.058594 135.75 123.554688 136.964844 123.023438 C 138.269531 122.789062 139.253906 123.867188 140.191406 124.582031 C 142.542969 126.695312 145.839844 125.847656 148.363281 127.984375 C 150.222656 129.421875 149.804688 131.667969 150.957031 133.351562 C 152 134.363281 153.84375 134.648438 155.199219 135.042969 C 155.265625 128.40625 155.191406 121.765625 155.265625 115.128906 C 155.246094 113.570312 155.285156 112.148438 154.328125 110.828125 C 152.820312 108.632812 150.058594 107.890625 147.535156 108.441406 C 146.660156 108.710938 145.851562 109.28125 145.078125 109.757812 Z M 145.078125 109.757812 "/><path style=" stroke:none;fill-rule:nonzero;fill:#ffffff;fill-opacity:1;" d="M 147.535156 108.441406 C 150.058594 107.890625 152.820312 108.632812 154.328125 110.828125 C 155.285156 112.148438 155.246094 113.570312 155.265625 115.128906 C 155.191406 121.765625 155.265625 128.40625 155.199219 135.042969 C 153.84375 134.648438 152 134.363281 150.957031 133.351562 C 149.804688 131.667969 150.222656 129.421875 148.363281 127.984375 C 145.839844 125.847656 142.542969 126.695312 140.191406 124.582031 C 139.253906 123.867188 138.269531 122.789062 136.964844 123.023438 C 135.75 123.554688 135.339844 125.058594 135.964844 126.199219 C 136.691406 127.46875 137.957031 128.472656 139.253906 129.121094 C 141.273438 130.03125 143.574219 130.304688 145.710938 131.027344 C 146.171875 132.988281 146.550781 134.804688 148.007812 136.300781 C 149.886719 138.253906 152.679688 138.753906 155.207031 139.324219 C 155.179688 144.769531 155.34375 150.242188 155.011719 155.675781 C 154.894531 157.9375 155.140625 160.253906 154.847656 162.496094 C 154.554688 164.273438 153.242188 165.785156 151.441406 166.140625 C 148.34375 166.910156 145.097656 163.792969 145.429688 160.707031 C 145.664062 159.3125 146.914062 158.101562 147.289062 156.742188 C 147.503906 155.320312 146.050781 154.355469 144.753906 154.765625 C 143.378906 155.238281 142.414062 156.847656 141.871094 158.113281 C 141.03125 160.101562 141.296875 162.011719 141.484375 164.089844 C 140.011719 164.335938 138.308594 164.660156 136.839844 164.34375 C 134.582031 163.789062 132.675781 161.972656 131.585938 159.972656 C 130.851562 158.601562 130.894531 157.234375 130.851562 155.730469 C 132.605469 154.945312 134.292969 154.351562 135.542969 152.804688 C 136.527344 151.65625 136.910156 150.101562 137.867188 148.96875 C 138.96875 148.003906 141.03125 148.097656 142.03125 147.007812 C 142.566406 145.941406 142.324219 144.355469 140.996094 144.027344 C 138.167969 143.472656 135.015625 145.152344 133.699219 147.6875 C 132.996094 148.847656 132.542969 150.460938 131.179688 150.996094 C 129.398438 151.71875 127.160156 151.78125 125.425781 150.890625 C 121.9375 148.863281 120.800781 144.003906 122.898438 140.585938 C 123.300781 139.996094 123.839844 139.242188 124.632812 139.242188 C 126.6875 139.167969 128.8125 139.789062 130.78125 138.839844 C 131.753906 138.332031 132.882812 137.375 132.746094 136.148438 C 132.738281 135.347656 132.03125 134.40625 131.152344 134.511719 C 129.3125 134.632812 127.648438 135.5625 125.722656 135.117188 C 124.453125 134.808594 123.539062 133.910156 123.082031 132.703125 C 121.570312 128.925781 123.863281 124.226562 127.519531 122.65625 C 128.109375 122.316406 128.992188 122.019531 129.363281 121.421875 C 129.859375 120.148438 129.90625 118.71875 130.445312 117.441406 C 131.179688 115.625 132.695312 114.265625 134.210938 113.097656 C 135.332031 112.265625 136.617188 111.449219 138.039062 111.320312 C 139.417969 111.253906 140.894531 111.769531 141.855469 112.773438 C 142.933594 113.910156 143.191406 115.761719 144.203125 116.90625 C 145.238281 117.527344 146.859375 117.164062 147.210938 115.894531 C 147.664062 113.597656 146.246094 111.585938 145.078125 109.757812 C 145.851562 109.28125 146.660156 108.710938 147.535156 108.441406 Z M 147.535156 108.441406 "/><path style=" stroke:none;fill-rule:nonzero;fill:#fc786c;fill-opacity:1;" d="M 169.902344 109.308594 C 173.175781 110 176.292969 111.355469 178.890625 113.484375 C 181.410156 115.367188 183.199219 117.835938 184.785156 120.511719 C 188.0625 118.398438 191.773438 117.199219 195.699219 117.554688 C 196.640625 117.667969 197.507812 118.109375 197.945312 118.976562 C 198.320312 119.894531 198.296875 121.03125 198.320312 122.007812 C 198.277344 128.527344 198.3125 135.042969 198.3125 141.558594 C 198.273438 142.371094 198.28125 143.378906 197.863281 144.097656 C 197.269531 144.941406 196.304688 145.085938 195.375 145.332031 C 192.921875 145.914062 190.621094 146.28125 188.566406 147.875 C 186.980469 149.058594 186.222656 150.816406 184.835938 152.117188 C 184.066406 152.835938 182.980469 152.640625 182.203125 152.046875 C 180.527344 150.78125 179.234375 149 177.410156 147.824219 C 174.921875 146.203125 172.125 145.792969 169.234375 145.480469 C 167.902344 145.363281 166.835938 144.847656 165.773438 144.066406 C 165.839844 133.578125 165.800781 123.082031 165.800781 112.589844 C 165.835938 111.652344 165.933594 110.398438 166.714844 109.746094 C 167.582031 108.976562 168.84375 109.144531 169.902344 109.308594 Z M 170.082031 141.273438 C 172.332031 141.488281 174.601562 141.878906 176.734375 142.640625 C 178.496094 143.277344 179.941406 144.320312 181.414062 145.449219 C 181.4375 138.960938 181.410156 132.472656 181.425781 125.984375 C 181.457031 124.242188 181.042969 122.695312 180.132812 121.210938 C 177.9375 117.691406 174.242188 114.671875 170.148438 113.742188 C 169.992188 115.15625 170.054688 116.605469 170.050781 118.027344 C 170.074219 125.773438 170.039062 133.523438 170.082031 141.273438 Z M 185.75 144.433594 C 188.367188 142.988281 191.015625 141.945312 194 141.566406 C 194.046875 134.949219 194.03125 128.328125 194.023438 121.707031 C 191.726562 122.210938 188.804688 122.664062 186.972656 124.214844 C 185.777344 125.265625 185.738281 126.679688 185.714844 128.164062 C 185.761719 133.585938 185.714844 139.011719 185.75 144.433594 Z M 185.75 144.433594 "/><path style=" stroke:none;fill-rule:nonzero;fill:#ffffff;fill-opacity:1;" d="M 170.148438 113.742188 C 174.242188 114.671875 177.9375 117.691406 180.132812 121.210938 C 181.042969 122.695312 181.457031 124.242188 181.425781 125.984375 C 181.410156 132.472656 181.4375 138.960938 181.414062 145.449219 C 179.941406 144.320312 178.496094 143.277344 176.734375 142.640625 C 174.601562 141.878906 172.332031 141.488281 170.082031 141.273438 C 170.039062 133.523438 170.074219 125.773438 170.050781 118.027344 C 170.054688 116.605469 169.992188 115.15625 170.148438 113.742188 Z M 170.148438 113.742188 "/><path style=" stroke:none;fill-rule:nonzero;fill:#ffffff;fill-opacity:1;" d="M 194.023438 121.707031 C 194.03125 128.328125 194.046875 134.949219 194 141.566406 C 191.015625 141.945312 188.367188 142.988281 185.75 144.433594 C 185.714844 139.011719 185.761719 133.585938 185.714844 128.164062 C 185.738281 126.679688 185.777344 125.265625 186.972656 124.214844 C 188.804688 122.664062 191.726562 122.210938 194.023438 121.707031 Z M 194.023438 121.707031 "/><path style=" stroke:none;fill-rule:nonzero;fill:#89d8da;fill-opacity:1;" d="M 171.378906 157.914062 C 176.207031 157.949219 181.039062 157.949219 185.871094 157.917969 C 186.792969 157.945312 187.867188 157.898438 188.730469 158.253906 C 190.167969 158.769531 190.125 161.277344 188.65625 161.707031 C 187.570312 162.074219 186.285156 162.019531 185.144531 162.027344 C 181.523438 161.980469 177.898438 162.003906 174.277344 161.996094 C 172.582031 161.984375 170.859375 162.101562 169.171875 161.957031 C 168.476562 161.863281 167.777344 161.753906 167.4375 161.058594 C 167.03125 160.164062 167.132812 158.691406 168.1875 158.285156 C 169.152344 157.882812 170.351562 157.941406 171.378906 157.914062 Z M 171.378906 157.914062 "/><path style=" stroke:none;fill-rule:nonzero;fill:#89d8da;fill-opacity:1;" d="M 172.464844 164.886719 C 175.613281 164.996094 178.433594 164.527344 181.523438 165.4375 C 181.410156 166.316406 181.492188 167.445312 181.039062 168.226562 C 180.410156 168.882812 179.128906 168.914062 178.277344 168.957031 C 175.855469 168.984375 173.433594 168.9375 171.015625 168.976562 C 170.003906 168.945312 168.582031 169.027344 167.742188 168.367188 C 166.84375 167.445312 167.113281 165.503906 168.421875 165.089844 C 169.699219 164.746094 171.148438 164.894531 172.464844 164.886719 Z M 172.464844 164.886719 "/><path style=" stroke:none;fill-rule:nonzero;fill:#516c75;fill-opacity:1;" d="M 200.550781 204.449219 C 202.261719 204.183594 204.070312 204.363281 205.808594 204.328125 C 207.621094 204.164062 209.644531 205.515625 209.972656 207.347656 C 210.542969 209.453125 211.136719 211.59375 211.367188 213.765625 C 209.996094 213.808594 208.613281 213.875 207.238281 213.800781 C 206.777344 213.734375 206.367188 213.800781 206.089844 213.355469 C 205.277344 212.140625 204.863281 210.59375 204.367188 209.226562 C 203.3125 210.367188 202.335938 211.582031 201.300781 212.738281 C 200.808594 213.21875 200.410156 213.796875 199.660156 213.796875 C 198.3125 213.859375 196.882812 213.9375 195.550781 213.703125 C 194.890625 213.285156 195.105469 212.085938 195.15625 211.414062 C 195.683594 210.050781 196.875 208.90625 197.722656 207.722656 C 198.617188 206.648438 199.40625 205.257812 200.550781 204.449219 Z M 200.550781 204.449219 "/><path style=" stroke:none;fill-rule:nonzero;fill:#516c75;fill-opacity:1;" d="M 77.132812 204.484375 C 78.332031 204.292969 79.589844 204.390625 80.800781 204.378906 C 86.714844 204.402344 92.636719 204.386719 98.554688 204.386719 C 100.734375 204.453125 102.582031 203.949219 104.421875 205.4375 C 104.390625 207.070312 104.503906 208.722656 104.367188 210.351562 C 104.285156 211.121094 103.910156 211.792969 103.105469 211.960938 C 101.503906 212.238281 99.8125 212.054688 98.191406 212.101562 C 93.527344 212.007812 88.875 212.171875 84.214844 212.222656 C 84.234375 216.371094 84.238281 220.523438 84.214844 224.671875 C 89.117188 224.640625 94.023438 224.65625 98.921875 224.652344 C 99.972656 224.703125 101.15625 224.695312 101.40625 225.964844 C 101.566406 227.550781 101.589844 229.367188 101.367188 230.945312 C 100.929688 232.050781 99.914062 231.910156 98.921875 231.976562 C 94.019531 231.964844 89.121094 231.980469 84.222656 231.964844 C 84.207031 236.171875 84.210938 240.375 84.214844 244.578125 C 89.960938 244.570312 95.707031 244.578125 101.457031 244.570312 C 102.472656 244.554688 103.453125 244.742188 104.445312 244.964844 C 104.902344 246.710938 104.894531 248.480469 104.800781 250.265625 C 104.789062 250.804688 104.550781 251.363281 104.144531 251.722656 C 103.386719 252.160156 102.304688 252.113281 101.457031 252.140625 C 93.847656 252.121094 86.230469 252.132812 78.621094 252.132812 C 77.917969 252.097656 76.984375 252.132812 76.386719 251.710938 C 75.660156 251.101562 75.714844 249.949219 75.664062 249.089844 C 75.671875 236.304688 75.667969 223.496094 75.667969 210.710938 C 75.691406 209.144531 75.566406 207.535156 75.78125 205.980469 C 75.890625 205.210938 76.386719 204.683594 77.132812 204.484375 Z M 77.132812 204.484375 "/><path style=" stroke:none;fill-rule:nonzero;fill:#516c75;fill-opacity:1;" d="M 267.914062 206.59375 C 269.355469 206.339844 270.996094 206.328125 272.125 207.402344 C 274.285156 209.097656 274.199219 212.972656 271.933594 214.539062 C 269.726562 216.171875 266.308594 215.375 265.171875 212.839844 C 263.921875 210.472656 265.335938 207.273438 267.914062 206.59375 Z M 267.914062 206.59375 "/><path style=" stroke:none;fill-rule:nonzero;fill:#516c75;fill-opacity:1;" d="M 165.226562 217.230469 C 168.476562 217.726562 171.300781 219.410156 173.476562 221.847656 C 173.625 220.792969 173.183594 218.671875 174.503906 218.269531 C 176.167969 217.933594 177.980469 218.070312 179.671875 218.140625 C 180.476562 218.1875 180.964844 218.609375 181.175781 219.386719 C 181.390625 220.441406 181.308594 221.582031 181.320312 222.65625 C 181.285156 230.984375 181.328125 239.3125 181.289062 247.636719 C 181.15625 250.792969 180.789062 254.199219 179.371094 257.058594 C 177.683594 260.722656 174.3125 263.503906 170.59375 264.945312 C 164.332031 267.269531 156.917969 266.699219 151.289062 263.011719 C 150.464844 262.390625 149.574219 261.859375 149.714844 260.679688 C 149.949219 258.992188 151.199219 257.363281 152.164062 256 C 153.535156 256.316406 154.6875 257.023438 155.949219 257.609375 C 158.300781 258.738281 160.804688 259.25 163.410156 259.121094 C 166.398438 258.972656 169.679688 257.84375 171.429688 255.285156 C 173.027344 253.042969 173.09375 249.820312 173.136719 247.179688 C 171.667969 248.597656 170.066406 249.808594 168.121094 250.496094 C 162.75 252.472656 156.027344 251.246094 151.992188 247.085938 C 148.835938 243.855469 147.277344 239.445312 147.179688 234.964844 C 147.035156 231.535156 147.621094 228.128906 149.183594 225.054688 C 150.714844 222.179688 153.191406 219.640625 156.207031 218.332031 C 159.007812 217.066406 162.203125 216.828125 165.226562 217.230469 Z M 162.871094 224.070312 C 160.605469 224.289062 158.484375 225.386719 157.136719 227.238281 C 155.515625 229.402344 155.179688 232.34375 155.285156 234.96875 C 155.355469 237.542969 156 240.054688 157.90625 241.894531 C 160.109375 244.0625 163.367188 244.558594 166.320312 244.078125 C 168.5 243.640625 170.746094 242.546875 171.960938 240.605469 C 173.214844 238.710938 173.503906 236.101562 173.523438 233.882812 C 173.417969 231.300781 173.0625 228.445312 171.09375 226.558594 C 168.929688 224.277344 165.875 223.800781 162.871094 224.070312 Z M 162.871094 224.070312 "/><path style=" stroke:none;fill-rule:nonzero;fill:#516c75;fill-opacity:1;" d="M 208.785156 217.832031 C 212.890625 219.222656 216.308594 222.429688 217.945312 226.441406 C 219.164062 229.371094 219.519531 232.566406 219.328125 235.71875 C 219.269531 236.457031 218.847656 237.179688 218.0625 237.292969 C 216.527344 237.46875 214.949219 237.34375 213.40625 237.367188 C 207.199219 237.378906 200.992188 237.339844 194.789062 237.390625 C 195.144531 239.085938 195.476562 240.691406 196.394531 242.1875 C 197.550781 244.15625 199.507812 245.539062 201.703125 246.097656 C 203.988281 246.742188 206.507812 246.304688 208.679688 245.449219 C 210.734375 244.644531 212.316406 243.335938 214.210938 242.257812 C 215.769531 243.429688 217.011719 244.832031 217.390625 246.804688 C 215.765625 248.8125 213.894531 250.496094 211.503906 251.535156 C 207.335938 253.371094 202.59375 253.761719 198.269531 252.238281 C 194.261719 250.902344 190.867188 248.015625 188.828125 244.324219 C 186.574219 240.265625 186.347656 235.789062 186.921875 231.269531 C 187.75 226.863281 190.109375 222.691406 193.835938 220.113281 C 198.0625 217.011719 203.832031 216.261719 208.785156 217.832031 Z M 194.859375 231.617188 C 200.476562 231.6875 206.097656 231.632812 211.714844 231.644531 C 211.445312 229.316406 210.917969 227.125 209.164062 225.449219 C 207.6875 223.96875 205.671875 223.402344 203.621094 223.476562 C 201.304688 223.425781 199.140625 224.335938 197.558594 226.023438 C 196.023438 227.617188 195.417969 229.535156 194.859375 231.617188 Z M 194.859375 231.617188 "/><path style=" stroke:none;fill-rule:nonzero;fill:#516c75;fill-opacity:1;" d="M 248.023438 217.441406 C 251.0625 218.191406 253.742188 220.15625 255.21875 222.929688 C 256.257812 224.953125 256.800781 227.257812 256.75 229.535156 C 256.730469 236.175781 256.730469 242.820312 256.75 249.460938 C 256.714844 250.109375 256.800781 250.921875 256.355469 251.449219 C 255.851562 252.179688 254.765625 252.078125 253.984375 252.132812 C 252.570312 252.121094 251.046875 252.25 249.667969 251.90625 C 248.570312 251.550781 248.625 250.40625 248.585938 249.457031 C 248.59375 243.417969 248.628906 237.375 248.589844 231.335938 C 248.511719 228.792969 247.769531 226.011719 245.242188 224.882812 C 242.054688 223.523438 237.625 224.054688 235.246094 226.734375 C 233.886719 228.164062 233.136719 230.09375 233.121094 232.0625 C 233.085938 238.5 233.160156 244.945312 233.085938 251.382812 C 232.347656 251.730469 231.65625 252.085938 230.808594 252.109375 C 228.816406 252.148438 226.960938 252.390625 225.160156 251.390625 C 225.097656 241.207031 225.164062 231.023438 225.121094 220.835938 C 225.152344 220.261719 225.101562 219.578125 225.328125 219.035156 C 225.6875 218.503906 226.207031 218.183594 226.851562 218.136719 C 228.242188 218.035156 229.714844 218.039062 231.109375 218.136719 C 231.75 218.199219 232.375 218.375 232.640625 219.023438 C 232.957031 219.996094 232.816406 221.15625 232.796875 222.171875 C 236.65625 218.089844 242.515625 216.140625 248.023438 217.441406 Z M 248.023438 217.441406 "/><path style=" stroke:none;fill-rule:nonzero;fill:#516c75;fill-opacity:1;" d="M 296.753906 217.144531 C 300.851562 217.46875 304.804688 219.902344 306.613281 223.648438 C 307.625 225.789062 307.980469 228.273438 308.0625 230.617188 C 308.066406 236.777344 308.042969 242.929688 308.078125 249.089844 C 308.109375 250.207031 307.832031 251.101562 307.332031 252.082031 C 305.027344 252.105469 302.847656 252.328125 300.578125 251.78125 C 300.335938 250.480469 300.230469 249.242188 300.25 247.917969 C 298.460938 250.421875 295.785156 252.039062 292.8125 252.746094 C 287.71875 254.179688 281.324219 251.710938 279.132812 246.738281 C 277.203125 242.132812 278.917969 235.679688 283.695312 233.523438 C 288.523438 231.253906 293.785156 232.203125 298.886719 230.96875 C 299.363281 230.851562 299.800781 230.675781 300.171875 230.34375 C 300.3125 228.640625 299.902344 226.671875 298.695312 225.402344 C 297.804688 224.523438 296.550781 223.996094 295.3125 223.878906 C 292.574219 223.710938 289.992188 223.703125 287.503906 225.011719 C 286.269531 225.550781 285.097656 226.683594 283.769531 226.894531 C 282.878906 226.808594 282.175781 225.664062 281.691406 225.003906 C 281.050781 224.011719 280.289062 222.664062 281.101562 221.550781 C 282.414062 219.9375 284.578125 218.890625 286.5 218.199219 C 289.839844 216.988281 293.246094 216.914062 296.753906 217.144531 Z M 300.246094 235.742188 C 297.28125 236.828125 294.261719 236.6875 291.199219 237.222656 C 289.339844 237.589844 287.277344 238.316406 286.523438 240.234375 C 285.886719 241.699219 286.246094 243.300781 287.140625 244.570312 C 288.273438 246.054688 290.175781 246.84375 292.023438 246.800781 C 294.238281 246.835938 296.464844 245.757812 298.035156 244.238281 C 299.085938 243.207031 300.058594 241.9375 300.183594 240.421875 C 300.308594 238.867188 300.21875 237.296875 300.246094 235.742188 Z M 300.246094 235.742188 "/><path style=" stroke:none;fill-rule:nonzero;fill:#516c75;fill-opacity:1;" d="M 112.65625 218.085938 C 114.582031 218.097656 116.550781 217.835938 118.296875 218.707031 C 118.421875 223.636719 118.308594 228.582031 118.347656 233.519531 C 118.40625 236.28125 118.070312 238.804688 118.953125 241.464844 C 119.613281 243.558594 121.382812 245.152344 123.546875 245.558594 C 125.15625 245.820312 126.886719 245.746094 128.441406 245.207031 C 131.40625 244.148438 133.675781 241.484375 133.613281 238.234375 C 133.605469 231.753906 133.609375 225.296875 133.613281 218.816406 C 134.339844 218.46875 135.019531 218.128906 135.84375 218.101562 C 137.808594 218.0625 139.644531 217.8125 141.410156 218.808594 C 141.460938 229.554688 141.40625 240.300781 141.441406 251.046875 C 141.140625 251.394531 140.84375 251.746094 140.546875 252.097656 C 138.363281 252.085938 136.292969 252.289062 134.140625 251.816406 C 133.839844 250.777344 133.648438 249.753906 133.535156 248.675781 C 129.914062 252.597656 124.019531 254.027344 118.925781 252.640625 C 116.386719 252.039062 114.085938 250.632812 112.574219 248.476562 C 110.953125 246.148438 110.332031 243.203125 110.320312 240.402344 C 110.316406 234.488281 110.332031 228.574219 110.304688 222.65625 C 110.316406 221.519531 110.214844 220.324219 110.421875 219.207031 C 110.6875 218.203125 111.800781 218.128906 112.65625 218.085938 Z M 112.65625 218.085938 "/><path style=" stroke:none;fill-rule:nonzero;fill:#516c75;fill-opacity:1;" d="M 271.875 218.152344 C 272.226562 218.480469 272.578125 218.800781 272.933594 219.125 C 272.996094 229.917969 272.992188 240.714844 272.929688 251.507812 C 272.195312 251.804688 271.472656 252.078125 270.664062 252.105469 C 268.664062 252.140625 266.867188 252.457031 265.09375 251.339844 C 265.089844 240.503906 265.0625 229.667969 265.101562 218.832031 C 266.988281 217.65625 269.71875 218.175781 271.875 218.152344 Z M 271.875 218.152344 "/><path style=" stroke:none;fill-rule:nonzero;fill:#ffffff;fill-opacity:1;" d="M 203.621094 223.476562 C 205.671875 223.402344 207.6875 223.96875 209.164062 225.449219 C 210.917969 227.125 211.445312 229.316406 211.714844 231.644531 C 206.097656 231.632812 200.476562 231.6875 194.859375 231.617188 C 195.417969 229.535156 196.023438 227.617188 197.558594 226.023438 C 199.140625 224.335938 201.304688 223.425781 203.621094 223.476562 Z M 203.621094 223.476562 "/><path style=" stroke:none;fill-rule:nonzero;fill:#ffffff;fill-opacity:1;" d="M 162.871094 224.070312 C 165.875 223.800781 168.929688 224.277344 171.09375 226.558594 C 173.0625 228.445312 173.417969 231.300781 173.523438 233.882812 C 173.503906 236.101562 173.214844 238.710938 171.960938 240.605469 C 170.746094 242.546875 168.5 243.640625 166.320312 244.078125 C 163.367188 244.558594 160.109375 244.0625 157.90625 241.894531 C 156 240.054688 155.355469 237.542969 155.285156 234.96875 C 155.179688 232.34375 155.515625 229.402344 157.136719 227.238281 C 158.484375 225.386719 160.605469 224.289062 162.871094 224.070312 Z M 162.871094 224.070312 "/><path style=" stroke:none;fill-rule:nonzero;fill:#ffffff;fill-opacity:1;" d="M 300.246094 235.742188 C 300.21875 237.296875 300.308594 238.867188 300.183594 240.421875 C 300.058594 241.9375 299.085938 243.207031 298.035156 244.238281 C 296.464844 245.757812 294.238281 246.835938 292.023438 246.800781 C 290.175781 246.84375 288.273438 246.054688 287.140625 244.570312 C 286.246094 243.300781 285.886719 241.699219 286.523438 240.234375 C 287.277344 238.316406 289.339844 237.589844 291.199219 237.222656 C 294.261719 236.6875 297.28125 236.828125 300.246094 235.742188 Z M 300.246094 235.742188 "/></g></svg>