<?xml version="1.0" encoding="UTF-8" standalone="no"?>
<!DOCTYPE svg PUBLIC "-//W3C//DTD SVG 1.1//EN" "http://www.w3.org/Graphics/SVG/1.1/DTD/svg11.dtd">
<svg xmlns="http://www.w3.org/2000/svg" version="1.1" viewBox="0 0 1035 1013" width="1035.0pt" height="1013.0pt" xmlns:xlink="http://www.w3.org/1999/xlink">
<defs>
<path d="M 0.00 0.00 L 1035.00 0.00 L 1035.00 1013.00 L 0.00 1013.00 L 0.00 0.00 Z M 288.37 460.28 C 288.64 462.06 288.14 464.04 287.72 465.77 C 282.70 482.95 277.98 500.23 273.16 517.47 C 272.35 520.75 271.22 524.70 272.23 528.01 C 273.55 533.09 278.74 536.90 284.02 536.32 C 289.28 535.75 294.45 533.17 299.49 531.57 C 312.88 527.22 326.18 522.74 339.26 517.52 C 341.66 516.72 344.78 515.29 347.32 515.95 C 351.80 517.29 355.93 519.96 360.24 521.80 C 377.65 529.34 396.08 534.31 414.98 536.15 C 426.39 536.96 437.55 538.16 448.99 536.71 C 476.06 534.78 502.53 526.85 525.81 512.82 C 559.20 493.05 586.82 460.86 598.13 423.44 C 606.12 396.92 606.58 368.25 598.83 341.61 C 593.40 322.33 583.57 304.70 570.84 289.30 C 556.82 272.93 539.91 259.15 520.85 249.04 C 497.46 236.45 471.47 229.57 445.01 227.85 C 420.21 226.88 395.43 229.45 371.95 237.78 C 348.17 246.17 325.52 259.76 307.92 277.92 C 283.22 301.92 267.58 334.89 265.20 369.29 C 263.87 381.62 265.09 394.34 267.15 406.53 C 270.37 423.03 276.02 439.67 285.16 453.88 C 286.34 455.88 287.80 458.01 288.37 460.28 Z M 564.05 577.90 C 565.42 581.68 566.57 585.95 568.81 589.31 C 569.58 590.54 570.71 590.36 571.98 590.54 C 575.77 590.74 579.59 590.56 583.37 590.44 C 582.74 584.44 581.10 578.53 579.53 572.71 C 578.62 567.65 573.04 563.92 568.03 564.37 C 563.24 564.47 558.24 563.98 553.52 564.71 C 550.36 566.94 548.18 570.78 545.72 573.75 C 543.38 577.02 540.09 580.18 538.63 583.95 C 538.49 585.80 537.90 589.12 539.72 590.27 C 543.40 590.92 547.34 590.70 551.06 590.53 C 553.13 590.53 554.23 588.93 555.59 587.60 C 558.45 584.41 561.14 581.06 564.05 577.90 Z M 288.26 676.62 C 285.53 676.00 282.82 675.48 280.01 675.53 C 264.15 675.55 248.29 675.53 232.43 675.55 C 232.42 663.94 232.40 652.33 232.45 640.71 C 245.97 640.75 259.49 640.71 273.02 640.74 C 275.76 640.56 278.56 640.95 279.77 637.89 C 280.38 633.53 280.32 628.52 279.87 624.14 C 279.19 620.63 275.92 620.65 273.02 620.51 C 259.50 620.52 245.96 620.48 232.43 620.57 C 232.49 609.11 232.48 597.64 232.43 586.18 C 245.29 586.04 258.13 585.59 271.00 585.85 C 275.48 585.72 280.15 586.22 284.56 585.46 C 286.79 584.99 287.82 583.14 288.05 581.01 C 288.42 576.51 288.11 571.95 288.20 567.44 C 283.12 563.33 278.02 564.72 272.00 564.54 C 255.67 564.54 239.33 564.58 223.00 564.52 C 219.66 564.55 216.19 564.28 212.88 564.81 C 210.82 565.36 209.45 566.81 209.15 568.94 C 208.55 573.23 208.90 577.68 208.84 582.00 C 208.84 617.32 208.85 652.70 208.82 688.01 C 208.96 690.39 208.81 693.57 210.82 695.25 C 212.47 696.42 215.05 696.32 216.99 696.42 C 237.99 696.42 259.01 696.38 280.01 696.44 C 282.36 696.36 285.34 696.49 287.43 695.28 C 288.55 694.29 289.21 692.75 289.24 691.26 C 289.50 686.33 289.52 681.44 288.26 676.62 Z M 739.45 570.63 C 732.33 572.51 728.43 581.35 731.88 587.88 C 735.02 594.89 744.45 597.09 750.54 592.58 C 756.80 588.25 757.03 577.55 751.07 572.87 C 747.95 569.90 743.43 569.93 739.45 570.63 Z M 477.86 682.73 C 477.74 690.03 477.55 698.93 473.15 705.12 C 468.31 712.19 459.26 715.31 451.01 715.72 C 443.82 716.07 436.91 714.66 430.42 711.54 C 426.94 709.92 423.76 707.97 419.97 707.10 C 417.31 710.86 413.86 715.36 413.21 720.02 C 412.82 723.28 415.28 724.75 417.56 726.46 C 433.09 736.65 453.56 738.23 470.84 731.80 C 481.10 727.82 490.41 720.14 495.06 710.02 C 498.98 702.12 499.99 692.72 500.36 684.00 C 500.47 661.00 500.35 638.00 500.44 615.00 C 500.41 612.03 500.64 608.88 500.04 605.97 C 499.46 603.82 498.11 602.66 495.89 602.53 C 491.23 602.33 486.22 601.95 481.63 602.88 C 477.99 603.99 479.20 609.85 478.79 612.77 C 472.79 606.03 464.99 601.38 456.02 600.01 C 447.68 598.90 438.86 599.56 431.13 603.06 C 422.81 606.67 415.97 613.68 411.74 621.62 C 407.43 630.12 405.81 639.52 406.21 649.00 C 406.48 661.37 410.78 673.55 419.50 682.48 C 430.63 693.97 449.19 697.36 464.01 691.90 C 469.38 690.00 473.80 686.65 477.86 682.73 Z M 600.00 681.70 C 598.95 676.25 595.53 672.38 591.22 669.14 C 586.00 672.12 581.63 675.73 575.96 677.96 C 569.96 680.32 563.01 681.53 556.70 679.75 C 550.64 678.20 545.24 674.38 542.05 668.95 C 539.52 664.81 538.60 660.38 537.62 655.70 C 554.74 655.56 571.87 655.66 589.00 655.63 C 593.26 655.57 597.62 655.91 601.85 655.43 C 604.02 655.11 605.19 653.12 605.35 651.08 C 605.88 642.37 604.90 633.55 601.53 625.45 C 597.01 614.37 587.58 605.52 576.25 601.67 C 562.58 597.34 546.65 599.41 534.99 607.98 C 524.70 615.10 518.19 626.62 515.90 638.79 C 514.32 651.27 514.95 663.64 521.17 674.85 C 526.79 685.04 536.16 693.02 547.22 696.71 C 559.16 700.92 572.25 699.84 583.75 694.77 C 590.35 691.89 595.51 687.24 600.00 681.70 Z M 642.52 613.66 C 642.58 610.86 642.96 607.65 642.09 604.97 C 641.36 603.17 639.63 602.69 637.86 602.51 C 634.02 602.25 629.95 602.23 626.11 602.52 C 624.33 602.64 622.90 603.53 621.91 605.00 C 621.28 606.50 621.42 608.38 621.34 609.97 C 621.46 638.11 621.27 666.24 621.44 694.37 C 626.41 697.13 631.54 696.46 637.04 696.35 C 639.37 696.29 641.28 695.31 643.32 694.34 C 643.52 676.56 643.32 658.76 643.42 640.98 C 643.46 635.54 645.53 630.21 649.28 626.26 C 655.85 618.86 668.08 617.39 676.87 621.15 C 683.85 624.27 685.90 631.95 686.11 638.97 C 686.22 655.65 686.12 672.35 686.10 689.03 C 686.21 691.65 686.06 694.81 689.09 695.79 C 692.89 696.74 697.10 696.38 701.00 696.42 C 703.16 696.26 706.16 696.55 707.55 694.53 C 708.77 693.07 708.54 690.83 708.64 689.04 C 708.58 670.69 708.58 652.34 708.63 634.00 C 708.77 627.71 707.28 621.34 704.41 615.75 C 700.33 608.09 692.94 602.67 684.55 600.60 C 669.35 597.00 653.17 602.39 642.52 613.66 Z M 828.70 684.77 C 828.64 688.43 828.93 691.85 829.60 695.45 C 835.87 696.96 841.88 696.34 848.24 696.28 C 849.62 693.57 850.39 691.10 850.30 688.01 C 850.21 671.00 850.27 654.00 850.26 636.99 C 850.04 630.51 849.05 623.65 846.26 617.74 C 841.27 607.39 830.36 600.67 819.05 599.77 C 809.37 599.14 799.97 599.34 790.75 602.69 C 785.44 604.60 779.47 607.49 775.85 611.95 C 773.60 615.02 775.71 618.74 777.47 621.48 C 778.81 623.31 780.75 626.47 783.21 626.71 C 786.88 626.12 790.11 622.99 793.52 621.50 C 800.39 617.89 807.51 617.91 815.07 618.38 C 818.49 618.70 821.95 620.16 824.41 622.58 C 827.74 626.09 828.87 631.53 828.48 636.23 C 827.46 637.15 826.25 637.63 824.94 637.96 C 810.86 641.37 796.33 638.75 783.01 645.01 C 769.82 650.97 765.09 668.80 770.41 681.52 C 776.46 695.25 794.11 702.07 808.17 698.11 C 816.38 696.16 823.76 691.69 828.70 684.77 Z M 368.55 686.87 C 368.87 689.84 369.39 692.67 370.22 695.54 C 376.17 696.85 381.88 696.29 387.91 696.32 C 388.73 695.35 389.55 694.38 390.37 693.42 C 390.28 663.73 390.43 634.05 390.29 604.37 C 385.42 601.62 380.35 602.31 374.93 602.42 C 372.65 602.49 370.77 603.43 368.77 604.39 C 368.76 622.29 368.75 640.13 368.77 658.03 C 368.94 667.00 362.68 674.36 354.49 677.29 C 350.20 678.78 345.43 678.98 340.98 678.26 C 335.01 677.13 330.13 672.73 328.31 666.95 C 325.87 659.60 326.80 652.63 326.63 645.00 C 326.53 631.37 326.84 617.71 326.49 604.09 C 321.68 601.68 316.24 602.41 310.93 602.38 C 308.56 602.49 305.49 602.70 304.76 605.47 C 304.19 608.56 304.47 611.86 304.44 615.00 C 304.51 631.34 304.47 647.68 304.48 664.02 C 304.51 671.75 306.23 679.89 310.70 686.32 C 314.87 692.27 321.22 696.16 328.23 697.82 C 342.29 701.65 358.56 697.70 368.55 686.87 Z M 731.69 604.44 C 731.58 634.37 731.65 664.30 731.66 694.23 C 736.56 697.31 741.52 696.44 747.04 696.34 C 749.27 696.27 751.26 695.51 753.29 694.69 C 753.46 664.88 753.47 635.06 753.30 605.25 C 752.32 604.35 751.35 603.46 750.38 602.56 C 744.43 602.62 736.89 601.19 731.69 604.44 Z" id="p0" />
<path d="M 445.01 227.85 C 471.47 229.57 497.46 236.45 520.85 249.04 C 539.91 259.15 556.82 272.93 570.84 289.30 C 583.57 304.70 593.40 322.33 598.83 341.61 C 606.58 368.25 606.12 396.92 598.13 423.44 C 586.82 460.86 559.20 493.05 525.81 512.82 C 502.53 526.85 476.06 534.78 448.99 536.71 C 437.55 538.16 426.39 536.96 414.98 536.15 C 396.08 534.31 377.65 529.34 360.24 521.80 C 355.93 519.96 351.80 517.29 347.32 515.95 C 344.78 515.29 341.66 516.72 339.26 517.52 C 326.18 522.74 312.88 527.22 299.49 531.57 C 294.45 533.17 289.28 535.75 284.02 536.32 C 278.74 536.90 273.55 533.09 272.23 528.01 C 271.22 524.70 272.35 520.75 273.16 517.47 C 277.98 500.23 282.70 482.95 287.72 465.77 C 288.14 464.04 288.64 462.06 288.37 460.28 C 287.80 458.01 286.34 455.88 285.16 453.88 C 276.02 439.67 270.37 423.03 267.15 406.53 C 265.09 394.34 263.87 381.62 265.20 369.29 C 267.58 334.89 283.22 301.92 307.92 277.92 C 325.52 259.76 348.17 246.17 371.95 237.78 C 395.43 229.45 420.21 226.88 445.01 227.85 Z M 303.46 503.13 C 312.89 500.22 322.16 496.72 331.40 493.26 C 336.59 491.35 342.44 488.22 348.02 488.23 C 352.50 488.13 356.47 491.03 360.34 493.01 C 383.30 505.11 409.04 511.50 435.00 511.42 C 461.09 511.13 486.93 504.90 509.63 491.86 C 534.83 477.73 555.68 456.40 567.96 430.13 C 582.99 398.38 582.12 359.45 565.72 328.39 C 552.18 303.53 530.84 284.05 505.73 271.23 C 486.87 261.65 466.15 255.74 445.00 254.52 C 437.01 254.29 428.97 254.23 420.98 254.67 C 389.27 257.22 357.93 268.86 333.54 289.54 C 310.26 309.20 294.16 337.39 291.51 367.96 C 291.12 375.96 291.19 384.04 291.47 392.04 C 292.64 409.38 298.40 426.00 307.14 440.96 C 309.51 445.09 312.97 448.64 315.00 452.93 C 316.38 456.47 315.24 461.15 314.35 464.72 C 310.83 477.56 307.07 490.31 303.46 503.13 Z" id="p1" />
<path d="M 420.98 254.67 C 428.97 254.23 437.01 254.29 445.00 254.52 C 466.15 255.74 486.87 261.65 505.73 271.23 C 530.84 284.05 552.18 303.53 565.72 328.39 C 582.12 359.45 582.99 398.38 567.96 430.13 C 555.68 456.40 534.83 477.73 509.63 491.86 C 486.93 504.90 461.09 511.13 435.00 511.42 C 409.04 511.50 383.30 505.11 360.34 493.01 C 356.47 491.03 352.50 488.13 348.02 488.23 C 342.44 488.22 336.59 491.35 331.40 493.26 C 322.16 496.72 312.89 500.22 303.46 503.13 C 307.07 490.31 310.83 477.56 314.35 464.72 C 315.24 461.15 316.38 456.47 315.00 452.93 C 312.97 448.64 309.51 445.09 307.14 440.96 C 298.40 426.00 292.64 409.38 291.47 392.04 C 291.19 384.04 291.12 375.96 291.51 367.96 C 294.16 337.39 310.26 309.20 333.54 289.54 C 357.93 268.86 389.27 257.22 420.98 254.67 Z M 346.85 328.09 C 341.58 331.49 336.60 334.68 333.08 340.04 C 328.25 346.81 326.50 354.81 327.29 363.04 C 327.64 368.58 330.17 372.81 332.72 377.55 C 329.18 382.35 326.23 387.29 325.38 393.31 C 323.42 403.67 326.49 414.53 334.05 421.95 C 338.32 426.36 343.64 428.25 349.38 429.99 C 349.58 434.93 349.70 439.60 351.48 444.29 C 354.66 453.32 362.64 460.16 371.26 463.85 C 379.80 467.28 388.59 465.71 397.13 463.27 C 400.89 465.89 404.59 468.69 409.11 469.80 C 417.05 471.69 426.05 469.75 431.95 463.94 C 436.83 458.82 439.18 452.02 439.34 445.01 C 439.67 405.33 439.75 365.68 439.80 326.00 C 439.71 319.20 440.62 311.29 437.92 304.95 C 434.58 296.67 427.34 290.07 418.52 288.20 C 412.92 287.05 406.53 286.93 401.15 289.05 C 396.78 290.80 394.37 294.24 390.64 296.71 C 389.81 297.28 388.58 297.10 387.62 297.09 C 383.28 296.76 379.28 296.17 374.98 297.34 C 366.53 299.42 359.09 306.04 353.74 312.66 C 350.04 317.19 348.27 322.50 346.85 328.09 Z M 457.53 397.93 C 460.47 400.08 463.41 401.51 467.09 401.83 C 475.06 402.70 482.78 403.83 489.65 408.31 C 494.69 411.55 498.25 416.47 502.88 419.97 C 505.03 421.61 508.02 422.15 510.15 420.16 C 513.97 416.57 516.07 411.72 520.44 408.45 C 526.11 404.04 532.46 403.03 539.24 401.42 C 541.80 400.74 544.47 400.34 546.10 398.01 C 547.26 396.03 547.24 393.24 547.34 391.00 C 547.34 373.00 547.25 355.00 547.36 337.00 C 547.30 334.30 547.37 331.16 546.33 328.63 C 545.12 326.23 542.73 325.01 540.13 324.70 C 529.29 323.72 519.05 327.03 510.01 332.87 C 505.63 325.47 500.69 318.66 493.74 313.46 C 486.57 307.57 477.96 303.83 468.93 301.92 C 466.01 301.47 462.53 301.00 460.13 303.13 C 457.98 304.93 457.71 308.39 457.61 310.98 C 457.61 339.96 457.72 368.96 457.53 397.93 Z M 481.00 447.45 C 491.00 447.47 501.00 447.41 511.00 447.54 C 514.15 447.51 517.69 447.67 520.69 446.65 C 524.75 445.46 524.86 438.54 520.90 437.11 C 518.51 436.13 515.55 436.26 513.00 436.18 C 499.67 436.27 486.33 436.27 473.00 436.17 C 470.17 436.25 466.86 436.09 464.20 437.20 C 461.28 438.32 461.00 442.39 462.13 444.86 C 463.06 446.78 464.99 447.08 466.91 447.34 C 471.57 447.74 476.32 447.42 481.00 447.45 Z M 501.00 456.95 C 492.48 454.44 484.69 455.74 476.00 455.43 C 472.37 455.46 468.37 455.05 464.84 455.99 C 461.23 457.14 460.49 462.50 462.97 465.05 C 465.29 466.87 469.21 466.64 472.00 466.73 C 478.68 466.62 485.36 466.75 492.04 466.68 C 494.40 466.56 497.93 466.47 499.67 464.66 C 500.92 462.50 500.69 459.38 501.00 456.95 Z" id="p2" />
<path d="M 418.52 288.20 C 427.34 290.07 434.58 296.67 437.92 304.95 C 440.62 311.29 439.71 319.20 439.80 326.00 C 439.75 365.68 439.67 405.33 439.34 445.01 C 439.18 452.02 436.83 458.82 431.95 463.94 C 426.05 469.75 417.05 471.69 409.11 469.80 C 404.59 468.69 400.89 465.89 397.13 463.27 C 388.59 465.71 379.80 467.28 371.26 463.85 C 362.64 460.16 354.66 453.32 351.48 444.29 C 349.70 439.60 349.58 434.93 349.38 429.99 C 343.64 428.25 338.32 426.36 334.05 421.95 C 326.49 414.53 323.42 403.67 325.38 393.31 C 326.23 387.29 329.18 382.35 332.72 377.55 C 330.17 372.81 327.64 368.58 327.29 363.04 C 326.50 354.81 328.25 346.81 333.08 340.04 C 336.60 334.68 341.58 331.49 346.85 328.09 C 348.27 322.50 350.04 317.19 353.74 312.66 C 359.09 306.04 366.53 299.42 374.98 297.34 C 379.28 296.17 383.28 296.76 387.62 297.09 C 388.58 297.10 389.81 297.28 390.64 296.71 C 394.37 294.24 396.78 290.80 401.15 289.05 C 406.53 286.93 412.92 287.05 418.52 288.20 Z M 400.41 303.16 C 403.64 308.21 407.55 313.77 406.30 320.11 C 405.33 323.62 400.85 324.62 398.00 322.91 C 395.20 319.75 394.49 314.63 391.52 311.49 C 388.87 308.72 384.79 307.29 380.98 307.48 C 377.06 307.83 373.51 310.09 370.42 312.39 C 366.24 315.61 362.05 319.37 360.03 324.38 C 358.54 327.91 358.41 331.86 357.04 335.38 C 356.01 337.03 353.58 337.85 351.95 338.79 C 341.86 343.13 335.53 356.11 339.70 366.54 C 340.96 369.87 343.49 372.35 346.99 373.21 C 352.31 374.44 356.90 371.87 361.98 371.54 C 364.40 371.24 366.35 373.84 366.38 376.06 C 366.75 379.44 363.64 382.09 360.95 383.49 C 355.52 386.11 349.65 384.40 343.98 384.60 C 341.79 384.60 340.31 386.68 339.20 388.31 C 333.41 397.75 336.54 411.18 346.17 416.78 C 350.96 419.23 357.14 419.06 362.05 417.07 C 365.82 415.59 367.07 411.13 369.01 407.93 C 372.64 400.92 381.34 396.29 389.15 397.82 C 392.81 398.72 393.48 403.11 392.00 406.05 C 389.24 409.06 383.55 408.80 380.51 411.47 C 377.87 414.60 376.81 418.89 374.10 422.06 C 370.65 426.33 365.99 427.97 361.15 430.14 C 361.27 434.30 361.15 438.07 363.17 441.86 C 366.18 447.39 371.44 452.40 377.67 453.93 C 381.73 454.81 386.43 453.91 390.49 453.23 C 389.98 447.49 389.24 442.22 391.56 436.73 C 393.06 433.23 395.72 428.78 399.52 427.48 C 403.10 426.34 407.11 429.01 406.52 432.94 C 405.48 436.69 402.03 440.04 401.38 443.89 C 400.47 452.41 409.43 461.02 417.98 458.90 C 422.95 457.92 426.57 453.74 427.38 448.83 C 428.19 442.64 427.51 436.24 427.83 429.99 C 428.75 414.98 428.29 399.87 428.37 384.83 C 421.39 383.25 413.69 381.87 408.50 376.48 C 404.48 372.34 403.43 367.33 402.16 361.91 C 396.26 359.91 389.91 359.16 384.34 356.64 C 380.76 354.85 377.27 352.08 375.26 348.57 C 373.53 345.42 374.67 341.27 378.02 339.80 C 381.62 339.16 384.34 342.13 386.93 344.11 C 393.42 349.94 402.51 347.60 409.48 353.51 C 414.61 357.48 413.46 363.68 416.64 368.33 C 419.52 371.12 424.61 371.91 428.35 373.00 C 428.53 354.67 428.33 336.33 428.53 318.00 C 428.48 313.69 428.58 309.76 425.94 306.12 C 421.78 300.05 414.16 298.01 407.19 299.53 C 404.78 300.27 402.55 301.85 400.41 303.16 Z" id="p3" />
<path d="M 407.19 299.53 C 414.16 298.01 421.78 300.05 425.94 306.12 C 428.58 309.76 428.48 313.69 428.53 318.00 C 428.33 336.33 428.53 354.67 428.35 373.00 C 424.61 371.91 419.52 371.12 416.64 368.33 C 413.46 363.68 414.61 357.48 409.48 353.51 C 402.51 347.60 393.42 349.94 386.93 344.11 C 384.34 342.13 381.62 339.16 378.02 339.80 C 374.67 341.27 373.53 345.42 375.26 348.57 C 377.27 352.08 380.76 354.85 384.34 356.64 C 389.91 359.16 396.26 359.91 402.16 361.91 C 403.43 367.33 404.48 372.34 408.50 376.48 C 413.69 381.87 421.39 383.25 428.37 384.83 C 428.29 399.87 428.75 414.98 427.83 429.99 C 427.51 436.24 428.19 442.64 427.38 448.83 C 426.57 453.74 422.95 457.92 417.98 458.90 C 409.43 461.02 400.47 452.41 401.38 443.89 C 402.03 440.04 405.48 436.69 406.52 432.94 C 407.11 429.01 403.10 426.34 399.52 427.48 C 395.72 428.78 393.06 433.23 391.56 436.73 C 389.24 442.22 389.98 447.49 390.49 453.23 C 386.43 453.91 381.73 454.81 377.67 453.93 C 371.44 452.40 366.18 447.39 363.17 441.86 C 361.15 438.07 361.27 434.30 361.15 430.14 C 365.99 427.97 370.65 426.33 374.10 422.06 C 376.81 418.89 377.87 414.60 380.51 411.47 C 383.55 408.80 389.24 409.06 392.00 406.05 C 393.48 403.11 392.81 398.72 389.15 397.82 C 381.34 396.29 372.64 400.92 369.01 407.93 C 367.07 411.13 365.82 415.59 362.05 417.07 C 357.14 419.06 350.96 419.23 346.17 416.78 C 336.54 411.18 333.41 397.75 339.20 388.31 C 340.31 386.68 341.79 384.60 343.98 384.60 C 349.65 384.40 355.52 386.11 360.95 383.49 C 363.64 382.09 366.75 379.44 366.38 376.06 C 366.35 373.84 364.40 371.24 361.98 371.54 C 356.90 371.87 352.31 374.44 346.99 373.21 C 343.49 372.35 340.96 369.87 339.70 366.54 C 335.53 356.11 341.86 343.13 351.95 338.79 C 353.58 337.85 356.01 337.03 357.04 335.38 C 358.41 331.86 358.54 327.91 360.03 324.38 C 362.05 319.37 366.24 315.61 370.42 312.39 C 373.51 310.09 377.06 307.83 380.98 307.48 C 384.79 307.29 388.87 308.72 391.52 311.49 C 394.49 314.63 395.20 319.75 398.00 322.91 C 400.85 324.62 405.33 323.62 406.30 320.11 C 407.55 313.77 403.64 308.21 400.41 303.16 C 402.55 301.85 404.78 300.27 407.19 299.53 Z" id="p4" />
<path d="M 468.93 301.92 C 477.96 303.83 486.57 307.57 493.74 313.46 C 500.69 318.66 505.63 325.47 510.01 332.87 C 519.05 327.03 529.29 323.72 540.13 324.70 C 542.73 325.01 545.12 326.23 546.33 328.63 C 547.37 331.16 547.30 334.30 547.36 337.00 C 547.25 355.00 547.34 373.00 547.34 391.00 C 547.24 393.24 547.26 396.03 546.10 398.01 C 544.47 400.34 541.80 400.74 539.24 401.42 C 532.46 403.03 526.11 404.04 520.44 408.45 C 516.07 411.72 513.97 416.57 510.15 420.16 C 508.02 422.15 505.03 421.61 502.88 419.97 C 498.25 416.47 494.69 411.55 489.65 408.31 C 482.78 403.83 475.06 402.70 467.09 401.83 C 463.41 401.51 460.47 400.08 457.53 397.93 C 457.72 368.96 457.61 339.96 457.61 310.98 C 457.71 308.39 457.98 304.93 460.13 303.13 C 462.53 301.00 466.01 301.47 468.93 301.92 Z M 469.42 390.21 C 475.63 390.81 481.90 391.88 487.79 393.99 C 492.65 395.75 496.64 398.63 500.70 401.74 C 500.77 383.82 500.69 365.90 500.74 347.98 C 500.82 343.17 499.68 338.90 497.17 334.80 C 491.11 325.08 480.91 316.73 469.61 314.17 C 469.18 318.07 469.35 322.08 469.34 326.00 C 469.40 347.40 469.31 368.81 469.42 390.21 Z M 512.67 398.94 C 519.89 394.95 527.20 392.07 535.44 391.02 C 535.57 372.74 535.53 354.45 535.51 336.17 C 529.17 337.56 521.10 338.81 516.04 343.09 C 512.75 346.00 512.64 349.90 512.57 354.00 C 512.70 368.98 512.57 383.96 512.67 398.94 Z" id="p5" />
<path d="M 469.61 314.17 C 480.91 316.73 491.11 325.08 497.17 334.80 C 499.68 338.90 500.82 343.17 500.74 347.98 C 500.69 365.90 500.77 383.82 500.70 401.74 C 496.64 398.63 492.65 395.75 487.79 393.99 C 481.90 391.88 475.63 390.81 469.42 390.21 C 469.31 368.81 469.40 347.40 469.34 326.00 C 469.35 322.08 469.18 318.07 469.61 314.17 Z" id="p6" />
<path d="M 535.51 336.17 C 535.53 354.45 535.57 372.74 535.44 391.02 C 527.20 392.07 519.89 394.95 512.67 398.94 C 512.57 383.96 512.70 368.98 512.57 354.00 C 512.64 349.90 512.75 346.00 516.04 343.09 C 521.10 338.81 529.17 337.56 535.51 336.17 Z" id="p7" />
<path d="M 473.00 436.17 C 486.33 436.27 499.67 436.27 513.00 436.18 C 515.55 436.26 518.51 436.13 520.90 437.11 C 524.86 438.54 524.75 445.46 520.69 446.65 C 517.69 447.67 514.15 447.51 511.00 447.54 C 501.00 447.41 491.00 447.47 481.00 447.45 C 476.32 447.42 471.57 447.74 466.91 447.34 C 464.99 447.08 463.06 446.78 462.13 444.86 C 461.00 442.39 461.28 438.32 464.20 437.20 C 466.86 436.09 470.17 436.25 473.00 436.17 Z" id="p8" />
<path d="M 476.00 455.43 C 484.69 455.74 492.48 454.44 501.00 456.95 C 500.69 459.38 500.92 462.50 499.67 464.66 C 497.93 466.47 494.40 466.56 492.04 466.68 C 485.36 466.75 478.68 466.62 472.00 466.73 C 469.21 466.64 465.29 466.87 462.97 465.05 C 460.49 462.50 461.23 457.14 464.84 455.99 C 468.37 455.05 472.37 455.46 476.00 455.43 Z" id="p9" />
<path d="M 553.52 564.71 C 558.24 563.98 563.24 564.47 568.03 564.37 C 573.04 563.92 578.62 567.65 579.53 572.71 C 581.10 578.53 582.74 584.44 583.37 590.44 C 579.59 590.56 575.77 590.74 571.98 590.54 C 570.71 590.36 569.58 590.54 568.81 589.31 C 566.57 585.95 565.42 581.68 564.05 577.90 C 561.14 581.06 558.45 584.41 555.59 587.60 C 554.23 588.93 553.13 590.53 551.06 590.53 C 547.34 590.70 543.40 590.92 539.72 590.27 C 537.90 589.12 538.49 585.80 538.63 583.95 C 540.09 580.18 543.38 577.02 545.72 573.75 C 548.18 570.78 550.36 566.94 553.52 564.71 Z" id="p10" />
<path d="M 212.88 564.81 C 216.19 564.28 219.66 564.55 223.00 564.52 C 239.33 564.58 255.67 564.54 272.00 564.54 C 278.02 564.72 283.12 563.33 288.20 567.44 C 288.11 571.95 288.42 576.51 288.05 581.01 C 287.82 583.14 286.79 584.99 284.56 585.46 C 280.15 586.22 275.48 585.72 271.00 585.85 C 258.13 585.59 245.29 586.04 232.43 586.18 C 232.48 597.64 232.49 609.11 232.43 620.57 C 245.96 620.48 259.50 620.52 273.02 620.51 C 275.92 620.65 279.19 620.63 279.87 624.14 C 280.32 628.52 280.38 633.53 279.77 637.89 C 278.56 640.95 275.76 640.56 273.02 640.74 C 259.49 640.71 245.97 640.75 232.45 640.71 C 232.40 652.33 232.42 663.94 232.43 675.55 C 248.29 675.53 264.15 675.55 280.01 675.53 C 282.82 675.48 285.53 676.00 288.26 676.62 C 289.52 681.44 289.50 686.33 289.24 691.26 C 289.21 692.75 288.55 694.29 287.43 695.28 C 285.34 696.49 282.36 696.36 280.01 696.44 C 259.01 696.38 237.99 696.42 216.99 696.42 C 215.05 696.32 212.47 696.42 210.82 695.25 C 208.81 693.57 208.96 690.39 208.82 688.01 C 208.85 652.70 208.84 617.32 208.84 582.00 C 208.90 577.68 208.55 573.23 209.15 568.94 C 209.45 566.81 210.82 565.36 212.88 564.81 Z" id="p11" />
<path d="M 739.45 570.63 C 743.43 569.93 747.95 569.90 751.07 572.87 C 757.03 577.55 756.80 588.25 750.54 592.58 C 744.45 597.09 735.02 594.89 731.88 587.88 C 728.43 581.35 732.33 572.51 739.45 570.63 Z" id="p12" />
<path d="M 456.02 600.01 C 464.99 601.38 472.79 606.03 478.79 612.77 C 479.20 609.85 477.99 603.99 481.63 602.88 C 486.22 601.95 491.23 602.33 495.89 602.53 C 498.11 602.66 499.46 603.82 500.04 605.97 C 500.64 608.88 500.41 612.03 500.44 615.00 C 500.35 638.00 500.47 661.00 500.36 684.00 C 499.99 692.72 498.98 702.12 495.06 710.02 C 490.41 720.14 481.10 727.82 470.84 731.80 C 453.56 738.23 433.09 736.65 417.56 726.46 C 415.28 724.75 412.82 723.28 413.21 720.02 C 413.86 715.36 417.31 710.86 419.97 707.10 C 423.76 707.97 426.94 709.92 430.42 711.54 C 436.91 714.66 443.82 716.07 451.01 715.72 C 459.26 715.31 468.31 712.19 473.15 705.12 C 477.55 698.93 477.74 690.03 477.86 682.73 C 473.80 686.65 469.38 690.00 464.01 691.90 C 449.19 697.36 430.63 693.97 419.50 682.48 C 410.78 673.55 406.48 661.37 406.21 649.00 C 405.81 639.52 407.43 630.12 411.74 621.62 C 415.97 613.68 422.81 606.67 431.13 603.06 C 438.86 599.56 447.68 598.90 456.02 600.01 Z M 449.52 618.90 C 443.27 619.51 437.42 622.54 433.70 627.66 C 429.22 633.63 428.29 641.76 428.59 649.01 C 428.78 656.12 430.56 663.06 435.82 668.14 C 441.90 674.13 450.89 675.50 459.04 674.17 C 465.06 672.96 471.26 669.94 474.61 664.58 C 478.07 659.34 478.87 652.14 478.92 646.01 C 478.63 638.88 477.65 630.99 472.22 625.78 C 466.25 619.48 457.81 618.16 449.52 618.90 Z" id="p13" />
<path d="M 576.25 601.67 C 587.58 605.52 597.01 614.37 601.53 625.45 C 604.90 633.55 605.88 642.37 605.35 651.08 C 605.19 653.12 604.02 655.11 601.85 655.43 C 597.62 655.91 593.26 655.57 589.00 655.63 C 571.87 655.66 554.74 655.56 537.62 655.70 C 538.60 660.38 539.52 664.81 542.05 668.95 C 545.24 674.38 550.64 678.20 556.70 679.75 C 563.01 681.53 569.96 680.32 575.96 677.96 C 581.63 675.73 586.00 672.12 591.22 669.14 C 595.53 672.38 598.95 676.25 600.00 681.70 C 595.51 687.24 590.35 691.89 583.75 694.77 C 572.25 699.84 559.16 700.92 547.22 696.71 C 536.16 693.02 526.79 685.04 521.17 674.85 C 514.95 663.64 514.32 651.27 515.90 638.79 C 518.19 626.62 524.70 615.10 534.99 607.98 C 546.65 599.41 562.58 597.34 576.25 601.67 Z M 537.81 639.75 C 553.32 639.94 568.83 639.79 584.34 639.83 C 583.59 633.39 582.14 627.34 577.29 622.71 C 573.22 618.62 567.66 617.06 562.00 617.26 C 555.60 617.12 549.63 619.64 545.26 624.30 C 541.03 628.70 539.35 634.00 537.81 639.75 Z" id="p14" />
<path d="M 684.55 600.60 C 692.94 602.67 700.33 608.09 704.41 615.75 C 707.28 621.34 708.77 627.71 708.63 634.00 C 708.58 652.34 708.58 670.69 708.64 689.04 C 708.54 690.83 708.77 693.07 707.55 694.53 C 706.16 696.55 703.16 696.26 701.00 696.42 C 697.10 696.38 692.89 696.74 689.09 695.79 C 686.06 694.81 686.21 691.65 686.10 689.03 C 686.12 672.35 686.22 655.65 686.11 638.97 C 685.90 631.95 683.85 624.27 676.87 621.15 C 668.08 617.39 655.85 618.86 649.28 626.26 C 645.53 630.21 643.46 635.54 643.42 640.98 C 643.32 658.76 643.52 676.56 643.32 694.34 C 641.28 695.31 639.37 696.29 637.04 696.35 C 631.54 696.46 626.41 697.13 621.44 694.37 C 621.27 666.24 621.46 638.11 621.34 609.97 C 621.42 608.38 621.28 606.50 621.91 605.00 C 622.90 603.53 624.33 602.64 626.11 602.52 C 629.95 602.23 634.02 602.25 637.86 602.51 C 639.63 602.69 641.36 603.17 642.09 604.97 C 642.96 607.65 642.58 610.86 642.52 613.66 C 653.17 602.39 669.35 597.00 684.55 600.60 Z" id="p15" />
<path d="M 819.05 599.77 C 830.36 600.67 841.27 607.39 846.26 617.74 C 849.05 623.65 850.04 630.51 850.26 636.99 C 850.27 654.00 850.21 671.00 850.30 688.01 C 850.39 691.10 849.62 693.57 848.24 696.28 C 841.88 696.34 835.87 696.96 829.60 695.45 C 828.93 691.85 828.64 688.43 828.70 684.77 C 823.76 691.69 816.38 696.16 808.17 698.11 C 794.11 702.07 776.46 695.25 770.41 681.52 C 765.09 668.80 769.82 650.97 783.01 645.01 C 796.33 638.75 810.86 641.37 824.94 637.96 C 826.25 637.63 827.46 637.15 828.48 636.23 C 828.87 631.53 827.74 626.09 824.41 622.58 C 821.95 620.16 818.49 618.70 815.07 618.38 C 807.51 617.91 800.39 617.89 793.52 621.50 C 790.11 622.99 786.88 626.12 783.21 626.71 C 780.75 626.47 778.81 623.31 777.47 621.48 C 775.71 618.74 773.60 615.02 775.85 611.95 C 779.47 607.49 785.44 604.60 790.75 602.69 C 799.97 599.34 809.37 599.14 819.05 599.77 Z M 828.69 651.14 C 820.50 654.14 812.17 653.75 803.72 655.23 C 798.59 656.25 792.89 658.25 790.81 663.55 C 789.05 667.60 790.05 672.02 792.51 675.53 C 795.64 679.63 800.89 681.81 805.99 681.69 C 812.10 681.79 818.25 678.81 822.59 674.61 C 825.49 671.76 828.17 668.26 828.52 664.07 C 828.86 659.78 828.61 655.44 828.69 651.14 Z" id="p16" />
<path d="M 310.93 602.38 C 316.24 602.41 321.68 601.68 326.49 604.09 C 326.84 617.71 326.53 631.37 326.63 645.00 C 326.80 652.63 325.87 659.60 328.31 666.95 C 330.13 672.73 335.01 677.13 340.98 678.26 C 345.43 678.98 350.20 678.78 354.49 677.29 C 362.68 674.36 368.94 667.00 368.77 658.03 C 368.75 640.13 368.76 622.29 368.77 604.39 C 370.77 603.43 372.65 602.49 374.93 602.42 C 380.35 602.31 385.42 601.62 390.29 604.37 C 390.43 634.05 390.28 663.73 390.37 693.42 C 389.55 694.38 388.73 695.35 387.91 696.32 C 381.88 696.29 376.17 696.85 370.22 695.54 C 369.39 692.67 368.87 689.84 368.55 686.87 C 358.56 697.70 342.29 701.65 328.23 697.82 C 321.22 696.16 314.87 692.27 310.70 686.32 C 306.23 679.89 304.51 671.75 304.48 664.02 C 304.47 647.68 304.51 631.34 304.44 615.00 C 304.47 611.86 304.19 608.56 304.76 605.47 C 305.49 602.70 308.56 602.49 310.93 602.38 Z" id="p17" />
<path d="M 750.38 602.56 C 751.35 603.46 752.32 604.35 753.30 605.25 C 753.47 635.06 753.46 664.88 753.29 694.69 C 751.26 695.51 749.27 696.27 747.04 696.34 C 741.52 696.44 736.56 697.31 731.66 694.23 C 731.65 664.30 731.58 634.37 731.69 604.44 C 736.89 601.19 744.43 602.62 750.38 602.56 Z" id="p18" />
<path d="M 562.00 617.26 C 567.66 617.06 573.22 618.62 577.29 622.71 C 582.14 627.34 583.59 633.39 584.34 639.83 C 568.83 639.79 553.32 639.94 537.81 639.75 C 539.35 634.00 541.03 628.70 545.26 624.30 C 549.63 619.64 555.60 617.12 562.00 617.26 Z" id="p19" />
<path d="M 449.52 618.90 C 457.81 618.16 466.25 619.48 472.22 625.78 C 477.65 630.99 478.63 638.88 478.92 646.01 C 478.87 652.14 478.07 659.34 474.61 664.58 C 471.26 669.94 465.06 672.96 459.04 674.17 C 450.89 675.50 441.90 674.13 435.82 668.14 C 430.56 663.06 428.78 656.12 428.59 649.01 C 428.29 641.76 429.22 633.63 433.70 627.66 C 437.42 622.54 443.27 619.51 449.52 618.90 Z" id="p20" />
<path d="M 828.69 651.14 C 828.61 655.44 828.86 659.78 828.52 664.07 C 828.17 668.26 825.49 671.76 822.59 674.61 C 818.25 678.81 812.10 681.79 805.99 681.69 C 800.89 681.81 795.64 679.63 792.51 675.53 C 790.05 672.02 789.05 667.60 790.81 663.55 C 792.89 658.25 798.59 656.25 803.72 655.23 C 812.17 653.75 820.50 654.14 828.69 651.14 Z" id="p21" />
</defs>
<g stroke-width="10pt">
<use stroke="#ffffff" xlink:href="#p0" />
<use stroke="#95e6ad" xlink:href="#p1" />
<use stroke="#ffffff" xlink:href="#p2" />
<use stroke="#89d8da" xlink:href="#p3" />
<use stroke="#ffffff" xlink:href="#p4" />
<use stroke="#fc786c" xlink:href="#p5" />
<use stroke="#ffffff" xlink:href="#p6" />
<use stroke="#ffffff" xlink:href="#p7" />
<use stroke="#89d8da" xlink:href="#p8" />
<use stroke="#89d8da" xlink:href="#p9" />
<use stroke="#516c75" xlink:href="#p10" />
<use stroke="#516c75" xlink:href="#p11" />
<use stroke="#516c75" xlink:href="#p12" />
<use stroke="#516c75" xlink:href="#p13" />
<use stroke="#516c75" xlink:href="#p14" />
<use stroke="#516c75" xlink:href="#p15" />
<use stroke="#516c75" xlink:href="#p16" />
<use stroke="#516c75" xlink:href="#p17" />
<use stroke="#516c75" xlink:href="#p18" />
<use stroke="#ffffff" xlink:href="#p19" />
<use stroke="#ffffff" xlink:href="#p20" />
<use stroke="#ffffff" xlink:href="#p21" />
</g>
<g>
<use fill="#ffffff" xlink:href="#p0" />
<use fill="#95e6ad" xlink:href="#p1" />
<use fill="#ffffff" xlink:href="#p2" />
<use fill="#89d8da" xlink:href="#p3" />
<use fill="#ffffff" xlink:href="#p4" />
<use fill="#fc786c" xlink:href="#p5" />
<use fill="#ffffff" xlink:href="#p6" />
<use fill="#ffffff" xlink:href="#p7" />
<use fill="#89d8da" xlink:href="#p8" />
<use fill="#89d8da" xlink:href="#p9" />
<use fill="#516c75" xlink:href="#p10" />
<use fill="#516c75" xlink:href="#p11" />
<use fill="#516c75" xlink:href="#p12" />
<use fill="#516c75" xlink:href="#p13" />
<use fill="#516c75" xlink:href="#p14" />
<use fill="#516c75" xlink:href="#p15" />
<use fill="#516c75" xlink:href="#p16" />
<use fill="#516c75" xlink:href="#p17" />
<use fill="#516c75" xlink:href="#p18" />
<use fill="#ffffff" xlink:href="#p19" />
<use fill="#ffffff" xlink:href="#p20" />
<use fill="#ffffff" xlink:href="#p21" />
</g>
</svg>